<?xml version="1.0" encoding="UTF-8"?>
<svg version="1.1" xmlns="http://www.w3.org/2000/svg" width="512" height="512">
<path d="M0 0 C18.81 0 37.62 0 57 0 C55.06328794 17.62876951 53.12518514 35.25738423 51.18454075 52.88572121 C50.28349469 61.07101261 49.38307435 69.25637193 48.48413086 77.44189453 C47.70053676 84.57706385 46.91576474 91.71210246 46.12958282 98.84698713 C45.71341664 102.62422211 45.29783731 106.40151955 44.8836689 110.17897415 C44.4936065 113.73639615 44.10196606 117.29364093 43.70912933 120.8507576 C43.49707469 122.77462866 43.28668052 124.69868251 43.07633972 126.6227417 C42.94875275 127.77531464 42.82116577 128.92788757 42.68971252 130.11538696 C42.58001916 131.11276697 42.47032579 132.11014698 42.35730839 133.13775063 C41.9871093 136.10326208 41.49131114 139.05213316 41 142 C55.19 142 69.38 142 84 142 C84 138.7 84 135.4 84 132 C84.19516718 129.41058286 84.4334562 126.82398909 84.71850586 124.24291992 C84.79492813 123.53748047 84.8713504 122.83204102 84.9500885 122.10522461 C85.19976804 119.81302908 85.45712646 117.52177327 85.71484375 115.23046875 C85.89222036 113.62010637 86.06917941 112.00969796 86.2457428 110.39924622 C86.61484572 107.04288536 86.98750729 103.68694658 87.36303711 100.33129883 C87.8435323 96.03696882 88.31727752 91.74192863 88.78865719 87.44658947 C89.15310331 84.12894538 89.5199627 80.81157195 89.8876667 77.49428749 C90.06316478 75.91034546 90.23818206 74.32635008 90.41270256 72.74230003 C90.65689115 70.53130826 90.90405132 68.32066908 91.15209961 66.11010742 C91.3619474 64.22674934 91.3619474 64.22674934 91.57603455 62.30534363 C91.9333879 59.51932501 92.44914049 56.75429754 93 54 C111.48 54 129.96 54 149 54 C148.36706643 63.49400357 147.6674986 72.88676625 146.6171875 82.3293457 C146.48209778 83.56702698 146.34700806 84.80470825 146.20782471 86.07989502 C145.84248136 89.42021969 145.47430858 92.76020583 145.10453033 96.10004067 C144.79503536 98.89893554 144.48758535 101.69805357 144.18012047 104.49717206 C143.45565046 111.09242934 142.72794057 117.68732333 141.99804688 124.28198242 C141.24562709 131.08062346 140.49840968 137.8798222 139.75372887 144.67931491 C139.11191523 150.53808439 138.46712571 156.39652092 137.81987953 162.25469273 C137.43423089 165.74532797 137.04967305 169.23607434 136.66790771 172.72713661 C136.24390635 176.60283957 135.81368322 180.4778376 135.3828125 184.3527832 C135.25706848 185.50957077 135.13132446 186.66635834 135.00177002 187.85820007 C134.88404236 188.90786957 134.7663147 189.95753906 134.64501953 191.03901672 C134.49348923 192.41184043 134.49348923 192.41184043 134.33889771 193.81239796 C134 196 134 196 133 198 C38.62 198 -55.76 198 -153 198 C-144 115 -144 115 -142 100 C-151.8375302 100.14091537 -151.8375302 100.14091537 -160 105 C-163.44293066 110.41078123 -163.83549181 115.83487943 -164.46484375 122.06640625 C-164.58428848 123.13688705 -164.70373322 124.20736786 -164.82679749 125.31028748 C-165.33518154 129.86721958 -165.81741138 134.42680015 -166.29956055 138.98657227 C-168.7209723 161.63044093 -172.17387816 180.34102507 -189 197 C-189.73734375 197.77085937 -190.4746875 198.54171875 -191.234375 199.3359375 C-203.89402395 211.78317623 -221.82126278 218.2478207 -239.4375 218.5 C-260.23121383 218.13358053 -277.73572853 208.93229282 -295 198 C-293.66908469 182.68223775 -292.10193181 167.40285631 -290.375 152.125 C-290.14301903 150.05731523 -289.91124739 147.98960697 -289.6796875 145.921875 C-289.12218893 140.94764422 -288.56191313 135.97373394 -288 131 C-283.69697871 132.58797088 -279.75540945 134.70408165 -275.75 136.9140625 C-274.32242628 137.68379896 -272.89401205 138.45197824 -271.46484375 139.21875 C-269.23691568 140.41453336 -267.01454595 141.61690345 -264.80517578 142.84667969 C-255.67614731 147.9140381 -247.79630067 152.03783235 -237 150 C-231.04421244 147.52524175 -226.75663237 143.68921507 -223.9543457 137.80395508 C-222.79410388 134.39505834 -222.45191235 131.22168598 -222.10546875 127.63671875 C-221.95299051 126.17637826 -221.79997714 124.71609357 -221.64648438 123.25585938 C-221.41635714 120.99071866 -221.19109023 118.72539037 -220.97631836 116.45874023 C-219.02201326 96.14159595 -213.74100401 78.81314596 -199 64 C-198.26136719 63.2265625 -197.52273437 62.453125 -196.76171875 61.65625 C-179.55956005 44.7721144 -157.38227307 42.82204743 -134.4921875 42.90234375 C-132.91464279 42.90421256 -131.3370975 42.90563427 -129.759552 42.90663147 C-125.63983513 42.91042022 -121.52015441 42.92021871 -117.40045166 42.93133545 C-113.18363941 42.94162856 -108.96682123 42.9461459 -104.75 42.95117188 C-96.49998354 42.96184483 -88.24999629 42.97887662 -80 43 C-79.91007009 49.15309552 -80.20392918 55.08378589 -80.91796875 61.19165039 C-81.06427231 62.49572342 -81.06427231 62.49572342 -81.21353149 63.82614136 C-81.53345027 66.66720527 -81.86041232 69.50740956 -82.1875 72.34765625 C-82.41213989 74.33014559 -82.63633558 76.31268532 -82.86010742 78.29527283 C-83.44751849 83.48902588 -84.04092662 88.68207644 -84.63562012 93.875 C-85.34938173 100.11880011 -86.05563207 106.36345382 -86.76315308 112.60796356 C-87.83637403 122.07263918 -88.91908304 131.53618595 -90 141 C-65.25 141.33 -40.5 141.66 -15 142 C-14.67 137.05 -14.34 132.1 -14 127 C-13.56132306 122.54071172 -13.10132686 118.09099694 -12.60131836 113.63891602 C-12.46462234 112.39802216 -12.32792633 111.1571283 -12.18708801 109.87863159 C-11.81759512 106.53018485 -11.44527304 103.18207719 -11.07159877 99.83409619 C-10.67953751 96.31502721 -10.2912224 92.79554477 -9.90248108 89.27610779 C-9.16846356 82.63582331 -8.43115997 75.99590817 -7.69262463 69.35612482 C-6.69293334 60.36665505 -5.69842154 51.37661234 -4.70359325 42.38660336 C-3.13991471 28.25726884 -1.56940579 14.12870223 0 0 Z " fill="#0041F9" transform="translate(326,118)"/>
<path d="M0 0 C4.56613335 3.52800712 7.39203514 8.27766793 9.19921875 13.69921875 C10.20198966 22.65840147 8.06639533 30.42118438 2.44921875 37.51171875 C-3.79860215 44.11789347 -10.70067307 47.19365718 -19.80078125 47.69921875 C-27.13172133 47.13618417 -32.65959245 44.2927433 -37.55078125 38.76171875 C-42.2090507 32.42129644 -42.84045615 26.40017355 -41.80078125 18.69921875 C-38.53657102 9.06921774 -33.5160869 2.98453218 -24.61328125 -1.67578125 C-16.27867711 -5.035137 -7.79326551 -4.37979012 0 0 Z " fill="#0040F3" transform="translate(133.80078125,347.30078125)"/>
<path d="M0 0 C5.08599146 3.4903863 8.26530201 7.09423044 10 13 C11.20020819 21.98931444 9.59118097 28.74182521 4.52734375 36.15625 C-0.47842846 42.4992616 -7.05477029 46.53375455 -15.0625 47.9375 C-22.41115631 48.05414534 -28.20894317 46.73813741 -34 42 C-39.00357702 36.76898766 -41.02766657 32.42075477 -41.375 25.25 C-41.14332376 17.11694479 -38.37914201 11.07726684 -32.875 5.125 C-23.71179859 -3.33449149 -11.27367326 -6.41052009 0 0 Z " fill="#0141F3" transform="translate(72,347)"/>
<path d="M0 0 C5.62948769 3.35626962 9.54807053 8.22102535 11.5625 14.4375 C12.63982408 23.09011344 11.78980297 30.3303085 6.5625 37.4375 C1.09905278 43.42176181 -4.46538639 48.0299497 -12.7734375 48.7109375 C-20.65834309 48.92583011 -25.44201825 48.1011545 -32.0625 43.6875 C-37.47596269 38.5589564 -39.15010581 33.57425798 -39.51953125 26.265625 C-39.26631198 17.53558937 -36.01107014 11.84304274 -29.94921875 5.64453125 C-21.57372616 -1.71496069 -10.62758059 -4.67369701 0 0 Z " fill="#0040F3" transform="translate(443.4375,330.5625)"/>
<path d="M0 0 C-0.33 3.96 -0.66 7.92 -1 12 C-8.13615987 13.43626069 -15.2726412 14.87089912 -22.40970421 16.30266571 C-25.72353745 16.96752181 -29.03722347 17.63309433 -32.35058594 18.30029297 C-36.15777842 19.06689978 -39.96558847 19.8304107 -43.7734375 20.59375 C-44.96617279 20.83436157 -46.15890808 21.07497314 -47.38778687 21.32287598 C-48.48877716 21.54310425 -49.58976746 21.76333252 -50.72412109 21.99023438 C-51.69674896 22.18564819 -52.66937683 22.38106201 -53.67147827 22.58239746 C-56 23 -56 23 -58 23 C-58.05447047 21.58376784 -58.09300508 20.16691809 -58.125 18.75 C-58.14820313 17.96109375 -58.17140625 17.1721875 -58.1953125 16.359375 C-57.97166792 13.65774843 -57.50120481 12.25629216 -56 10 C-53.85697937 9.13934326 -53.85697937 9.13934326 -51.1706543 8.62792969 C-50.16588547 8.42802429 -49.16111664 8.2281189 -48.12590027 8.02215576 C-47.03634537 7.82406311 -45.94679047 7.62597046 -44.82421875 7.421875 C-43.70690872 7.20557434 -42.58959869 6.98927368 -41.43843079 6.76641846 C-39.07190229 6.31146012 -36.70376499 5.86480419 -34.33422852 5.42578125 C-30.7095771 4.75409114 -27.09002804 4.05914236 -23.47070312 3.359375 C-21.17213573 2.92050724 -18.87331507 2.48296343 -16.57421875 2.046875 C-14.94899544 1.73759064 -14.94899544 1.73759064 -13.29093933 1.42205811 C-12.27671402 1.23476135 -11.26248871 1.0474646 -10.2175293 0.85449219 C-8.88421822 0.60611603 -8.88421822 0.60611603 -7.52397156 0.35272217 C-5 0 -5 0 0 0 Z " fill="#013CE1" transform="translate(481,118)"/>
</svg>
