<?xml version="1.0" encoding="UTF-8"?>
<svg version="1.1" xmlns="http://www.w3.org/2000/svg" width="512" height="512">
<path d="M0 0 C168.96 0 337.92 0 512 0 C512 168.96 512 337.92 512 512 C343.04 512 174.08 512 0 512 C0 343.04 0 174.08 0 0 Z " fill="#CC1B2B" transform="translate(0,0)"/>
<path d="M0 0 C53.79 0 107.58 0 163 0 C168.445 8.91 168.445 8.91 174 18 C177.62569557 23.46573213 177.62569557 23.46573213 181.28125 28.91015625 C184.54403808 33.78120666 187.67458071 38.73546441 190.8125 43.6875 C195.38391299 50.89657673 199.97663722 58.09025932 204.625 65.25 C205.14884277 66.06114258 205.67268555 66.87228516 206.21240234 67.70800781 C208.92096673 71.88339747 211.68547721 76.00453166 214.55078125 80.07421875 C215.11909668 80.89180664 215.68741211 81.70939453 216.27294922 82.55175781 C217.35668584 84.10503945 218.45532741 85.64806138 219.57080078 87.17871094 C220.90094218 89.09522041 222.09269283 90.85067964 223 93 C222.31640625 96.00390625 222.31640625 96.00390625 221 98 C227.64301185 87.74007714 234.71069639 77.79233241 247 74 C257.48336079 72.88520499 266.43635338 73.14102912 275 80 C280.31019145 84.71528026 284.18546566 89.87646689 287.9375 95.875 C288.48325684 96.7306958 289.02901367 97.5863916 289.59130859 98.46801758 C290.77369345 100.32318438 291.9522751 102.18077952 293.12744141 104.04052734 C295.75565846 108.19427534 298.41014021 112.33103722 301.06274414 116.46923828 C303.11996838 119.67964789 305.17350402 122.89239396 307.2265625 126.10546875 C310.3017137 130.91412356 313.39309543 135.71181622 316.5 140.5 C321.02950976 147.48119129 325.51758322 154.48849165 330 161.5 C334.5885877 168.6768153 339.18241091 175.84987523 343.8125 183 C344.45759521 183.99785522 344.45759521 183.99785522 345.11572266 185.01586914 C347.37623503 188.50872535 349.65106251 191.99146812 351.94140625 195.46484375 C365.28182585 215.75945238 370.31016157 233.06993618 367.609375 257.5390625 C363.99749017 274.34821883 352.71814457 288.87806531 343.37680054 302.90097046 C339.42457378 308.84337149 335.58334545 314.85536241 331.75 320.875 C327.03149069 328.27088503 322.29203073 335.65152634 317.5 343 C312.62633884 350.47446539 307.80351194 357.98027068 303 365.5 C297.6840746 373.8218946 292.33505872 382.12045701 286.94018555 390.39135742 C282.52320561 397.17231645 278.16561593 403.99041469 273.8125 410.8125 C267.98123328 419.94819756 262.07239315 429.02278416 256 438 C251.61437508 434.0159314 248.79418893 429.71806459 245.8125 424.625 C241.15676966 416.83881511 236.27074603 409.25961991 231.18310547 401.75048828 C229.2323963 398.86427599 227.30463901 395.9628217 225.375 393.0625 C224.72273437 392.08410156 224.07046875 391.10570312 223.3984375 390.09765625 C222.93695313 389.40542969 222.47546875 388.71320313 222 388 C225.38849114 388 226.25465529 388.60207067 229 390.4375 C234.58444922 394.14988954 239.39150963 394.6895816 246 394 C255.92153758 391.08376531 261.41834598 385.01752754 266.5625 376.4375 C267.61974819 374.71922344 268.67838646 373.00180156 269.73828125 371.28515625 C270.27791504 370.40617676 270.81754883 369.52719727 271.37353516 368.62158203 C273.93302543 364.49612323 276.59050712 360.4364279 279.25 356.375 C284.14173131 348.87798633 288.9901496 341.35432639 293.8125 333.8125 C294.4830542 332.76384766 295.1536084 331.71519531 295.84448242 330.63476562 C298.57410016 326.36430294 301.30235197 322.09297072 304.02929688 317.82080078 C327.54248624 280.98612635 327.54248624 280.98612635 337.75219727 265.96582031 C344.63497207 255.12252101 344.63733596 240.27038419 342.45703125 227.92578125 C340.14639817 221.53628415 335.79507317 215.94028427 331.96484375 210.37109375 C328.58173293 205.42989599 325.38687027 200.37386758 322.1875 195.3125 C316.03756298 185.6072221 309.79798095 175.96358086 303.52294922 166.33886719 C301.13282814 162.668242 298.75334985 158.99075938 296.375 155.3125 C295.92874268 154.62244873 295.48248535 153.93239746 295.02270508 153.22143555 C294.12933289 151.83988361 293.23602207 150.45829199 292.34277344 149.07666016 C289.60681373 144.84537411 286.86917377 140.61517446 284.13110352 136.38525391 C281.79970747 132.78320753 279.47033062 129.1798818 277.14453125 125.57421875 C274.85808333 122.03045971 272.56569451 118.49062167 270.26806641 114.95410156 C269.44036699 113.67860944 268.6144379 112.40196626 267.79052734 111.12402344 C266.69943238 109.43312638 265.59996593 107.74763976 264.5 106.0625 C263.8915625 105.12535156 263.283125 104.18820313 262.65625 103.22265625 C260.48713146 100.3117401 258.7522163 99.15044326 255.1875 98.4375 C250.52562888 99.26018314 248.70985034 102.37813946 246 106 C243.38121919 109.83532583 240.90492379 113.75355167 238.4375 117.6875 C237.37419309 119.36623792 236.31087758 121.0449707 235.24653625 122.72305298 C234.17683215 124.41015051 233.10891952 126.09838348 232.04101562 127.78662109 C229.12356881 132.37985495 226.1603374 136.94249064 223.1875 141.5 C222.12496931 143.13149043 221.06246866 144.76300043 220 146.39453125 C219.4946875 147.17006348 218.989375 147.9455957 218.46875 148.74462891 C210.93947176 160.30637631 203.48588425 171.91570507 196.0612793 183.54492188 C192.29257984 189.44149599 188.49325663 195.31577063 184.65307617 201.16601562 C168.59656346 224.99659848 168.59656346 224.99659848 167.625 253.1875 C170.67118274 262.91024766 176.42352673 271.3607169 182.10546875 279.69921875 C185.4502005 284.62615404 188.62878348 289.65559792 191.8125 294.6875 C198.00139702 304.45126606 204.25819335 314.16805056 210.58837891 323.84082031 C211.87949881 325.81568445 213.16480374 327.79421005 214.44921875 329.7734375 C215.49529297 331.37058594 215.49529297 331.37058594 216.5625 333 C217.14128906 333.886875 217.72007812 334.77375 218.31640625 335.6875 C220.05411458 338.07432908 221.75666608 340.07777074 224 342 C227.43954057 342.55971982 227.43954057 342.55971982 231 341 C237.04644657 335.43841 241.06544976 327.2439413 245.34765625 320.28515625 C247.90648769 316.13328532 250.53261719 312.02847079 253.1875 307.9375 C253.63520752 307.2470459 254.08291504 306.5565918 254.54418945 305.84521484 C257.2244187 301.71828414 259.91556053 297.59854182 262.609375 293.48046875 C269.64431802 282.72284579 276.66031125 271.95718233 283.45703125 261.046875 C284.95399218 258.64422231 286.48018391 256.29464511 288.07421875 253.953125 C291.87390333 248.24916959 293.07997449 243.84259129 292 237 C290.58181446 233.66555016 288.61535322 230.86769669 286.5 227.9375 C285.30916984 226.20451686 284.1204718 224.47006723 282.93359375 222.734375 C281.98009033 221.35862305 281.98009033 221.35862305 281.00732422 219.95507812 C276.67971362 213.58419528 272.64806638 207.0153098 268.55859375 200.48999023 C265.03596095 194.93908037 261.4336848 189.85855104 257 185 C253.87206681 185.30738652 252.3961526 185.57459723 250.21777344 187.91381836 C249.68700195 188.73503174 249.15623047 189.55624512 248.609375 190.40234375 C248.01318359 191.30968262 247.41699219 192.21702148 246.80273438 193.15185547 C246.20783203 194.09174316 245.61292969 195.03163086 245 196 C244.44119141 196.86125488 243.88238281 197.72250977 243.30664062 198.60986328 C241.60301695 201.24968109 239.92397359 203.90379397 238.25 206.5625 C237.033124 208.48603901 235.81566846 210.4092115 234.59765625 212.33203125 C233.99711426 213.28029785 233.39657227 214.22856445 232.77783203 215.20556641 C229.64838649 220.1244944 226.47182322 225.01281332 223.28808594 229.89672852 C218.97091579 236.53516211 217.97961845 241.02701871 219 249 C221.89996419 255.78503072 227.55541449 258.99682315 234 262 C234.66 262.33 235.32 262.66 236 263 C244.0741397 263.9471587 251.27582808 262.32197747 257.9609375 257.62109375 C259.35645946 256.47126227 260.687331 255.24358115 262 254 C260.68263625 257.63852894 259.07964723 260.52404786 256.80078125 263.64453125 C253.06015461 268.87289613 249.60819449 274.246234 246.1875 279.6875 C241.92090864 286.4261777 237.64553071 293.15697582 233.25 299.8125 C232.84418701 300.43406982 232.43837402 301.05563965 232.02026367 301.69604492 C229.23636787 305.88181606 229.23636787 305.88181606 227 307 C220.49239743 296.97663757 214.01656028 286.9329214 207.5625 276.875 C206.87671875 275.80902588 206.1909375 274.74305176 205.484375 273.64477539 C203.64279527 270.77139341 201.81471974 267.89040846 200 265 C199.57444824 264.32356445 199.14889648 263.64712891 198.71044922 262.95019531 C193.03110655 253.53092555 192.62378625 242.69160157 194 232 C195.52128634 226.81275674 198.0800141 222.50459929 201 218 C201.51014648 217.19675293 202.02029297 216.39350586 202.54589844 215.56591797 C205.60675158 210.75965606 208.72191871 205.99230272 211.875 201.24609375 C216.81768573 193.79780658 221.59978899 186.24851267 226.36889648 178.68823242 C240.59443403 156.30368583 240.59443403 156.30368583 248 154 C254.38238646 153.11065107 260.76899365 152.74512902 266.5 156.0625 C273.00500557 161.2216101 277.38815838 167.86564342 281.6875 174.875 C282.74525532 176.57474079 283.80386589 178.27394963 284.86328125 179.97265625 C285.39002441 180.81973145 285.91676758 181.66680664 286.45947266 182.53955078 C288.72437322 186.1569308 291.04666598 189.73575146 293.375 193.3125 C295.25142232 196.20741287 297.12559162 199.10378286 299 202 C299.59200195 202.91346191 300.18400391 203.82692383 300.79394531 204.76806641 C302.7016159 207.71677449 304.60147132 210.67039943 306.5 213.625 C307.09989746 214.54966064 307.69979492 215.47432129 308.31787109 216.42700195 C315.54179112 227.70344024 319.23943195 238.56723031 316.3125 252.125 C313.74888653 260.45156128 308.98777091 267.8710829 304.1875 275.0625 C303.03419608 276.81316992 301.88190007 278.56450413 300.73046875 280.31640625 C300.12509277 281.23566895 299.5197168 282.15493164 298.89599609 283.10205078 C295.55548821 288.2078747 292.28108788 293.35587483 289 298.5 C283.14193787 307.66941322 277.25276835 316.81704612 271.30078125 325.92578125 C268.87797676 329.63710741 266.48671498 333.36735043 264.10546875 337.10546875 C263.44297119 338.13849121 262.78047363 339.17151367 262.09790039 340.23583984 C260.82056502 342.22779386 259.54977512 344.22396671 258.28686523 346.22509766 C252.81165044 354.72907474 247.46899653 361.09869501 238 365 C237.0925 365.4125 236.185 365.825 235.25 366.25 C226.18154733 368.34271985 218.92356272 367.45280266 210.80078125 362.859375 C200.50796307 356.026207 194.97765675 346.01548005 188.67285156 335.69921875 C185.78294785 331.03623342 182.76186148 326.4597705 179.75 321.875 C173.64272369 312.55078726 167.61316906 303.17915292 161.62988281 293.77490234 C157.17592264 286.78791172 152.61963654 279.87815928 148 273 C148 273.66 148 274.32 148 275 C146.97516889 276.73409949 145.88737415 278.43112443 144.7734375 280.109375 C144.07831055 281.16302246 143.38318359 282.21666992 142.66699219 283.30224609 C142.29360718 283.86385437 141.92022217 284.42546265 141.53552246 285.00408936 C139.56893877 287.96265286 137.61729313 290.93104871 135.6640625 293.8984375 C135.26775635 294.49971466 134.8714502 295.10099182 134.46313477 295.7204895 C130.8332909 301.23486645 127.28034865 306.79643305 123.75 312.375 C117.74572009 321.85089207 111.6495899 331.26402298 105.52294922 340.66113281 C101.7746055 346.41764656 98.05019418 352.1896969 94.32080078 357.95849609 C93.0265446 359.95897117 91.73038684 361.95819997 90.43359375 363.95703125 C85.00666414 372.3258421 79.61948905 380.71921188 74.25 389.125 C67.08498619 400.33597844 59.85154887 411.50053319 52.55371094 422.62548828 C51.22869015 424.65049647 49.91258091 426.68076147 48.6015625 428.71484375 C37.0939274 446.38565891 22.96872065 461.26330373 3 469 C2.01 469 1.02 469 0 469 C0 314.23 0 159.46 0 0 Z " fill="#DF323D" transform="translate(0,0)"/>
<path d="M0 0 C115.17 0 230.34 0 349 0 C349 23 349 23 341.75 31.3125 C340.30435614 32.62806818 338.82984359 33.91421938 337.3046875 35.13671875 C332.98022054 38.84029008 329.92034414 42.83923462 326.875 47.625 C326.40231689 48.36459961 325.92963379 49.10419922 325.44262695 49.86621094 C324.4663482 51.41441603 323.49717777 52.96712326 322.53466797 54.52392578 C320.89114127 57.17563558 319.21665815 59.80581216 317.53515625 62.43359375 C315.13742305 66.18223615 312.74797328 69.93588337 310.3671875 73.6953125 C304.50537895 82.94262131 298.53709347 92.12064802 292.546875 101.28515625 C285.21180418 112.50881541 277.92940876 123.76342864 270.71362305 135.06420898 C266.44401467 141.75006213 262.15072029 148.41951609 257.81958008 155.06567383 C255.55807444 158.54767457 253.34261899 162.05193226 251.17578125 165.59375 C250.71606934 166.34261475 250.25635742 167.09147949 249.78271484 167.86303711 C248.90544613 169.29739533 248.03436279 170.73556049 247.17041016 172.17797852 C246.16659564 173.81893351 245.09006703 175.41502974 244 177 C243.34 177 242.68 177 242 177 C241.9071875 177.55558594 241.814375 178.11117187 241.71875 178.68359375 C240.8105041 181.61071234 239.31391093 183.59810871 237.5 186.0625 C235.4977463 188.79098097 234.0738823 190.7783531 233 194 C232.34 194 231.68 194 231 194 C230.814375 195.1446875 230.814375 195.1446875 230.625 196.3125 C230 199 230 199 228 202 C227.34 202 226.68 202 226 202 C225.89558594 202.55171875 225.79117188 203.1034375 225.68359375 203.671875 C224.85439616 206.49588509 223.5720035 208.72554916 222.0625 211.25 C221.53785156 212.14203125 221.01320313 213.0340625 220.47265625 213.953125 C219.98667969 214.62859375 219.50070312 215.3040625 219 216 C218.34 216 217.68 216 217 216 C217 216.99 217 217.98 217 219 C216.34 219 215.68 219 215 219 C214.6596875 219.99 214.6596875 219.99 214.3125 221 C213 224 213 224 211.82421875 225.515625 C206.56484831 232.40400399 206.63576841 240.649609 206 249 C205.67 249 205.34 249 205 249 C204.96559814 248.31075439 204.93119629 247.62150879 204.89575195 246.91137695 C203.72262661 225.1348967 198.98094247 211.82426797 186.90478516 193.86279297 C183.48760525 188.72694939 180.18848739 183.51558774 176.875 178.3125 C170.18861174 167.84560881 163.45930838 157.40758008 156.6953125 146.99072266 C151.08795744 138.35365393 145.5223668 129.69169909 140 121 C138.22948197 118.21665499 136.4584777 115.43362068 134.68701172 112.65087891 C133.59665213 110.93754687 132.50707894 109.223714 131.41845703 107.50927734 C119.51038512 87.86391803 119.51038512 87.86391803 101 75 C98.1452763 74.66149521 95.59643585 74.47550837 92.75 74.5 C91.62501099 74.50640503 91.62501099 74.50640503 90.47729492 74.51293945 C81.34622314 74.79178841 74.46859152 78.60658922 68 85 C65.88136846 87.66893434 63.99673657 90.46674834 62.125 93.3125 C61.62742188 94.05306641 61.12984375 94.79363281 60.6171875 95.55664062 C59.40337124 97.36569371 58.20053595 99.1821066 57 101 C56.67 100.34 56.34 99.68 56 99 C56.93446535 96.96855359 57.93224776 94.96466413 59 93 C58.28457031 91.93265625 57.56914062 90.8653125 56.83203125 89.765625 C46.57165886 74.4325719 36.48564782 58.99574193 26.67114258 43.37329102 C21.97672604 35.92062548 17.16624613 28.5452032 12.33837891 21.1784668 C10.55452855 18.45514779 8.77634575 15.72821905 7 13 C6.33822754 11.989375 5.67645508 10.97875 4.99462891 9.9375 C4.35315918 8.9475 3.71168945 7.9575 3.05078125 6.9375 C2.46594971 6.03902344 1.88111816 5.14054688 1.27856445 4.21484375 C0 2 0 2 0 0 Z " fill="#D82734" transform="translate(163,0)"/>
<path d="M0 0 C9.24806166 4.84299608 15.16648194 12.06698065 20.6171875 20.78125 C21.16294434 21.6369458 21.70870117 22.4926416 22.27099609 23.37426758 C23.45338095 25.22943438 24.6319626 27.08702952 25.80712891 28.94677734 C28.43534596 33.10052534 31.08982771 37.23728722 33.74243164 41.37548828 C35.79965588 44.58589789 37.85319152 47.79864396 39.90625 51.01171875 C42.9814012 55.82037356 46.07278293 60.61806622 49.1796875 65.40625 C53.70919726 72.38744129 58.19727072 79.39474165 62.6796875 86.40625 C67.2682752 93.5830653 71.86209841 100.75612523 76.4921875 107.90625 C76.92225098 108.57148682 77.35231445 109.23672363 77.79541016 109.92211914 C80.05592253 113.41497535 82.33075001 116.89771812 84.62109375 120.37109375 C97.96151335 140.66570238 102.98984907 157.97618618 100.2890625 182.4453125 C96.67717767 199.25446883 85.39783207 213.78431531 76.05648804 227.80722046 C72.10426128 233.74962149 68.26303295 239.76161241 64.4296875 245.78125 C59.71117819 253.17713503 54.97171823 260.55777634 50.1796875 267.90625 C45.30602634 275.38071539 40.48319944 282.88652068 35.6796875 290.40625 C30.3637621 298.7281446 25.01474622 307.02670701 19.61987305 315.29760742 C15.20289311 322.07856645 10.84530343 328.89666469 6.4921875 335.71875 C0.66092078 344.85444756 -5.24791935 353.92903416 -11.3203125 362.90625 C-15.70593742 358.9221814 -18.52612357 354.62431459 -21.5078125 349.53125 C-26.16354284 341.74506511 -31.04956647 334.16586991 -36.13720703 326.65673828 C-38.0879162 323.77052599 -40.01567349 320.8690717 -41.9453125 317.96875 C-42.92371094 316.50115234 -42.92371094 316.50115234 -43.921875 315.00390625 C-44.38335937 314.31167969 -44.84484375 313.61945313 -45.3203125 312.90625 C-41.93182136 312.90625 -41.06565721 313.50832067 -38.3203125 315.34375 C-32.73586328 319.05613954 -27.92880287 319.5958316 -21.3203125 318.90625 C-11.39877492 315.99001531 -5.90196652 309.92377754 -0.7578125 301.34375 C0.29943569 299.62547344 1.35807396 297.90805156 2.41796875 296.19140625 C2.95760254 295.31242676 3.49723633 294.43344727 4.05322266 293.52783203 C6.61271293 289.40237323 9.27019462 285.3426779 11.9296875 281.28125 C16.82141881 273.78423633 21.6698371 266.26057639 26.4921875 258.71875 C27.1627417 257.67009766 27.8332959 256.62144531 28.52416992 255.54101562 C31.25378766 251.27055294 33.98203947 246.99922072 36.70898438 242.72705078 C60.22217374 205.89237635 60.22217374 205.89237635 70.43188477 190.87207031 C77.31465957 180.02877101 77.31702346 165.17663419 75.13671875 152.83203125 C72.82608567 146.44253415 68.47476067 140.84653427 64.64453125 135.27734375 C61.26142043 130.33614599 58.06655777 125.28011758 54.8671875 120.21875 C48.71725048 110.5134721 42.47766845 100.86983086 36.20263672 91.24511719 C33.81251564 87.574492 31.43303735 83.89700938 29.0546875 80.21875 C28.38530151 79.1836731 28.38530151 79.1836731 27.70239258 78.12768555 C26.80902039 76.74613361 25.91570957 75.36454199 25.02246094 73.98291016 C22.28650123 69.75162411 19.54886127 65.52142446 16.81079102 61.29150391 C14.47939497 57.68945753 12.15001812 54.0861318 9.82421875 50.48046875 C7.53777083 46.93670971 5.24538201 43.39687167 2.94775391 39.86035156 C2.12005449 38.58485944 1.2941254 37.30821626 0.47021484 36.03027344 C-0.62088012 34.33937638 -1.72034657 32.65388976 -2.8203125 30.96875 C-3.42875 30.03160156 -4.0371875 29.09445313 -4.6640625 28.12890625 C-6.83318104 25.2179901 -8.5680962 24.05669326 -12.1328125 23.34375 C-16.79468362 24.16643314 -18.61046216 27.28438946 -21.3203125 30.90625 C-23.93909331 34.74157583 -26.41538871 38.65980167 -28.8828125 42.59375 C-29.94611941 44.27248792 -31.00943492 45.9512207 -32.07377625 47.62930298 C-33.14348035 49.31640051 -34.21139298 51.00463348 -35.27929688 52.69287109 C-38.19674369 57.28610495 -41.1599751 61.84874064 -44.1328125 66.40625 C-45.19534319 68.03774043 -46.25784384 69.66925043 -47.3203125 71.30078125 C-47.825625 72.07631348 -48.3309375 72.8518457 -48.8515625 73.65087891 C-56.38084074 85.21262631 -63.83442825 96.82195507 -71.2590332 108.45117188 C-75.02773266 114.34774599 -78.82705587 120.22202063 -82.66723633 126.07226562 C-98.72374904 149.90284848 -98.72374904 149.90284848 -99.6953125 178.09375 C-96.64912976 187.81649766 -90.89678577 196.2669669 -85.21484375 204.60546875 C-81.870112 209.53240404 -78.69152902 214.56184792 -75.5078125 219.59375 C-69.31891548 229.35751606 -63.06211915 239.07430056 -56.73193359 248.74707031 C-55.44081369 250.72193445 -54.15550876 252.70046005 -52.87109375 254.6796875 C-52.17371094 255.74445313 -51.47632813 256.80921875 -50.7578125 257.90625 C-50.17902344 258.793125 -49.60023438 259.68 -49.00390625 260.59375 C-47.26619792 262.98057908 -45.56364642 264.98402074 -43.3203125 266.90625 C-39.88077193 267.46596982 -39.88077193 267.46596982 -36.3203125 265.90625 C-30.27386593 260.34466 -26.25486274 252.1501913 -21.97265625 245.19140625 C-19.41382481 241.03953532 -16.78769531 236.93472079 -14.1328125 232.84375 C-13.46125122 231.80806885 -13.46125122 231.80806885 -12.77612305 230.75146484 C-10.0958938 226.62453414 -7.40475197 222.50479182 -4.7109375 218.38671875 C2.32400552 207.62909579 9.33999875 196.86343233 16.13671875 185.953125 C17.63367968 183.55047231 19.15987141 181.20089511 20.75390625 178.859375 C24.55359083 173.15541959 25.75966199 168.74884129 24.6796875 161.90625 C23.26150196 158.57180016 21.29504072 155.77394669 19.1796875 152.84375 C17.98885734 151.11076686 16.8001593 149.37631723 15.61328125 147.640625 C14.9776123 146.72345703 14.34194336 145.80628906 13.68701172 144.86132812 C9.35940112 138.49044528 5.32775388 131.9215598 1.23828125 125.39624023 C-2.28435155 119.84533037 -5.8866277 114.76480104 -10.3203125 109.90625 C-13.44824569 110.21363652 -14.9241599 110.48084723 -17.10253906 112.82006836 C-17.63331055 113.64128174 -18.16408203 114.46249512 -18.7109375 115.30859375 C-19.30712891 116.21593262 -19.90332031 117.12327148 -20.51757812 118.05810547 C-21.11248047 118.99799316 -21.70738281 119.93788086 -22.3203125 120.90625 C-22.87912109 121.76750488 -23.43792969 122.62875977 -24.01367188 123.51611328 C-25.71729555 126.15593109 -27.39633891 128.81004397 -29.0703125 131.46875 C-30.2871885 133.39228901 -31.50464404 135.3154615 -32.72265625 137.23828125 C-33.62346924 138.66068115 -33.62346924 138.66068115 -34.54248047 140.11181641 C-37.67192601 145.0307444 -40.84848928 149.91906332 -44.03222656 154.80297852 C-48.34939671 161.44141211 -49.34069405 165.93326871 -48.3203125 173.90625 C-45.42034831 180.69128072 -39.76489801 183.90307315 -33.3203125 186.90625 C-32.6603125 187.23625 -32.0003125 187.56625 -31.3203125 187.90625 C-23.2461728 188.8534087 -16.04448442 187.22822747 -9.359375 182.52734375 C-7.96385304 181.37751227 -6.6329815 180.14983115 -5.3203125 178.90625 C-6.63767625 182.54477894 -8.24066527 185.43029786 -10.51953125 188.55078125 C-14.26015789 193.77914613 -17.71211801 199.152484 -21.1328125 204.59375 C-25.39940386 211.3324277 -29.67478179 218.06322582 -34.0703125 224.71875 C-34.47612549 225.34031982 -34.88193848 225.96188965 -35.30004883 226.60229492 C-38.08394463 230.78806606 -38.08394463 230.78806606 -40.3203125 231.90625 C-46.82791507 221.88288757 -53.30375222 211.8391714 -59.7578125 201.78125 C-60.44359375 200.71527588 -61.129375 199.64930176 -61.8359375 198.55102539 C-63.67751723 195.67764341 -65.50559276 192.79665846 -67.3203125 189.90625 C-67.74586426 189.22981445 -68.17141602 188.55337891 -68.60986328 187.85644531 C-74.28920595 178.43717555 -74.69652625 167.59785157 -73.3203125 156.90625 C-71.79902616 151.71900674 -69.2402984 147.41084929 -66.3203125 142.90625 C-65.55509277 141.70137939 -65.55509277 141.70137939 -64.77441406 140.47216797 C-61.71356092 135.66590606 -58.59839379 130.89855272 -55.4453125 126.15234375 C-50.50262677 118.70405658 -45.72052351 111.15476267 -40.95141602 103.59448242 C-26.72587847 81.20993583 -26.72587847 81.20993583 -19.3203125 78.90625 C-12.93792604 78.01690107 -6.55131885 77.65137902 -0.8203125 80.96875 C5.68469307 86.1278601 10.06784588 92.77189342 14.3671875 99.78125 C15.42494282 101.48099079 16.48355339 103.18019963 17.54296875 104.87890625 C18.06971191 105.72598145 18.59645508 106.57305664 19.13916016 107.44580078 C21.40406072 111.0631808 23.72635348 114.64200146 26.0546875 118.21875 C27.93110982 121.11366287 29.80527912 124.01003286 31.6796875 126.90625 C32.27168945 127.81971191 32.86369141 128.73317383 33.47363281 129.67431641 C35.3813034 132.62302449 37.28115882 135.57664943 39.1796875 138.53125 C39.77958496 139.45591064 40.37948242 140.38057129 40.99755859 141.33325195 C48.22147862 152.60969024 51.91911945 163.47348031 48.9921875 177.03125 C46.42857403 185.35781128 41.66745841 192.7773329 36.8671875 199.96875 C35.71388358 201.71941992 34.56158757 203.47075413 33.41015625 205.22265625 C32.80478027 206.14191895 32.1994043 207.06118164 31.57568359 208.00830078 C28.23517571 213.1141247 24.96077538 218.26212483 21.6796875 223.40625 C15.82162537 232.57566322 9.93245585 241.72329612 3.98046875 250.83203125 C1.55766426 254.54335741 -0.83359752 258.27360043 -3.21484375 262.01171875 C-3.87734131 263.04474121 -4.53983887 264.07776367 -5.22241211 265.14208984 C-6.49974748 267.13404386 -7.77053738 269.13021671 -9.03344727 271.13134766 C-14.50866206 279.63532474 -19.85131597 286.00494501 -29.3203125 289.90625 C-30.2278125 290.31875 -31.1353125 290.73125 -32.0703125 291.15625 C-41.13876517 293.24896985 -48.39674978 292.35905266 -56.51953125 287.765625 C-66.81234943 280.932457 -72.34265575 270.92173005 -78.64746094 260.60546875 C-81.53736465 255.94248342 -84.55845102 251.3660205 -87.5703125 246.78125 C-93.67758881 237.45703726 -99.70714344 228.08540292 -105.69042969 218.68115234 C-109.60056916 212.54726099 -113.59013084 206.47535707 -117.65917969 200.44555664 C-126.38712234 187.10350321 -127.75315967 167.2250039 -124.59375 151.80078125 C-121.73972548 141.1619988 -116.58612374 131.9498307 -110.5078125 122.84375 C-109.35711607 121.09698412 -108.20742468 119.34955587 -107.05859375 117.6015625 C-106.45354004 116.6827832 -105.84848633 115.76400391 -105.22509766 114.81738281 C-101.84038319 109.64443545 -98.52070965 104.42994598 -95.1953125 99.21875 C-90.33256604 91.60741992 -85.45447139 84.00695107 -80.53808594 76.43017578 C-76.47994496 70.16874361 -72.46304593 63.88116201 -68.4453125 57.59375 C-61.4571334 46.66273712 -54.4223658 35.76361486 -47.3203125 24.90625 C-46.9078125 24.27315918 -46.4953125 23.64006836 -46.0703125 22.98779297 C-43.860206 19.59890079 -41.61690139 16.23713801 -39.3203125 12.90625 C-38.92199219 12.30941406 -38.52367187 11.71257812 -38.11328125 11.09765625 C-29.52804031 -0.58191181 -13.41218722 -4.41813226 0 0 Z " fill="#EBEAEA" transform="translate(267.3203125,75.09375)"/>
<path d="M0 0 C2.46248469 1.23124235 2.70030393 2.0722945 3.9375 4.5 C6.35944862 8.97990495 9.03145381 13.23879286 11.8125 17.5 C16.49883236 24.68295629 21.13607727 31.89529691 25.75 39.125 C31.15646011 47.58276494 36.58762293 56.02384131 42.0625 64.4375 C42.65708008 65.35354004 43.25166016 66.26958008 43.86425781 67.21337891 C54.65573214 84.56263906 54.65573214 84.56263906 71 96 C71 96.66 71 97.32 71 98 C72.65 98.33 74.3 98.66 76 99 C74.30552825 103.98432334 71.51244576 108.16303859 68.6875 112.5625 C68.15479492 113.39894043 67.62208984 114.23538086 67.07324219 115.09716797 C62.80054039 121.79090097 58.47388347 128.449614 54.13500977 135.10058594 C49.75905507 141.81300283 45.43648595 148.55853129 41.125 155.3125 C35.35218025 164.35271917 29.52174159 173.35278389 23.64941406 182.32861328 C19.01512561 189.42114241 14.43504712 196.5470457 9.875 203.6875 C4.87535898 211.51381677 -0.13479929 219.33280409 -5.1875 227.125 C-5.70393066 227.92381592 -6.22036133 228.72263184 -6.75244141 229.5456543 C-7.24019043 230.2962915 -7.72793945 231.04692871 -8.23046875 231.8203125 C-8.64707764 232.46242676 -9.06368652 233.10454102 -9.49291992 233.76611328 C-9.99025635 234.5032959 -10.48759277 235.24047852 -11 236 C-11.26447182 236.56808349 -11.52894363 237.13616697 -11.80142975 237.72146511 C-12.99853828 239.93295339 -14.06601505 241.37632815 -16 243 C-20.1537028 244.04484704 -24.23872355 243.88425039 -28.5012207 243.79467773 C-30.40426216 243.79621101 -30.40426216 243.79621101 -32.3457489 243.79777527 C-35.81711413 243.79978101 -39.28678077 243.7586767 -42.7577517 243.70975757 C-46.38782617 243.66594977 -50.01794112 243.66188273 -53.64823914 243.65357971 C-60.51914524 243.63183668 -67.3892702 243.57441359 -74.25983256 243.50413328 C-82.08314735 243.42584709 -89.90649978 243.38739281 -97.73010886 243.35226524 C-113.82060175 243.27912836 -129.91001886 243.15077626 -146 243 C-146 228.81 -146 214.62 -146 200 C-142.04 198.35 -138.08 196.7 -134 195 C-114.72563865 184.14432522 -103.11055003 167.94378949 -91.7734375 149.46484375 C-88.57060362 144.26759274 -85.22163265 139.1678839 -81.875 134.0625 C-76.53396157 125.90596744 -71.24446174 117.71896115 -66 109.5 C-60.8759017 101.47166742 -55.71444728 93.46994904 -50.5 85.5 C-44.51211417 76.34717927 -38.59798139 67.14912885 -32.71020508 57.93164062 C-28.88523978 51.94400302 -25.05043115 45.96322008 -21.1875 40 C-20.75638916 39.33427979 -20.32527832 38.66855957 -19.88110352 37.98266602 C-17.62265294 34.49755084 -15.35943734 31.01557053 -13.09375 27.53515625 C-10.78056113 23.97996349 -8.48111624 20.41623218 -6.19091797 16.84619141 C-5.11956417 15.18535143 -4.03150682 13.53531486 -2.94140625 11.88671875 C-2.38324219 11.01660156 -1.82507813 10.14648438 -1.25 9.25 C-0.78078125 8.53328125 -0.3115625 7.8165625 0.171875 7.078125 C1.24504683 4.38507117 0.78560222 2.74002725 0 0 Z " fill="#D42432" transform="translate(146,269)"/>
<path d="M0 0 C4.43830361 0.83218193 6.81389991 2.93466223 9.47167969 6.58227539 C11.15190111 9.15362746 12.7703339 11.7558296 14.375 14.375 C15.61719426 16.36539232 16.86072808 18.35494915 18.10546875 20.34375 C18.74532715 21.36984375 19.38518555 22.3959375 20.04443359 23.453125 C23.19778262 28.46698932 26.44123337 33.42098173 29.6875 38.375 C30.94289764 40.29414701 32.19810945 42.2134156 33.453125 44.1328125 C34.05189453 45.04836914 34.65066406 45.96392578 35.26757812 46.90722656 C38.28551091 51.53279547 41.28040472 56.17327614 44.26782227 60.81860352 C46.27976069 63.93930953 48.31218786 67.03932171 50.41796875 70.09765625 C51.14628906 71.15855469 51.87460937 72.21945313 52.625 73.3125 C53.25664062 74.21484375 53.88828125 75.1171875 54.5390625 76.046875 C56.04506417 78.64009712 56.52314896 80.62914362 57 83.5625 C57.95394836 85.58487052 58.94535351 87.5907696 60 89.5625 C59.67 89.8925 59.34 90.2225 59 90.5625 C58.72578903 92.26793103 58.50861004 93.98261036 58.31640625 95.69921875 C58.19330078 96.75173828 58.07019531 97.80425781 57.94335938 98.88867188 C57.69168753 101.10983725 57.44165743 103.33118933 57.19335938 105.55273438 C56.57935067 110.77976189 55.99062649 115.64194706 54 120.5625 C49.94549475 115.82062163 46.74835667 110.58153573 43.4375 105.3125 C42.18408942 103.33041563 40.9301776 101.34864815 39.67578125 99.3671875 C39.05525879 98.38588867 38.43473633 97.40458984 37.79541016 96.39355469 C33.9778139 90.37385845 30.10135754 84.39278465 26.20654297 78.42285156 C25.04393592 76.63024417 23.89733647 74.82831846 22.75390625 73.0234375 C18.46463442 66.35844421 14.57752773 60.64622433 7 57.5625 C3.80315084 57.09412557 3.80315084 57.09412557 0.3125 57.0625 C-0.84636719 57.0109375 -2.00523437 56.959375 -3.19921875 56.90625 C-9.21427375 57.94482065 -13.71312015 60.87930763 -17.67504883 65.52783203 C-19.24061843 67.75921268 -20.66317842 70.03586694 -22.0625 72.375 C-23.17561492 74.15895796 -24.28890457 75.94280691 -25.40234375 77.7265625 C-25.98226074 78.67047852 -26.56217773 79.61439453 -27.15966797 80.58691406 C-29.74567832 84.76816827 -32.4036999 88.90183209 -35.0612793 93.0378418 C-37.10751009 96.22277715 -39.14402036 99.41377427 -41.1796875 102.60546875 C-43.53569977 106.29122235 -45.91077163 109.96230621 -48.3203125 113.61328125 C-48.82030762 114.37358643 -49.32030273 115.1338916 -49.83544922 115.91723633 C-50.73503406 117.28151868 -51.63974849 118.64244283 -52.55126953 119.9987793 C-57.66501406 127.76809321 -60.68622806 134.5329828 -60.5 143.9375 C-60.51546875 144.7109375 -60.5309375 145.484375 -60.546875 146.28125 C-60.46955952 157.99454476 -54.80076406 167.12324536 -48.5 176.625 C-47.44401611 178.24233032 -47.44401611 178.24233032 -46.36669922 179.89233398 C-44.9380392 182.07609664 -43.50433581 184.25656873 -42.06542969 186.43359375 C-40.14556615 189.34198277 -38.24547215 192.26217031 -36.3515625 195.1875 C-35.27697763 196.83394459 -34.20151663 198.47981783 -33.125 200.125 C-32.63193359 200.88627197 -32.13886719 201.64754395 -31.63085938 202.43188477 C-30.47353535 204.17836575 -29.24430084 205.87688138 -28 207.5625 C-27.34 207.5625 -26.68 207.5625 -26 207.5625 C-24.79084363 206.0824831 -24.79084363 206.0824831 -23.63671875 204.109375 C-23.16838623 203.35462891 -22.70005371 202.59988281 -22.2175293 201.82226562 C-21.71261963 200.99404297 -21.20770996 200.16582031 -20.6875 199.3125 C-19.60545306 197.56691027 -18.52207464 195.82214533 -17.4375 194.078125 C-16.87417969 193.16998047 -16.31085938 192.26183594 -15.73046875 191.32617188 C-12.93912912 186.86821976 -10.0646328 182.46538503 -7.1875 178.0625 C-2.74791271 171.25618237 1.66470624 164.4359112 6 157.5625 C5.5875 157.96082031 5.175 158.35914063 4.75 158.76953125 C-1.71342081 164.69914275 -7.69862985 167.20327 -16.54296875 166.91796875 C-23.8759907 165.8570705 -30.0636242 161.04095169 -34.8125 155.5625 C-37.43584608 151.52984826 -38.0703587 147.90549888 -37.8671875 143.125 C-35.90678041 135.07143573 -30.60964054 128.32888994 -26 121.5625 C-25.1408835 120.2671777 -24.28397279 118.97038864 -23.4296875 117.671875 C-21.82058803 115.23332957 -20.19574795 112.80650618 -18.55859375 110.38671875 C-16.68065356 107.59959953 -14.84826779 104.78675308 -13.03515625 101.95703125 C-12.53951172 101.18367432 -12.04386719 100.41031738 -11.53320312 99.61352539 C-10.57438357 98.11338025 -9.6185073 96.61134859 -8.66601562 95.10717773 C-8.01342773 94.08732788 -8.01342773 94.08732788 -7.34765625 93.046875 C-6.96617432 92.44584961 -6.58469238 91.84482422 -6.19165039 91.22558594 C-4.9212834 89.45264187 -3.65361055 87.98673441 -2 86.5625 C0.3125 86.4375 0.3125 86.4375 3 87.5625 C8.11237972 92.45091233 11.73922818 98.59616827 15.4375 104.5625 C19.26770669 110.70876687 23.13098131 116.80496407 27.24609375 122.765625 C27.93582275 123.77753906 28.62555176 124.78945312 29.33618164 125.83203125 C30.66481158 127.77430335 32.01092539 129.7047656 33.37670898 131.62109375 C36.78205778 136.64685011 39.13078064 140.77616852 38.66455078 146.96801758 C37.26358962 152.43753055 34.09855334 156.91105018 31 161.5625 C30.32066406 162.62227051 29.64132812 163.68204102 28.94140625 164.77392578 C26.81861719 168.07423029 24.66414189 171.351687 22.5 174.625 C17.26902691 182.56503697 12.0861173 190.5288927 7 198.5625 C1.69081845 206.91140155 -3.64261159 215.24444958 -9 223.5625 C-9.60199219 224.49900391 -10.20398438 225.43550781 -10.82421875 226.40039062 C-12.43552785 228.89847282 -14.05883337 231.3882103 -15.6875 233.875 C-16.15567139 234.60275635 -16.62384277 235.3305127 -17.10620117 236.08032227 C-19.64633233 239.92538173 -21.99492249 243.10899582 -26 245.5625 C-28.58984375 246.01953125 -28.58984375 246.01953125 -31 245.5625 C-39.12116255 239.74669972 -44.24913283 228.47333617 -49.40576172 220.11962891 C-51.96147167 216.02031712 -54.60537708 211.97979718 -57.25 207.9375 C-62.34547462 200.12521805 -67.40368003 192.2896563 -72.4375 184.4375 C-73.43088379 182.8913501 -73.43088379 182.8913501 -74.44433594 181.31396484 C-84.40659537 165.75456168 -91.98697549 152.96788849 -88.4921875 133.7734375 C-83.55634545 118.29502021 -71.77909164 104.0709645 -62.96484375 90.6328125 C-58.88898257 84.40936763 -54.87727713 78.14593987 -50.875 71.875 C-44.46394124 61.83441233 -37.9943425 51.83383008 -31.49072266 41.85302734 C-29.57027194 38.90221362 -27.65604217 35.94741163 -25.74389648 32.99121094 C-24.84189892 31.59679059 -23.9390864 30.20289702 -23.03540039 28.80957031 C-20.68675139 25.18566989 -18.35608051 21.55152402 -16.046875 17.90234375 C-15.55783691 17.1343042 -15.06879883 16.36626465 -14.56494141 15.57495117 C-13.63486807 14.11361011 -12.70970039 12.64912992 -11.79052734 11.1809082 C-5.28443103 0.99083082 -5.28443103 0.99083082 0 0 Z " fill="#D12936" transform="translate(255,97.4375)"/>
<path d="M0 0 C0.33 0 0.66 0 1 0 C1 41.58 1 83.16 1 126 C-13.61896664 123.56350556 -25.44514589 114.18372482 -34.27734375 102.55859375 C-39.90645887 94.19788988 -42.18506373 87.18524982 -42.25 77.25 C-42.270625 76.4765625 -42.29125 75.703125 -42.3125 74.90625 C-42.37352171 65.81401519 -38.98566269 59.46015494 -34 52.0625 C-33.00760306 50.56003415 -32.01542145 49.05742605 -31.0234375 47.5546875 C-30.5190918 46.79639648 -30.01474609 46.03810547 -29.49511719 45.25683594 C-27.17426079 41.75357066 -24.90130671 38.21980076 -22.625 34.6875 C-18.44514899 28.22420482 -14.25548154 21.76728276 -10.0625 15.3125 C-9.51867676 14.47485107 -8.97485352 13.63720215 -8.41455078 12.77416992 C-7.40045891 11.21384626 -6.38492793 9.65445657 -5.36767578 8.09619141 C-4.49750234 6.76250537 -3.63088463 5.42648755 -2.76904297 4.08740234 C-1.87198045 2.70770969 -0.94036645 1.35054949 0 0 Z " fill="#C60E20" transform="translate(511,329)"/>
<path d="M0 0 C2.125 0.375 2.125 0.375 4 1 C3.23972784 23.19994715 -4.68694034 40.49836458 -16.63623047 58.859375 C-18.81594531 62.28073908 -20.79229249 65.81392647 -22.71875 69.3828125 C-24.31955814 71.40334473 -25.49319715 71.64947248 -28 72 C-31.9192443 68.03409803 -34.50469078 64.26594398 -35.0625 58.625 C-34.5760504 49.21635288 -28.12803278 41.5273265 -23 34 C-22.1408835 32.7046777 -21.28397279 31.40788864 -20.4296875 30.109375 C-18.82151742 27.67240349 -17.19812638 25.24674323 -15.5625 22.828125 C-12.14839819 17.76048485 -8.86234502 12.60924561 -5.578125 7.45678711 C-5.13984375 6.77366455 -4.7015625 6.09054199 -4.25 5.38671875 C-3.66992188 4.47732544 -3.66992188 4.47732544 -3.078125 3.54956055 C-2 2 -2 2 0 0 Z " fill="#CB212D" transform="translate(252,185)"/>
<path d="M0 0 C1.67817274 4.07556238 0.23370317 7.5871661 -1.0625 11.5625 C-1.40812988 12.63540283 -1.40812988 12.63540283 -1.76074219 13.72998047 C-4.29113074 21.28548294 -7.86771943 27.8897967 -12.34765625 34.46875 C-18.42634207 43.41860449 -18.42634207 43.41860449 -20 54 C-22.86724533 51.13275467 -22.33435677 49.06585824 -22.375 45.0625 C-22.22188015 29.4867065 -13.37207106 17.55810659 -5 5 C-4.01 5 -3.02 5 -2 5 C-1.34 3.35 -0.68 1.7 0 0 Z " fill="#CC303B" transform="translate(188,197)"/>
<path d="M0 0 C3.48763093 1.74381547 6.03368051 3.52806709 9 6 C7.02 6.99 7.02 6.99 5 8 C2.525 4.04 2.525 4.04 0 0 Z " fill="#DACFD0" transform="translate(222,387)"/>
<path d="M0 0 C0 3.99904969 -1.72586967 5.80200422 -4 9 C-4.33 8.34 -4.66 7.68 -5 7 C-5.66 6.67 -6.32 6.34 -7 6 C-4.69 4.02 -2.38 2.04 0 0 Z " fill="#E5BDC0" transform="translate(261,254)"/>
</svg>
