<?xml version="1.0" encoding="UTF-8"?>
<svg version="1.1" xmlns="http://www.w3.org/2000/svg" width="512" height="512">
<path d="M0 0 C168.96 0 337.92 0 512 0 C512 168.96 512 337.92 512 512 C343.04 512 174.08 512 0 512 C0 343.04 0 174.08 0 0 Z " fill="#FF5900" transform="translate(0,0)"/>
<path d="M0 0 C0 31.35 0 62.7 0 95 C10.56 95 21.12 95 32 95 C43.28097725 99.10217355 50.86637084 102.17560362 56 113 C57.89245333 117.73904786 58.26867311 121.98004019 58.1953125 127.0234375 C58.19329834 127.68577393 58.19128418 128.34811035 58.18920898 129.03051758 C58.17883155 131.47874995 58.15090964 133.92688274 58.125 136.375 C58.08375 141.86125 58.0425 147.3475 58 153 C38.86 153 19.72 153 0 153 C0.06194692 166.90156434 0.06194692 166.90156434 0.16015625 180.80273438 C0.20830184 186.48169138 0.25241711 192.16045885 0.27099609 197.83959961 C0.28626375 202.42398601 0.32088565 207.00787281 0.36830902 211.59203529 C0.38301943 213.33125755 0.391035 215.07055118 0.39188385 216.80983543 C0.40687217 232.13724155 2.26624045 245.44745049 13 257.1875 C19.9321936 263.92163092 27.31481964 267.14947187 37 267.375 C42.91040733 267.28909292 47.99565235 266.09169957 54 265 C54 282.82 54 300.64 54 319 C29.63445304 331.18277348 6.63030028 336.26809505 -20 329 C-44.11122212 320.86678871 -62.94885387 304.44733035 -74.55859375 281.984375 C-75.79834166 279.35037054 -76.93138142 276.70744865 -78 274 C-78.29519531 273.26652344 -78.59039062 272.53304688 -78.89453125 271.77734375 C-83.95878471 258.03151293 -83.26761798 243.47876754 -83.1953125 229.07421875 C-83.19157559 226.87319569 -83.18873182 224.67217096 -83.18673706 222.47114563 C-83.179154 216.71895639 -83.15955208 210.9668705 -83.1373291 205.21472168 C-83.11675505 199.32870887 -83.10771078 193.44267914 -83.09765625 187.55664062 C-83.0763005 176.03771538 -83.04222995 164.51886633 -83 153 C-83.97759277 153.02094727 -84.95518555 153.04189453 -85.96240234 153.06347656 C-89.6337993 153.1365772 -93.30513372 153.18205042 -96.97705078 153.21972656 C-98.55789045 153.23968422 -100.13865783 153.2668606 -101.71923828 153.30175781 C-114.65197158 153.57988111 -124.21868473 152.50310384 -134.01953125 143.22265625 C-140.25662318 136.22284301 -142.1655776 129.57872572 -142.09765625 120.390625 C-142.09664917 119.74593262 -142.09564209 119.10124023 -142.09460449 118.43701172 C-142.08939402 116.04132291 -142.07543281 113.64565957 -142.0625 111.25 C-142.041875 105.8875 -142.02125 100.525 -142 95 C-122.86 95 -103.72 95 -84 95 C-84.03935148 83.31870145 -84.03935148 83.31870145 -84.09008789 71.63745117 C-84.15888399 49.14187989 -84.15888399 49.14187989 -80.875 38.9375 C-80.65690674 38.25558594 -80.43881348 37.57367188 -80.21411133 36.87109375 C-78.14056412 30.78234616 -75.20085005 25.88922464 -71 21 C-70.14148438 19.95972656 -70.14148438 19.95972656 -69.265625 18.8984375 C-51.19762116 -1.09990863 -25.0478463 0 0 0 Z " fill="#FFFEFD" transform="translate(288,90)"/>
</svg>
