<?xml version="1.0" encoding="UTF-8"?>
<svg version="1.1" xmlns="http://www.w3.org/2000/svg" width="512" height="512">
<path d="M0 0 C168.96 0 337.92 0 512 0 C512 168.96 512 337.92 512 512 C343.04 512 174.08 512 0 512 C0 343.04 0 174.08 0 0 Z " fill="#E93845" transform="translate(0,0)"/>
<path d="M0 0 C2 3 2 3 1.6875 5.125 C1 7 1 7 0 8 C-0.12197808 9.38050858 -0.17768899 10.76697647 -0.20532227 12.15258789 C-0.22526749 13.03342545 -0.24521271 13.914263 -0.26576233 14.8217926 C-0.28247482 15.77907761 -0.29918732 16.73636261 -0.31640625 17.72265625 C-0.33718735 18.69786728 -0.35796844 19.67307831 -0.37937927 20.67784119 C-0.44498412 23.8059863 -0.50381028 26.93421822 -0.5625 30.0625 C-0.60567483 32.1777435 -0.64928877 34.29297809 -0.69335938 36.40820312 C-0.80150638 41.60538093 -0.90049824 46.80262059 -1 52 C7.25 52 15.5 52 24 52 C24 41.11 24 30.22 24 19 C30.435 18.505 30.435 18.505 37 18 C37 29.22 37 40.44 37 52 C45.25 52 53.5 52 62 52 C62 35.17 62 18.34 62 1 C66.29 0.67 70.58 0.34 75 0 C75.99 1.32 76.98 2.64 78 4 C77.67657623 4.5692218 77.35315247 5.1384436 77.01992798 5.72491455 C75.9300273 8.15608345 75.72784848 9.75525285 75.68115234 12.40136719 C75.66128265 13.2619574 75.64141296 14.12254761 75.62094116 15.00921631 C75.60938995 15.92914368 75.59783875 16.84907104 75.5859375 17.796875 C75.56657135 18.74564514 75.5472052 19.69441528 75.5272522 20.67193604 C75.46754341 23.69786633 75.42110567 26.72383484 75.375 29.75 C75.33681223 31.80340187 75.29776003 33.85678786 75.2578125 35.91015625 C75.16022418 40.94002084 75.08058628 45.96971927 75 51 C82.92 51 90.84 51 99 51 C99 34.5 99 18 99 1 C103.62 0.67 108.24 0.34 113 0 C115 3 115 3 114.63110352 5.38354492 C114.42283936 6.2469751 114.2145752 7.11040527 114 8 C113.92350219 9.61961498 113.89188319 11.24189445 113.90234375 12.86328125 C113.90556641 13.74951172 113.90878906 14.63574219 113.91210938 15.54882812 C113.92048828 16.46083984 113.92886719 17.37285156 113.9375 18.3125 C113.94201172 19.24384766 113.94652344 20.17519531 113.95117188 21.13476562 C113.96290766 23.42324373 113.97932637 25.71158808 114 28 C114.67639526 27.29315063 114.67639526 27.29315063 115.36645508 26.57202148 C121.73352515 20.03941941 127.59590407 15.82166438 137 15.375 C144.03891482 15.71880304 149.91447934 17.82485841 154.8828125 22.9375 C159.96577102 29.42011376 161.32988394 34.76677982 161.25 42.875 C161.25773438 43.65230469 161.26546875 44.42960937 161.2734375 45.23046875 C161.25279466 51.37171457 160.82752605 56.66398959 156.91340637 61.66716003 C153.27148021 64.58334467 150.55768233 64.67766586 146.08862305 64.56762695 C144.91709938 64.56872215 144.91709938 64.56872215 143.72190857 64.56983948 C141.15112844 64.56636758 138.58218065 64.52752813 136.01171875 64.48828125 C134.22525523 64.47895164 132.43877888 64.47183622 130.65229797 64.46684265 C125.95840922 64.44778438 121.26529843 64.39869395 116.57171631 64.34332275 C111.77903771 64.29210484 106.98623297 64.2693232 102.19335938 64.24414062 C92.79523177 64.19057386 83.39768067 64.10527541 74 64 C73.67 63.34 73.34 62.68 73 62 C72.01 62.99 72.01 62.99 71 64 C68.34708243 64.17510386 65.80013826 64.23155483 63.1484375 64.1953125 C62.37440582 64.1924826 61.60037415 64.18965271 60.80288696 64.18673706 C58.32676843 64.17552754 55.8510095 64.15042203 53.375 64.125 C51.69792188 64.11497118 50.02083811 64.10584516 48.34375 64.09765625 C44.22902777 64.07558574 40.11457489 64.04105102 36 64 C35.67 63.34 35.34 62.68 35 62 C34.34 62.66 33.68 63.32 33 64 C30.97518921 64.24050903 30.97518921 64.24050903 28.45849609 64.22705078 C27.50450928 64.22680908 26.55052246 64.22656738 25.56762695 64.22631836 C24.56304443 64.21608643 23.55846191 64.20585449 22.5234375 64.1953125 C21.60151611 64.19329834 20.67959473 64.19128418 19.72973633 64.18920898 C16.27810711 64.17872632 12.82654868 64.15080384 9.375 64.125 C1.66125 64.08375 -6.0525 64.0425 -14 64 C-14 43.21 -14 22.42 -14 1 C-4.51898734 -0.35443038 -4.51898734 -0.35443038 0 0 Z " fill="#FEF9F9" transform="translate(255,185)"/>
<path d="M0 0 C4.7334375 0.061875 4.7334375 0.061875 9.5625 0.125 C9.5625 11.345 9.5625 22.565 9.5625 34.125 C17.4825 34.125 25.4025 34.125 33.5625 34.125 C33.5625 23.895 33.5625 13.665 33.5625 3.125 C39.2507672 1.22891093 41.87629141 0.92892384 47.5625 1.125 C47.66140033 7.03315343 47.73398371 12.94082472 47.78222656 18.84960938 C47.80233805 20.85946038 47.82963115 22.86925291 47.86425781 24.87890625 C47.91279634 27.76837596 47.93547322 30.65707191 47.953125 33.546875 C47.97377014 34.44492859 47.99441528 35.34298218 48.01568604 36.26824951 C48.0170011 39.92701443 47.9274013 42.43300012 46.20507812 45.69921875 C41.91842576 48.01204671 37.67865501 47.61374625 32.890625 47.515625 C31.85307068 47.50996521 30.81551636 47.50430542 29.746521 47.49847412 C26.43471008 47.47609491 23.12398356 47.42589419 19.8125 47.375 C17.56642188 47.35493706 15.32032679 47.33668594 13.07421875 47.3203125 C7.56955929 47.27962766 2.06724243 47.20133695 -3.4375 47.125 C-3.4375 35.905 -3.4375 24.685 -3.4375 13.125 C-10.68537085 13.45892384 -10.68537085 13.45892384 -13.41430664 15.36572266 C-14.80621742 17.75897226 -14.80640698 19.51081834 -14.80859375 22.2734375 C-14.82599609 23.27890625 -14.84339844 24.284375 -14.86132812 25.3203125 C-14.87040906 27.43227857 -14.8756462 29.54426482 -14.87695312 31.65625 C-15.02004594 39.37339336 -15.02004594 39.37339336 -17.16015625 43.2265625 C-21.26583363 46.64913404 -24.97194439 47.37540158 -30.23754883 47.35205078 C-31.37835403 47.35189972 -32.51915924 47.35174866 -33.6945343 47.35159302 C-34.91553329 47.34127045 -36.13653229 47.33094788 -37.39453125 47.3203125 C-38.65263107 47.3174826 -39.9107309 47.31465271 -41.20695496 47.31173706 C-44.53937382 47.30245121 -47.87151547 47.28450476 -51.20385742 47.2623291 C-54.60918797 47.24181017 -58.01454723 47.23272246 -61.41992188 47.22265625 C-68.09253405 47.20061637 -74.76497908 47.16609668 -81.4375 47.125 C-81.4375 43.165 -81.4375 39.205 -81.4375 35.125 C-63.9475 34.795 -46.4575 34.465 -28.4375 34.125 C-28.1075 27.855 -27.7775 21.585 -27.4375 15.125 C-24.02734982 7.16798291 -24.02734982 7.16798291 -21.1875 4.8125 C-20.37539062 4.10673828 -20.37539062 4.10673828 -19.546875 3.38671875 C-13.35254932 -0.31840568 -6.99479423 -0.12990578 0 0 Z " fill="#FDF6F6" transform="translate(187.4375,201.875)"/>
<path d="M0 0 C2 3 2 3 1.6875 5.25 C1.3471875 6.61125 1.3471875 6.61125 1 8 C0.65596692 10.33177975 0.32050798 12.66487041 0 15 C0.61746094 14.95359375 1.23492187 14.9071875 1.87109375 14.859375 C9.90428663 14.5170167 15.39365123 16.46788278 21.9375 21.0625 C27.13827547 25.94807696 27.06919346 31.22936617 27.3125 38 C27.25466862 43.19839837 26.63764482 46.0751727 23 50 C18.56274524 54.23556136 14.67428335 57.24762648 8.41015625 57.265625 C7.10981445 57.26949219 7.10981445 57.26949219 5.78320312 57.2734375 C4.43645508 57.26183594 4.43645508 57.26183594 3.0625 57.25 C1.72155273 57.26160156 1.72155273 57.26160156 0.35351562 57.2734375 C-0.94875977 57.26957031 -0.94875977 57.26957031 -2.27734375 57.265625 C-3.06359131 57.26336914 -3.84983887 57.26111328 -4.65991211 57.25878906 C-7 57 -7 57 -12 55 C-12 37.51 -12 20.02 -12 2 C-3.33333333 -0.47619048 -3.33333333 -0.47619048 0 0 Z " fill="#FDF6F6" transform="translate(223,258)"/>
<path d="M0 0 C3.96 0 7.92 0 12 0 C12.06058594 1.85367187 12.12117188 3.70734375 12.18359375 5.6171875 C12.26798721 8.03646679 12.35263581 10.45573718 12.4375 12.875 C12.47681641 14.09832031 12.51613281 15.32164062 12.55664062 16.58203125 C12.61948242 18.33193359 12.61948242 18.33193359 12.68359375 20.1171875 C12.72025146 21.19597168 12.75690918 22.27475586 12.79467773 23.38623047 C12.83376643 25.98069536 12.83376643 25.98069536 14 28 C17.3 28.33 20.6 28.66 24 29 C24 19.43 24 9.86 24 0 C27.96 0 31.92 0 36 0 C38 3 38 3 37.63818359 5.19384766 C37.42758301 6.11987793 37.21698242 7.0459082 37 8 C36.88654993 10.63955821 36.81591644 13.25834308 36.7890625 15.8984375 C36.76099522 17.44532311 36.73233076 18.99219797 36.703125 20.5390625 C36.66192639 22.95702829 36.62500226 25.37479317 36.59863281 27.79296875 C36.57086203 30.14103606 36.52500171 32.48821729 36.4765625 34.8359375 C36.47330963 35.54970551 36.47005676 36.26347351 36.46670532 36.99887085 C36.33144224 42.58412611 35.19608787 47.38811949 31.53515625 51.7421875 C27.25578545 55.03401119 24.24204923 56.12405732 18.92578125 56.1328125 C18.17619141 56.13410156 17.42660156 56.13539063 16.65429688 56.13671875 C15.88150391 56.13285156 15.10871094 56.12898438 14.3125 56.125 C13.1359082 56.13080078 13.1359082 56.13080078 11.93554688 56.13671875 C6.12667749 56.12667749 6.12667749 56.12667749 5 55 C4.92794489 53.31391034 4.91613932 51.62499341 4.9375 49.9375 C4.94652344 49.01839844 4.95554687 48.09929687 4.96484375 47.15234375 C4.98224609 46.08693359 4.98224609 46.08693359 5 45 C6.13179688 44.95101562 7.26359375 44.90203125 8.4296875 44.8515625 C9.91148339 44.77653486 11.393253 44.70098703 12.875 44.625 C13.62136719 44.5940625 14.36773437 44.563125 15.13671875 44.53125 C19.53473188 44.44356169 19.53473188 44.44356169 23 42 C22.20335937 41.96261719 21.40671875 41.92523438 20.5859375 41.88671875 C7.8651631 41.09747362 7.8651631 41.09747362 2.6875 35.5 C-0.13806869 31.31397231 -0.11852219 28.08975922 -0.09765625 23.14453125 C-0.0962413 22.48289474 -0.09482635 21.82125824 -0.09336853 21.13957214 C-0.08777996 19.03050172 -0.07522965 16.92153823 -0.0625 14.8125 C-0.05748352 13.38086091 -0.05292087 11.94922015 -0.04882812 10.51757812 C-0.0378143 7.01168412 -0.02055755 3.5058525 0 0 Z " fill="#FDF5F5" transform="translate(376,274)"/>
<path d="M0 0 C3.70113791 2.28484624 5.73584387 4.26266436 7.4375 8.375 C7.80235795 13.06527545 7.81642412 17.68503756 7.4375 22.375 C6.4375 23.375 6.4375 23.375 3.93725586 23.48852539 C2.85323486 23.48328857 1.76921387 23.47805176 0.65234375 23.47265625 C-0.51748047 23.46943359 -1.68730469 23.46621094 -2.89257812 23.46289062 C-4.12427734 23.45451172 -5.35597656 23.44613281 -6.625 23.4375 C-8.47834961 23.43073242 -8.47834961 23.43073242 -10.36914062 23.42382812 C-13.43364117 23.41199608 -16.49804721 23.39551173 -19.5625 23.375 C-16.76838832 26.78823083 -15.37922792 28.25719425 -10.93359375 28.8984375 C-9.63550781 28.84945313 -8.33742188 28.80046875 -7 28.75 C-5.69933594 28.71648437 -4.39867187 28.68296875 -3.05859375 28.6484375 C-0.38666335 28.4394597 1.89552365 28.16411225 4.4375 27.375 C5.61321451 31.04910785 5.51116746 34.54429183 5.4375 38.375 C4.4475 38.375 3.4575 38.375 2.4375 38.375 C2.4375 39.035 2.4375 39.695 2.4375 40.375 C-18.82595083 41.57078166 -18.82595083 41.57078166 -24.9296875 36.2578125 C-30.64067682 29.67241333 -32.35429622 24.26465461 -31.984375 15.46875 C-31.20130481 9.72623531 -29.248073 6.01735318 -25.125 2 C-17.73159368 -2.68850157 -8.11157687 -3.65935799 0 0 Z " fill="#FDF6F6" transform="translate(361.5625,274.625)"/>
<path d="M0 0 C20.17111611 -0.83370859 20.17111611 -0.83370859 26 4 C29.56604176 8.52152222 30.48859304 11.4173073 30.390625 17.1484375 C30.38496521 17.80582916 30.37930542 18.46322083 30.37347412 19.14053345 C30.35126275 21.21946191 30.3011042 23.29660163 30.25 25.375 C30.22991489 26.79294368 30.21166765 28.21091465 30.1953125 29.62890625 C30.15145067 33.08650877 30.08253437 36.54307951 30 40 C24.09251649 41.80901175 19.05989996 42.36590958 12.9375 42.375 C11.62942383 42.41173828 11.62942383 42.41173828 10.29492188 42.44921875 C4.68743926 42.47468801 1.39425213 41.81236486 -3 38 C-5.95082974 34.94935361 -6.43166411 32.77017309 -6.4375 28.5625 C-6.32689372 24.95096445 -6.12045316 23.22237506 -4.375 20 C0.67798848 15.7448518 4.8143822 14.62682214 11.375 14.8125 C12.62023437 14.83957031 13.86546875 14.86664063 15.1484375 14.89453125 C16.08945312 14.92933594 17.03046875 14.96414063 18 15 C18 14.34 18 13.68 18 13 C13.94691667 11.89210465 9.92888626 11.66268733 5.75 11.4375 C5.00492187 11.39431641 4.25984375 11.35113281 3.4921875 11.30664062 C1.661651 11.20103275 -0.16915176 11.10005799 -2 11 C-1.85892253 9.54119891 -1.71197585 8.08296449 -1.5625 6.625 C-1.48128906 5.81289063 -1.40007812 5.00078125 -1.31640625 4.1640625 C-1 2 -1 2 0 0 Z " fill="#FDF7F7" transform="translate(260,273)"/>
<path d="M0 0 C18.71435476 -0.57419043 18.71435476 -0.57419043 25 3 C29.3758881 7.60029262 30.12482216 10.29090424 30.09765625 16.5390625 C30.09443359 17.84101563 30.09121094 19.14296875 30.08789062 20.484375 C30.07953466 21.86458399 30.07106971 23.24479232 30.0625 24.625 C30.05748501 26.01301926 30.0529221 27.40104022 30.04882812 28.7890625 C30.03700976 32.19275132 30.02053434 35.59635439 30 39 C24.24954855 41.45058697 19.66533636 42.47644892 13.4375 42.375 C12.36338867 42.39240234 12.36338867 42.39240234 11.26757812 42.41015625 C5.49694028 42.3786514 0.73683259 41.18946607 -3.875 37.5 C-6.94192787 33.41076284 -6.69028848 27.84753147 -6 23 C-3.25299475 19.31116438 -0.0754088 17.07204773 4 15 C7.55078125 14.48828125 7.55078125 14.48828125 11.3125 14.3125 C13.19388672 14.21388672 13.19388672 14.21388672 15.11328125 14.11328125 C16.06589844 14.07589844 17.01851562 14.03851563 18 14 C14.18384532 11.52954197 10.15255752 11.56168088 5.75 11.375 C5.00492188 11.33632813 4.25984375 11.29765625 3.4921875 11.2578125 C1.6618476 11.16394892 -0.16904143 11.08090282 -2 11 C-1.85892253 9.54119891 -1.71197585 8.08296449 -1.5625 6.625 C-1.48128906 5.81289063 -1.40007812 5.00078125 -1.31640625 4.1640625 C-1 2 -1 2 0 0 Z " fill="#FDF7F7" transform="translate(110,273)"/>
<path d="M0 0 C3.00155373 -0.13615919 5.996821 -0.2346398 9 -0.3125 C9.83917969 -0.35439453 10.67835938 -0.39628906 11.54296875 -0.43945312 C17.8765192 -0.56219635 22.18018651 0.80144711 27 5 C29.4291089 7.4743437 29.9692031 8.70991307 30.34057617 12.20800781 C30.3170105 14.06184082 30.3170105 14.06184082 30.29296875 15.953125 C30.28872391 16.61334656 30.28447906 17.27356812 30.28010559 17.95379639 C30.26337435 20.05295391 30.22573551 22.15113496 30.1875 24.25 C30.17244584 25.67706942 30.15875871 27.10415396 30.14648438 28.53125 C30.11349001 32.02114817 30.06174743 35.5104787 30 39 C24.15038717 41.49938003 19.34804124 42.55052028 13 42.5 C11.81470703 42.49577026 11.81470703 42.49577026 10.60546875 42.49145508 C4.75801704 42.32841978 0.17166978 41.40756777 -4 37 C-6.84033727 32.7394941 -6.8785959 28.9989077 -6 24 C-3.64495806 19.80986044 -0.52133215 16.71119863 4 15 C6.40837755 14.71121265 8.82810468 14.50954974 11.25 14.375 C13.14492187 14.26285156 13.14492187 14.26285156 15.078125 14.1484375 C16.52445313 14.07496094 16.52445313 14.07496094 18 14 C17.34 13.67 16.68 13.34 16 13 C16 12.34 16 11.68 16 11 C10.06 11 4.12 11 -2 11 C-1 3 -1 3 0 0 Z " fill="#FDF8F8" transform="translate(172,273)"/>
<path d="M0 0 C1.17755859 -0.03867187 1.17755859 -0.03867187 2.37890625 -0.078125 C3.05824219 0.03015625 3.73757813 0.1384375 4.4375 0.25 C6.4375 3.25 6.4375 3.25 6.1953125 5.73046875 C5.609375 8.23697917 5.0234375 10.74348958 4.4375 13.25 C8.0675 13.25 11.6975 13.25 15.4375 13.25 C15.4375 17.21 15.4375 21.17 15.4375 25.25 C11.8075 25.25 8.1775 25.25 4.4375 25.25 C4.57808476 27.70873768 4.72472999 30.16685175 4.875 32.625 C4.91431641 33.32367188 4.95363281 34.02234375 4.99414062 34.7421875 C5.18030134 38.62360492 5.18030134 38.62360492 6.4375 42.25 C9.2534849 42.71898963 9.2534849 42.71898963 12.5 42.875 C13.60472656 42.94976562 14.70945312 43.02453125 15.84765625 43.1015625 C16.70230469 43.15054688 17.55695313 43.19953125 18.4375 43.25 C18.4375 46.55 18.4375 49.85 18.4375 53.25 C15.39432614 53.38558695 12.35724438 53.48437239 9.3125 53.5625 C8.4565625 53.60439453 7.600625 53.64628906 6.71875 53.68945312 C2.32919276 53.77386769 -0.62794754 53.69503851 -4.1171875 50.85546875 C-7.33163409 47.43049131 -7.6876091 46.01811095 -7.66015625 41.4609375 C-7.65532227 40.04941406 -7.65532227 40.04941406 -7.65039062 38.609375 C-7.64201172 37.62453125 -7.63363281 36.6396875 -7.625 35.625 C-7.62048828 34.63242187 -7.61597656 33.63984375 -7.61132812 32.6171875 C-7.59952145 30.1613984 -7.583054 27.70572896 -7.5625 25.25 C-8.8825 25.25 -10.2025 25.25 -11.5625 25.25 C-12.06809908 23.81445975 -12.5667749 22.3764798 -13.0625 20.9375 C-13.48015625 19.73673828 -13.48015625 19.73673828 -13.90625 18.51171875 C-14.5625 16.25 -14.5625 16.25 -14.5625 13.25 C-12.2525 13.25 -9.9425 13.25 -7.5625 13.25 C-7.5625 9.29 -7.5625 5.33 -7.5625 1.25 C-4.78580178 0.32443393 -2.88553105 0.05704509 0 0 Z " fill="#FDF5F5" transform="translate(307.5625,260.75)"/>
<path d="M0 0 C1.21236328 0.01353516 1.21236328 0.01353516 2.44921875 0.02734375 C3.37154297 0.04474609 3.37154297 0.04474609 4.3125 0.0625 C6.52724076 5.10718729 6.16322153 7.92160687 4.3125 13.0625 C7.9425 13.0625 11.5725 13.0625 15.3125 13.0625 C15.3125 17.0225 15.3125 20.9825 15.3125 25.0625 C11.6825 25.0625 8.0525 25.0625 4.3125 25.0625 C4.45271805 27.70874284 4.59939776 30.35434578 4.75 33 C4.78931641 33.75474609 4.82863281 34.50949219 4.86914062 35.28710938 C4.75288024 38.98194187 4.75288024 38.98194187 6.3125 42.0625 C8.32844582 42.29677778 10.350974 42.47586124 12.375 42.625 C13.47972656 42.70878906 14.58445312 42.79257812 15.72265625 42.87890625 C16.57730469 42.93949219 17.43195313 43.00007813 18.3125 43.0625 C18.3125 46.3625 18.3125 49.6625 18.3125 53.0625 C15.26932614 53.19808695 12.23224438 53.29687239 9.1875 53.375 C8.3315625 53.41689453 7.475625 53.45878906 6.59375 53.50195312 C2.20419276 53.58636769 -0.75294754 53.50753851 -4.2421875 50.66796875 C-7.45663409 47.24299131 -7.8126091 45.83061095 -7.78515625 41.2734375 C-7.78032227 39.86191406 -7.78032227 39.86191406 -7.77539062 38.421875 C-7.76701172 37.43703125 -7.75863281 36.4521875 -7.75 35.4375 C-7.74548828 34.44492187 -7.74097656 33.45234375 -7.73632812 32.4296875 C-7.72452145 29.9738984 -7.708054 27.51822896 -7.6875 25.0625 C-9.0075 25.0625 -10.3275 25.0625 -11.6875 25.0625 C-12.19583591 23.81586669 -12.69381145 22.56500613 -13.1875 21.3125 C-13.4659375 20.61640625 -13.744375 19.9203125 -14.03125 19.203125 C-14.6875 17.0625 -14.6875 17.0625 -14.6875 13.0625 C-12.3775 13.0625 -10.0675 13.0625 -7.6875 13.0625 C-7.6875 9.1025 -7.6875 5.1425 -7.6875 1.0625 C-4.80538698 0.10179566 -2.98899956 -0.04331883 0 0 Z " fill="#FDF5F5" transform="translate(80.6875,260.9375)"/>
<path d="M0 0 C2 3 2 3 1.63783264 5.37089539 C1.42734787 6.23849991 1.2168631 7.10610443 1 8 C0.89159886 9.68646413 0.8252402 11.37600581 0.79467773 13.06567383 C0.77473251 14.04631302 0.75478729 15.02695221 0.73423767 16.03730774 C0.70916893 17.60632088 0.70916893 17.60632088 0.68359375 19.20703125 C0.66281265 20.28756271 0.64203156 21.36809418 0.62062073 22.48136902 C0.55535964 25.92501611 0.49634925 29.36873795 0.4375 32.8125 C0.39429249 35.15039828 0.35067749 37.48828907 0.30664062 39.82617188 C0.19970224 45.55070511 0.09836884 51.27531335 0 57 C-3.96 57 -7.92 57 -12 57 C-12 38.85 -12 20.7 -12 2 C-3.33333333 -0.47619048 -3.33333333 -0.47619048 0 0 Z " fill="#FDF2F2" transform="translate(160,258)"/>
<path d="M0 0 C3.56986793 1.36718346 4.68082803 2.526745 6.8125 5.6875 C8.73256971 11.04348392 8.38722317 15.45110732 7 21 C-3.56 21 -14.12 21 -25 21 C-22.06006867 12.180206 -19.90005877 7.54550797 -13.25 1.5 C-8.74450181 -0.5794607 -4.88169016 -0.66123228 0 0 Z " fill="#E93844" transform="translate(394,216)"/>
<path d="M0 0 C8.87323944 -0.47323944 8.87323944 -0.47323944 13.125 1.3125 C15.7095085 5.01696219 15.76480688 7.97624076 15.5390625 12.42578125 C15 15 15 15 12.5625 17.6875 C9 19 9 19 0 19 C0 12.73 0 6.46 0 0 Z " fill="#E8323E" transform="translate(223,285)"/>
<path d="M0 0 C2.875 2.0625 2.875 2.0625 5 5 C5 8.54361243 4.65850044 10.86591591 2.875 13.9375 C-0.18452459 15.6712306 -2.56817525 15.42145216 -6 15 C-8.4375 13.4375 -8.4375 13.4375 -10 11 C-10.5625 7.5 -10.5625 7.5 -10 4 C-6.99746894 0.65432253 -4.50513222 -1.01365475 0 0 Z " fill="#FDF2F2" transform="translate(231,182)"/>
<path d="M0 0 C2.875 2.0625 2.875 2.0625 5 5 C5 8.54361243 4.65850044 10.86591591 2.875 13.9375 C-0.18452459 15.6712306 -2.56817525 15.42145216 -6 15 C-8.4375 13.4375 -8.4375 13.4375 -10 11 C-10.5625 7.5 -10.5625 7.5 -10 4 C-6.99746894 0.65432253 -4.50513222 -1.01365475 0 0 Z " fill="#FDF3F3" transform="translate(214,182)"/>
<path d="M0 0 C2 1 2 1 3 3 C3.51981506 6.56444611 3.63102777 9.73794446 2 13 C-1.27787564 14.63893782 -4.48182577 14.74884833 -8 14 C-10.5625 11.875 -10.5625 11.875 -12 9 C-11.93689022 5.84451076 -11.48864121 3.86230802 -9.9375 1.125 C-6.76114098 -0.71933749 -3.57123945 -0.52080575 0 0 Z " fill="#FDF5F5" transform="translate(98,236)"/>
<path d="M0 0 C2 1.0625 2 1.0625 3 3 C3.49573337 6.89504791 3.58016848 9.09493717 1.4375 12.4375 C-1.94217804 14.60396028 -4.05983987 14.56288002 -8 14 C-10.4375 12.375 -10.4375 12.375 -12 10 C-12.60024477 6.39853135 -12.45562482 4.72140596 -10.5 1.625 C-6.75900771 -0.80664499 -4.42573582 -0.49174842 0 0 Z " fill="#FDF5F5" transform="translate(81,236)"/>
<path d="M0 0 C2.4375 1.625 2.4375 1.625 4 4 C4.60024477 7.60146865 4.45562482 9.27859404 2.5 12.375 C-1.26897129 14.82483134 -3.54334931 14.5659239 -8 14 C-10.6923481 11.81246717 -10.93936827 10.41576045 -11.4375 7 C-11 4 -11 4 -9.4375 1.625 C-6.06489221 -0.62340519 -3.97487617 -0.56783945 0 0 Z " fill="#FDF5F5" transform="translate(271,253)"/>
<path d="M0 0 C0.33 0 0.66 0 1 0 C1.02690104 2.79173055 1.04679053 5.58320348 1.0625 8.375 C1.07087891 9.1690625 1.07925781 9.963125 1.08789062 10.78125 C1.11328125 16.7734375 1.11328125 16.7734375 0 19 C-17.16 19 -34.32 19 -52 19 C-52 18.34 -52 17.68 -52 17 C-34.84 16.67 -17.68 16.34 0 16 C0 10.72 0 5.44 0 0 Z " fill="#E72026" transform="translate(159,217)"/>
<path d="M0 0 C3.63 0 7.26 0 11 0 C11 2.31 11 4.62 11 7 C9.37536158 7.05395478 7.75021459 7.09277195 6.125 7.125 C5.22007812 7.14820313 4.31515625 7.17140625 3.3828125 7.1953125 C1 7 1 7 -1 5 C-0.67 3.35 -0.34 1.7 0 0 Z " fill="#E9343F" transform="translate(267,298)"/>
<path d="M0 0 C1.50433594 0.01353516 1.50433594 0.01353516 3.0390625 0.02734375 C3.80992187 0.03894531 4.58078125 0.05054688 5.375 0.0625 C5.375 2.0425 5.375 4.0225 5.375 6.0625 C1.415 6.0625 -2.545 6.0625 -6.625 6.0625 C-6.955 4.4125 -7.285 2.7625 -7.625 1.0625 C-4.98041621 -0.25979189 -2.94738699 -0.03427194 0 0 Z " fill="#E82A38" transform="translate(185.625,297.9375)"/>
<path d="M0 0 C8.58 0 17.16 0 26 0 C26 0.99 26 1.98 26 3 C22.23162678 3.42217549 18.46040953 3.80818905 14.6875 4.1875 C13.61564453 4.30802734 12.54378906 4.42855469 11.43945312 4.55273438 C10.41142578 4.65263672 9.38339844 4.75253906 8.32421875 4.85546875 C7.37635498 4.95496826 6.42849121 5.05446777 5.4519043 5.15698242 C3 5 3 5 1.16723633 3.6340332 C0 2 0 2 0 0 Z " fill="#EC6268" transform="translate(342,298)"/>
<path d="M0 0 C1.51400391 0.01740234 1.51400391 0.01740234 3.05859375 0.03515625 C4.07050781 0.04417969 5.08242187 0.05320312 6.125 0.0625 C7.29869141 0.07990234 7.29869141 0.07990234 8.49609375 0.09765625 C8.49609375 2.07765625 8.49609375 4.05765625 8.49609375 6.09765625 C4.86609375 6.09765625 1.23609375 6.09765625 -2.50390625 6.09765625 C-2.83390625 4.44765625 -3.16390625 2.79765625 -3.50390625 1.09765625 C-2.50390625 0.09765625 -2.50390625 0.09765625 0 0 Z " fill="#E82534" transform="translate(119.50390625,297.90234375)"/>
<path d="M0 0 C3.96 0 7.92 0 12 0 C12.66 1.32 13.32 2.64 14 4 C8.72 4 3.44 4 -2 4 C-1.34 2.68 -0.68 1.36 0 0 Z " fill="#E8252C" transform="translate(345,284)"/>
<path d="M0 0 C0.99 0.33 1.98 0.66 3 1 C3.08086376 3.93804996 3.1404283 6.87388075 3.1875 9.8125 C3.21263672 10.64587891 3.23777344 11.47925781 3.26367188 12.33789062 C3.27333984 13.14033203 3.28300781 13.94277344 3.29296875 14.76953125 C3.3086792 15.50792236 3.32438965 16.24631348 3.34057617 17.00708008 C3 19 3 19 0 22 C0 14.74 0 7.48 0 0 Z " fill="#E72127" transform="translate(368,193)"/>
<path d="M0 0 C2.93804996 -0.08086376 5.87388075 -0.1404283 8.8125 -0.1875 C9.64587891 -0.21263672 10.47925781 -0.23777344 11.33789062 -0.26367188 C12.54155273 -0.27817383 12.54155273 -0.27817383 13.76953125 -0.29296875 C14.87711792 -0.31653442 14.87711792 -0.31653442 16.00708008 -0.34057617 C18 0 18 0 21 3 C16.05 3 11.1 3 6 3 C6 2.67 6 2.34 6 2 C3.03 1.505 3.03 1.505 0 1 C0 0.67 0 0.34 0 0 Z " fill="#E81C29" transform="translate(170,285)"/>
<path d="M0 0 C4.29 0 8.58 0 13 0 C12.01 1.485 12.01 1.485 11 3 C8.04935852 3.2208564 5.31631769 3.28060989 2.375 3.1875 C1.57320313 3.17396484 0.77140625 3.16042969 -0.0546875 3.14648438 C-2.03674378 3.11109051 -4.01845551 3.05728234 -6 3 C-6 2.67 -6 2.34 -6 2 C-4.02 1.67 -2.04 1.34 0 1 C0 0.67 0 0.34 0 0 Z " fill="#E82031" transform="translate(387,315)"/>
<path d="M0 0 C0.33 0 0.66 0 1 0 C1.22162329 1.62324086 1.42689803 3.248721 1.625 4.875 C1.74101563 5.77992188 1.85703125 6.68484375 1.9765625 7.6171875 C1.98429687 8.40351563 1.99203125 9.18984375 2 10 C1.34 10.66 0.68 11.32 0 12 C-0.66 13.32 -1.32 14.64 -2 16 C-2 12.7 -2 9.4 -2 6 C-1.67 6 -1.34 6 -1 6 C-0.67 4.02 -0.34 2.04 0 0 Z " fill="#EA535B" transform="translate(103,298)"/>
<path d="M0 0 C0.33 0 0.66 0 1 0 C1.25028811 1.58013217 1.47440946 3.16442306 1.6875 4.75 C1.87892578 6.07257813 1.87892578 6.07257813 2.07421875 7.421875 C2 10 2 10 -1 14 C-0.67 9.38 -0.34 4.76 0 0 Z " fill="#E71226" transform="translate(417,224)"/>
<path d="M0 0 C-1.37154504 2.95409701 -2.98863724 5.44008376 -5 8 C-5.1875 5.125 -5.1875 5.125 -5 2 C-2 0 -2 0 0 0 Z " fill="#E82A33" transform="translate(258,290)"/>
</svg>
