<?xml version="1.0" encoding="UTF-8"?>
<svg version="1.1" xmlns="http://www.w3.org/2000/svg" width="316" height="200">
<path d="M0 0 C11.66831144 3.75746981 23.77508573 4.12029132 35.95141602 3.77783203 C35.95141602 5.75783203 35.95141602 7.73783203 35.95141602 9.77783203 C41.56141602 9.77783203 47.17141602 9.77783203 52.95141602 9.77783203 C55.20141602 17.65283203 55.20141602 17.65283203 53.95141602 21.77783203 C34.38723586 29.23085304 11.7793323 27.24760204 -8.04858398 21.77783203 C-8.39469727 22.61423218 -8.39469727 22.61423218 -8.74780273 23.4675293 C-22.08140576 55.53339527 -22.08140576 55.53339527 -32.04858398 66.77783203 C-32.6015918 67.42365234 -33.15459961 68.06947266 -33.72436523 68.73486328 C-41.3696798 77.08319528 -51.02179345 79.19815262 -62.04858398 79.77783203 C-71.04829304 79.98993735 -80.04813484 79.89472098 -89.04858398 79.77783203 C-89.04858398 71.85783203 -89.04858398 63.93783203 -89.04858398 55.77783203 C-83.51077148 55.59220703 -83.51077148 55.59220703 -77.86108398 55.40283203 C-73.58882724 55.21948077 -69.31894808 55.00049798 -65.04858398 54.77783203 C-64.28964844 54.7452832 -63.53071289 54.71273437 -62.7487793 54.67919922 C-58.00076541 54.44287274 -53.85608274 54.16450092 -50.00170898 51.20751953 C-41.88409851 41.76091973 -37.02044965 28.06014259 -32.04858398 16.77783203 C-44.02981338 16.39134076 -55.27205116 17.24746325 -67.06225586 19.4140625 C-69.71912516 19.90063271 -72.38320113 20.34067529 -75.04858398 20.77783203 C-75.88665014 17.84160739 -76.71920843 14.90401136 -77.54858398 11.96533203 C-77.78706055 11.13195312 -78.02553711 10.29857422 -78.27124023 9.43994141 C-78.60961914 8.2362793 -78.60961914 8.2362793 -78.95483398 7.00830078 C-79.16430664 6.26990967 -79.3737793 5.53151855 -79.58959961 4.77075195 C-80.04858398 2.77783203 -80.04858398 2.77783203 -80.04858398 -0.22216797 C-53.53497553 -8.52278095 -26.39040481 -8.76544238 0 0 Z " fill="#FEC63B" transform="translate(174.048583984375,38.22216796875)"/>
<path d="M0 0 C7.32082442 5.08296872 12.27281606 11.1580859 14 20 C15.11787632 34.55071801 11.03445984 45.30591236 1.73535156 56.52587891 C-1.39579692 60.12839523 -4.68805518 63.56415508 -8 67 C-8.76183594 67.83660156 -9.52367187 68.67320312 -10.30859375 69.53515625 C-10.99050781 70.26605469 -11.67242187 70.99695313 -12.375 71.75 C-12.96023437 72.38421875 -13.54546875 73.0184375 -14.1484375 73.671875 C-16 75 -16 75 -18.40625 75.4921875 C-27.26060561 73.81199351 -36.67206007 58.93120414 -41.77050781 51.8203125 C-48.27893989 42.18431774 -52.00555589 33.17219715 -50.375 21.5 C-48.5366012 12.79499906 -44.52131108 5.90455275 -37 1 C-25.18558499 -5.23705158 -12.0941419 -6.53340594 0 0 Z M-29.75 14.6875 C-33.63723627 18.68271506 -35.15301376 22.93743261 -35.4375 28.4375 C-35.23884657 33.28795459 -33.94103888 37.12238029 -31 41 C-26.02909195 45.05788412 -21.93933103 45.58141086 -15.5859375 45.3203125 C-10.78668465 44.72584311 -8.03598359 43.09353824 -4.75 39.625 C-1.44834811 34.67252216 -0.49248989 30.98861936 -1 25 C-2.00583119 20.80379799 -3.26250833 17.77846343 -6.25 14.625 C-14.06700192 10.0058625 -21.98009039 9.91960092 -29.75 14.6875 Z " fill="#293250" transform="translate(236,125)"/>
<path d="M0 0 C6.80816335 4.91700686 10.06940457 11.48116449 11.44921875 19.6640625 C11.95348279 27.4409346 9.41261389 33.66532729 5 40 C-1.33490535 46.48170352 -7.59270367 49.14862826 -16.55859375 49.36328125 C-19 49 -19 49 -26 46 C-26.33 53.92 -26.66 61.84 -27 70 C-32.28 70 -37.56 70 -43 70 C-43.07455095 63.20477658 -43.12879144 56.40979501 -43.16479492 49.61425781 C-43.17981541 47.30594735 -43.20023779 44.99766512 -43.22631836 42.68945312 C-43.26299885 39.35800175 -43.27979431 36.02693005 -43.29296875 32.6953125 C-43.30845261 31.67511017 -43.32393646 30.65490784 -43.33988953 29.60379028 C-43.34227446 19.28635204 -41.25691695 10.61298063 -34 3 C-24.14192691 -5.72572685 -11.37450586 -6.54131139 0 0 Z M-26 16 C-27.74221711 19.48443422 -27.58675154 23.19887045 -27 27 C-25.29748281 30.07469523 -23.18773492 32.40613254 -20 34 C-14.74720662 34.34444547 -11.17365376 34.57741751 -7 31 C-4.13084278 26.88754131 -3.5299415 23.72580155 -4.34375 18.8984375 C-5.41930532 15.7870096 -7.51429858 14.05070367 -10 12 C-10.33 11.67 -10.66 11.34 -11 11 C-17.78141063 10.00063422 -21.29901262 11.06396325 -26 16 Z " fill="#293350" transform="translate(301,125)"/>
<path d="M0 0 C2.96633325 1.65512797 4.99411056 3.59583921 7.15625 6.203125 C7.878125 7.028125 8.6 7.853125 9.34375 8.703125 C14.12758907 15.30152371 13.97380206 22.32020199 13.15625 30.203125 C10.79429734 38.33263649 5.53518673 44.22663827 -1.8203125 48.296875 C-6.63145824 50.36700942 -11.6646367 51.07342081 -16.84375 50.203125 C-19.15375 49.213125 -21.46375 48.223125 -23.84375 47.203125 C-24.17375 55.123125 -24.50375 63.043125 -24.84375 71.203125 C-29.79375 71.203125 -34.74375 71.203125 -39.84375 71.203125 C-39.94299142 63.819945 -40.01539627 56.43715756 -40.06347656 49.0534668 C-40.08353062 46.54428336 -40.11078085 44.03514631 -40.14550781 41.52612305 C-40.19429754 37.90922567 -40.21678182 34.2929489 -40.234375 30.67578125 C-40.25502014 29.56292252 -40.27566528 28.45006378 -40.29693604 27.30348206 C-40.2993657 18.77562601 -38.49712027 11.11149366 -32.5703125 4.62109375 C-22.53121364 -3.62368654 -11.75483676 -5.28223677 0 0 Z M-22.84375 16.203125 C-25.36856154 19.68976951 -25.27849022 23.00063618 -24.84375 27.203125 C-23.23054279 30.25669579 -21.81314098 32.44146066 -19.09375 34.578125 C-14.91914318 35.73773801 -10.88979896 36.34715238 -7.02734375 34.1875 C-4.34098483 32.03841286 -2.9390627 30.4890631 -1.84375 27.203125 C-1.30542473 21.49687717 -2.22617165 18.6475784 -5.84375 14.203125 C-11.64851369 10.33328254 -18.08200982 11.00849935 -22.84375 16.203125 Z " fill="#293250" transform="translate(123.84375,123.796875)"/>
<path d="M0 0 C14.52 0 29.04 0 44 0 C44 4.95 44 9.9 44 15 C39.38 15 34.76 15 30 15 C30 34.14 30 53.28 30 73 C24.72 73 19.44 73 14 73 C14 53.86 14 34.72 14 15 C9.38 15 4.76 15 0 15 C0 10.05 0 5.1 0 0 Z " fill="#283350" transform="translate(140,122)"/>
<path d="M0 0 C14.85 0 29.7 0 45 0 C45 4.95 45 9.9 45 15 C40.05 15 35.1 15 30 15 C30 34.14 30 53.28 30 73 C25.05 73 20.1 73 15 73 C15 53.86 15 34.72 15 15 C10.05 15 5.1 15 0 15 C0 10.05 0 5.1 0 0 Z " fill="#283350" transform="translate(14,122)"/>
<path d="M0 0 C15.43954871 0.7850618 30.51417692 8.5121688 41.015625 19.72265625 C47.56068815 27.23401809 47.56068815 27.23401809 49 30 C47.6520777 34.04376689 44.915447 35.66425623 41.625 38.125 C41.03460938 38.58003906 40.44421875 39.03507812 39.8359375 39.50390625 C37.24483788 41.4705742 35.10668599 42.964438 32 44 C32 44.66 32 45.32 32 46 C31.01 46 30.02 46 29 46 C27.30859375 43.8046875 27.30859375 43.8046875 25.4375 40.875 C17.97231993 30.26300132 6.24790537 26.04576715 -6.1875 23.75 C-7.79114845 23.49669712 -9.39523429 23.24612537 -11 23 C-9.54237887 19.91632949 -8.08377822 16.83312328 -6.625 13.75 C-6.2125 12.87730469 -5.8 12.00460938 -5.375 11.10546875 C-4.97539062 10.26113281 -4.57578125 9.41679688 -4.1640625 8.546875 C-3.79748535 7.77182617 -3.4309082 6.99677734 -3.05322266 6.19824219 C-2.05768996 4.12040807 -1.03691854 2.0574431 0 0 Z M4 5 C4.33 5.66 4.66 6.32 5 7 C5.99 7 6.98 7 8 7 C7.4225 7.84304687 6.845 8.68609375 6.25 9.5546875 C5.49975807 10.66129435 4.74977126 11.76807419 4 12.875 C3.2575 13.96554688 2.515 15.05609375 1.75 16.1796875 C-0.17574856 18.73004833 -0.17574856 18.73004833 0 21 C3.43978746 19.85340418 4.00738405 18.99480386 6.0625 16.125 C6.56910156 15.42632812 7.07570312 14.72765625 7.59765625 14.0078125 C8.75322511 12.35332115 9.88056594 10.67915109 11 9 C13.31 9.33 15.62 9.66 18 10 C17.18389553 7.83682429 17.18389553 7.83682429 15.07421875 7.1484375 C14.28660156 6.89320312 13.49898437 6.63796875 12.6875 6.375 C11.90761719 6.11460938 11.12773437 5.85421875 10.32421875 5.5859375 C7.75304894 4.83703172 7.75304894 4.83703172 4 5 Z M22 11 C19.96015881 12.28943899 19.96015881 12.28943899 18 14.1875 C17.319375 14.79980469 16.63875 15.41210938 15.9375 16.04296875 C12.28739072 19.46649062 12.28739072 19.46649062 11 24 C12.99983534 23.20882096 12.99983534 23.20882096 15 22 C15.33 21.01 15.66 20.02 16 19 C17.32 19.33 18.64 19.66 20 20 C19.67 22.64 19.34 25.28 19 28 C19.66 28.33 20.32 28.66 21 29 C21.33 26.69 21.66 24.38 22 22 C25.465 21.505 25.465 21.505 29 21 C29.33 19.35 29.66 17.7 30 16 C27.31158141 13.74754119 25.35358125 12.11786042 22 11 Z M35 20 C32.56328496 23.61306023 30.22697735 27.254629 28 31 C27.34 31.99 26.68 32.98 26 34 C29.24983135 32.91215032 29.24983135 32.91215032 32 31 C33.84891946 30.76636119 35.70488031 30.58696365 37.5625 30.4375 C38.57441406 30.35371094 39.58632812 30.26992187 40.62890625 30.18359375 C41.41136719 30.12300781 42.19382812 30.06242187 43 30 C43 29.34 43 28.68 43 28 C37.91696314 27.88679144 37.91696314 27.88679144 33 29 C34.32 26.36 35.64 23.72 37 21 C36.34 20.67 35.68 20.34 35 20 Z " fill="#293250" transform="translate(165,69)"/>
<path d="M0 0 C4.62 0 9.24 0 14 0 C14 23.76 14 47.52 14 72 C9.38 72 4.76 72 0 72 C0 48.24 0 24.48 0 0 Z " fill="#283350" transform="translate(64,123)"/>
<path d="M0 0 C4.29 0 8.58 0 13 0 C13 2.64 13 5.28 13 8 C13.99 8 14.98 8 16 8 C16 5.36 16 2.72 16 0 C20.62 0 25.24 0 30 0 C30.02291394 4.11177927 30.04283951 8.22339658 30.05493164 12.33520508 C30.0599708 13.73495228 30.06680216 15.1346942 30.07543945 16.53442383 C30.0875232 18.54245777 30.09269807 20.55052957 30.09765625 22.55859375 C30.10551147 24.37315063 30.10551147 24.37315063 30.11352539 26.22436523 C30 29 30 29 29 30 C26.85441173 30.08775605 24.70595579 30.10695219 22.55859375 30.09765625 C21.38353271 30.09515869 20.20847168 30.09266113 18.99780273 30.09008789 C17.49290283 30.08098389 15.98800293 30.07187988 14.4375 30.0625 C9.673125 30.041875 4.90875 30.02125 0 30 C0 20.1 0 10.2 0 0 Z " fill="#283251" transform="translate(211,17)"/>
<path d="M0 0 C2.87305972 1.40460697 4.74510999 2.74510999 7 5 C9.65537372 5.56520003 12.29144713 5.73788198 15 6 C15 7.32 15 8.64 15 10 C13.02 10 11.04 10 9 10 C9.12375 11.299375 9.12375 11.299375 9.25 12.625 C8.93746818 16.84417957 7.65717344 18.75234357 5 22 C1.9718042 24.3792967 -1.24769379 24.36275446 -5.0390625 24.25 C-9.08939304 23.7336232 -11.27573074 21.87411808 -13.8125 18.8125 C-15.37436056 15.11335657 -15.93572496 11.897626 -15 8 C-10.98638273 1.6052153 -7.62543342 -0.51697854 0 0 Z " fill="#293250" transform="translate(169,8)"/>
<path d="M0 0 C0.79719955 0.00222061 1.59439911 0.00444122 2.41575623 0.00672913 C3.31661453 0.00680466 4.21747284 0.00688019 5.14562988 0.00695801 C6.12478867 0.01211929 7.10394745 0.01728058 8.11277771 0.02259827 C9.11018478 0.02401321 10.10759186 0.02542816 11.13522339 0.02688599 C14.3348027 0.03250337 17.53431315 0.04505881 20.73387146 0.05775452 C22.89728191 0.06276728 25.06069345 0.06733057 27.22410583 0.07142639 C32.53988471 0.08247845 37.85562317 0.09923348 43.17137146 0.12025452 C43.85887146 1.93275452 43.85887146 1.93275452 44.17137146 4.12025452 C42.71646844 6.25247051 41.7801906 7.00251472 39.23631287 7.49447632 C38.50589783 7.49384689 37.77548279 7.49321747 37.02293396 7.49256897 C36.19197205 7.49879776 35.36101013 7.50502655 34.50486755 7.51144409 C33.61106384 7.50223434 32.71726013 7.4930246 31.79637146 7.48353577 C30.41506042 7.48428352 30.41506042 7.48428352 29.00584412 7.48504639 C27.05904482 7.48270609 25.11224249 7.47298015 23.16551208 7.45643616 C20.18281546 7.43284503 17.20101266 7.43587537 14.21824646 7.44252014 C12.32761612 7.43694333 10.43698955 7.42983343 8.54637146 7.42103577 C7.20566589 7.42240288 7.20566589 7.42240288 5.83787537 7.42379761 C5.00691345 7.41426559 4.17595154 7.40473358 3.31980896 7.39491272 C2.2241864 7.38800163 2.2241864 7.38800163 1.10643005 7.38095093 C-0.82862854 7.12025452 -0.82862854 7.12025452 -3.82862854 5.12025452 C-2.71272468 0.17839457 -2.71272468 0.17839457 0 0 Z " fill="#283350" transform="translate(10.828628540039063,105.87974548339844)"/>
<path d="M0 0 C0.85428589 -0.00630432 1.70857178 -0.01260864 2.58874512 -0.019104 C3.51272095 -0.01505554 4.43669678 -0.01100708 5.38867188 -0.00683594 C6.80895691 -0.00970612 6.80895691 -0.00970612 8.25793457 -0.01263428 C10.26196559 -0.01399667 12.26600542 -0.0102965 14.27001953 -0.00195312 C17.34492741 0.00874559 20.41925101 -0.00184666 23.49414062 -0.01464844 C25.43815234 -0.01332685 27.38216368 -0.01076448 29.32617188 -0.00683594 C30.71213562 -0.01290863 30.71213562 -0.01290863 32.12609863 -0.019104 C33.40752747 -0.00964752 33.40752747 -0.00964752 34.71484375 0 C35.4682605 0.00159119 36.22167725 0.00318237 36.9979248 0.00482178 C38.85742188 0.25878906 38.85742188 0.25878906 40.85742188 2.25878906 C40.52742188 3.90878906 40.19742188 5.55878906 39.85742188 7.25878906 C25.00742188 7.25878906 10.15742187 7.25878906 -5.14257812 7.25878906 C-5.47257812 5.60878906 -5.80257812 3.95878906 -6.14257812 2.25878906 C-3.75410985 -0.12967921 -3.25037237 0.00686466 0 0 Z " fill="#293250" transform="translate(57.142578125,73.7412109375)"/>
<path d="M0 0 C1.90419006 -0.36749268 1.90419006 -0.36749268 4.25024414 -0.35644531 C5.12777847 -0.35944641 6.00531281 -0.36244751 6.90943909 -0.36553955 C8.33291908 -0.34701935 8.33291908 -0.34701935 9.78515625 -0.328125 C10.75658066 -0.32625183 11.72800507 -0.32437866 12.72886658 -0.32244873 C14.78420438 -0.31571956 16.83952919 -0.30178802 18.89477539 -0.28125 C22.05301717 -0.25009355 25.21076042 -0.24028081 28.36914062 -0.234375 C30.3619853 -0.22520555 32.35482486 -0.21482996 34.34765625 -0.203125 C35.29866714 -0.19887512 36.24967804 -0.19462524 37.22950745 -0.19024658 C38.10388962 -0.18063904 38.97827179 -0.17103149 39.87915039 -0.16113281 C40.65255264 -0.15430481 41.4259549 -0.14747681 42.22279358 -0.14044189 C44 0 44 0 45 1 C45.125 3.5 45.125 3.5 45 6 C44 7 44 7 42.20933533 7.12025452 C41.42990067 7.11803391 40.650466 7.11581329 39.84741211 7.11352539 C38.96657455 7.11344986 38.085737 7.11337433 37.1782074 7.11329651 C36.22092239 7.10813522 35.26363739 7.10297394 34.27734375 7.09765625 C33.30213272 7.0962413 32.32692169 7.09482635 31.32215881 7.09336853 C28.19390857 7.08775133 25.06572877 7.07519593 21.9375 7.0625 C19.82226666 7.05748722 17.70703219 7.05292393 15.59179688 7.04882812 C10.39450704 7.03777631 5.19725855 7.02102146 0 7 C-0.66 5.68 -1.32 4.36 -2 3 C-1.34 2.01 -0.68 1.02 0 0 Z " fill="#293251" transform="translate(19,60)"/>
<path d="M0 0 C2.70297813 2.95638233 3 4.48855605 3 8.5 C1.79547387 12.71584145 0.52592004 14.4143253 -3 17 C-7.22122772 17.89813356 -8.66321982 17.21604766 -12.3125 14.875 C-15 12 -15 12 -16.125 9.0625 C-15.95647256 4.93357782 -14.67967089 3.10277682 -12 0 C-7.69901717 -2.7898267 -4.58664328 -1.95357029 0 0 Z " fill="#293250" transform="translate(77,99)"/>
<path d="M0 0 C1.67542976 0.28604898 3.34385343 0.61781233 5 1 C5.33 2.32 5.66 3.64 6 5 C3.75 6.125 3.75 6.125 1 7 C-1.3125 6.125 -1.3125 6.125 -3 5 C-1.125 1.125 -1.125 1.125 0 0 Z " fill="#293250" transform="translate(187,83)"/>
</svg>
