<?xml version="1.0" encoding="UTF-8"?>
<svg version="1.1" xmlns="http://www.w3.org/2000/svg" width="601" height="209">
<path d="M0 0 C3.17794927 2.50812269 3.75139161 5.01421031 4.6484375 8.890625 C5.06959839 10.65720459 5.06959839 10.65720459 5.49926758 12.45947266 C5.78825928 13.71034668 6.07725098 14.9612207 6.375 16.25 C9.1830286 28.05575469 9.1830286 28.05575469 12.8125 39.625 C19.00008855 57.37360925 18.2827621 74.73631265 10.5703125 92.0546875 C2.08388686 107.9720132 -11.09752103 118.77988174 -28.140625 124.23828125 C-44.93601785 128.71246377 -62.33084676 126.20549587 -77.5703125 118.14453125 C-92.48865836 109.26014608 -102.40744626 94.40828387 -106.8125 77.8125 C-110.38405868 60.44733538 -107.78972788 43.24396963 -98.26171875 28.2578125 C-88.40817964 14.06463182 -75.01174155 4.32473205 -57.90234375 0.89453125 C-51.79420948 -0.15241515 -45.74845192 -0.37041136 -39.5625 -0.5 C-32.07635273 -0.65740817 -24.92080321 -1.18230892 -17.54956055 -2.54956055 C-11.11528296 -3.68632605 -5.76206844 -3.04387529 0 0 Z " fill="#FEF4EF" transform="translate(123,74)"/>
<path d="M0 0 C6.63425792 5.44991289 10.51238906 11.17986272 11.67675781 19.82348633 C11.81523104 22.56978903 11.82095044 25.27462565 11.75390625 28.0234375 C11.73924316 28.98942871 11.72458008 29.95541992 11.70947266 30.95068359 C11.31908025 45.72343082 6.94342774 59.21799601 -3.41796875 70.11328125 C-14.86908989 80.39954696 -27.3063298 83.50592958 -42.39453125 83.3671875 C-51.22963554 82.77957961 -58.22005095 79.77307532 -64.37109375 73.3359375 C-71.45405594 63.57293556 -72.03794227 51.67732541 -70.38330078 40.03564453 C-67.64889838 25.26290495 -61.60550862 12.05555739 -49.64453125 2.5234375 C-36.4445471 -6.31161165 -13.54348338 -9.34441211 0 0 Z M-42.8515625 20.47265625 C-45.93912462 24.98220861 -47.38173048 29.88214315 -48.68359375 35.1484375 C-48.87566406 35.90769531 -49.06773437 36.66695312 -49.265625 37.44921875 C-49.86671726 41.33103884 -49.90797536 45.16312127 -49.93359375 49.0859375 C-49.95421875 49.87162109 -49.97484375 50.65730469 -49.99609375 51.46679688 C-50.02949475 56.45607196 -49.42252758 59.81400823 -46.68359375 64.1484375 C-43.48306393 67.04891765 -40.83241264 68.05833406 -36.49609375 68.3984375 C-29.21814077 67.92119468 -23.85499975 65.36930528 -18.68359375 60.1484375 C-11.39457035 49.19367224 -7.28894249 35.63069878 -9.109375 22.45703125 C-10.22434818 17.97438396 -12.24242089 15.1852882 -15.953125 12.515625 C-26.40754743 7.28093566 -35.97561884 12.43976604 -42.8515625 20.47265625 Z " fill="#10B899" transform="translate(284.68359375,112.8515625)"/>
<path d="M0 0 C4.89151153 4.21752455 7.60237332 8.77792757 8.21484375 15.28125 C8.5067625 22.84778397 7.13830391 29.53243633 2.5625 35.6875 C-4.76796287 43.48856049 -17.07911645 47.64425821 -27.57666016 48.11572266 C-33.7202768 48.2452282 -39.85788844 48.1683125 -46 48 C-45.21917142 57.52334508 -45.21917142 57.52334508 -40 65 C-33.09742866 68.76503891 -26.63193762 68.41989537 -19 67 C-16.51820943 66.09620549 -14.22935257 65.05449938 -11.87890625 63.85546875 C-9.51472975 62.77905575 -7.56384116 62.66918179 -5 63 C-0.96901773 69.35185085 -0.96901773 69.35185085 -1.09765625 72.04296875 C-3.28243079 76.78137587 -9.85026041 79.10998043 -14.453125 81.015625 C-26.58837004 85.22581205 -39.93663183 85.66773542 -52 81 C-58.23122546 77.82560212 -62.40123173 72.8981204 -65.04296875 66.45703125 C-69.79512323 50.99579626 -66.62827666 34.74852724 -59.31958008 20.65185547 C-52.72847538 8.69301183 -43.83932975 1.56859586 -31 -3 C-20.82242086 -5.15508848 -9.05988541 -5.77461855 0 0 Z M-36.359375 17.08984375 C-40.52909962 21.94459456 -42.94975393 27.73204205 -44 34 C-36.44952167 36.51682611 -27.19891047 34.44767267 -20.1015625 31.22265625 C-16.60304434 29.18727301 -15.04888284 27.55139692 -13 24 C-12.15924087 20.07645737 -12.34484141 17.02204741 -14.5625 13.5625 C-22.13750908 8.70672495 -30.179276 11.424753 -36.359375 17.08984375 Z " fill="#10B899" transform="translate(432,112)"/>
<path d="M0 0 C4.42442952 3.57719834 7.20427476 7.61282427 9 13 C9.09203743 14.51861755 9.13001284 16.04110426 9.125 17.5625 C9.12886719 18.74005859 9.12886719 18.74005859 9.1328125 19.94140625 C9 22 9 22 8 24 C3.05 24 -1.9 24 -7 24 C-7.61848958 21.4609375 -8.23697917 18.921875 -8.85546875 16.3828125 C-9.80660843 13.82529309 -9.80660843 13.82529309 -12.2734375 12.69921875 C-18.16494108 11.18836038 -23.93634455 11.21723414 -29.625 13.375 C-32.09308156 14.78146068 -32.09308156 14.78146068 -33 17 C-33.06950541 18.54023996 -33.08452357 20.08334988 -33.0625 21.625 C-33.05347656 22.44226563 -33.04445313 23.25953125 -33.03515625 24.1015625 C-33.02355469 24.72804687 -33.01195312 25.35453125 -33 26 C-30.64857575 26.94344313 -28.29673426 27.88471639 -25.93505859 28.80224609 C-3.84578669 37.42302206 -3.84578669 37.42302206 0.1640625 45.28125 C2.33219338 52.33274108 2.1746654 61.51264579 -0.98046875 68.26953125 C-6.22610552 77.173045 -14.45628306 81.72382893 -24.375 84.375 C-35.88280243 86.42548116 -48.38404771 86.10407436 -58.2734375 79.42578125 C-62.0151508 76.33590488 -64.09905804 72.70205899 -65 68 C-65.09021304 66.27268559 -65.13010978 64.54216105 -65.125 62.8125 C-65.12757813 61.93207031 -65.13015625 61.05164063 -65.1328125 60.14453125 C-65 58 -65 58 -64 57 C-61.64686445 56.92728259 -59.29166332 56.91629132 -56.9375 56.9375 C-55.64714844 56.94652344 -54.35679687 56.95554688 -53.02734375 56.96484375 C-52.02832031 56.97644531 -51.02929688 56.98804688 -50 57 C-49.76925781 57.68707031 -49.53851562 58.37414062 -49.30078125 59.08203125 C-48.81158203 60.43361328 -48.81158203 60.43361328 -48.3125 61.8125 C-47.99925781 62.70582031 -47.68601562 63.59914063 -47.36328125 64.51953125 C-45.6442238 67.64732919 -44.26085595 68.58203573 -41 70 C-34.4899637 70.83106846 -27.4105004 71.1290661 -22 67 C-19.79278661 64.27777015 -19.07551803 62.45310815 -18.5 59 C-19.19371336 54.83771984 -20.77408462 53.69591376 -24 51 C-26.85725554 49.62982093 -29.81332305 48.63838114 -32.8125 47.625 C-40.4009522 44.84497415 -47.00078566 42.29391524 -51.1640625 34.9453125 C-53.96120095 28.11056549 -53.35802894 21.20746466 -51.125 14.2890625 C-47.65617793 6.26741147 -41.96990932 2.72719641 -34.25 -0.8125 C-24.10085867 -4.5208401 -9.86020479 -4.87187284 0 0 Z " fill="#10B899" transform="translate(573,111)"/>
<path d="M0 0 C6.27 0 12.54 0 19 0 C18.42022363 8.58069025 16.91025382 16.61149411 15 25 C20.94 25 26.88 25 33 25 C34.48478748 27.96957496 33.44702974 29.89881672 32.625 33.0625 C32.34914063 34.14660156 32.07328125 35.23070312 31.7890625 36.34765625 C31 39 31 39 30 40 C28.58429877 40.08651611 27.164405 40.10704904 25.74609375 40.09765625 C24.89208984 40.09443359 24.03808594 40.09121094 23.15820312 40.08789062 C22.26037109 40.07951172 21.36253906 40.07113281 20.4375 40.0625 C19.53580078 40.05798828 18.63410156 40.05347656 17.70507812 40.04882812 C15.46998686 40.03700225 13.23502563 40.0205222 11 40 C10.90847656 41.14984375 10.81695312 42.2996875 10.72265625 43.484375 C10.22905213 47.93812926 9.34932685 52.27256101 8.37109375 56.640625 C8.21677887 57.33401978 8.06246399 58.02741455 7.9034729 58.74182129 C7.25653199 61.63484127 6.60516572 64.52663053 5.93579102 67.41455078 C3.78255607 76.74982515 2.48254865 85.34508953 3 95 C4.42372925 95.0143811 4.42372925 95.0143811 5.8762207 95.02905273 C8.14013672 95.05192057 10.40405273 95.07478841 12.66796875 95.09765625 C15.93613614 95.10770636 15.93613614 95.10770636 18.80078125 94.37109375 C19.52652344 94.24863281 20.25226563 94.12617188 21 94 C23.49505962 96.49505962 23.35948376 97.67328888 23.625 101.125 C23.69976562 102.03507812 23.77453125 102.94515625 23.8515625 103.8828125 C23.90054688 104.58148438 23.94953125 105.28015625 24 106 C12.233607 110.5013781 0.14577755 113.69068671 -12.15625 108.98828125 C-16.03522621 106.90908426 -17.65030213 104.0490936 -19 100 C-20.51097484 87.39010552 -16.72966323 74.88579704 -14 62.6875 C-13.51699422 60.48269205 -13.03521286 58.2776155 -12.5546875 56.07226562 C-11.38389385 50.71164079 -10.19656116 45.35492944 -9 40 C-12.3 40 -15.6 40 -19 40 C-19.97607342 36.09570632 -19.94097382 34.59615941 -19.125 30.8125 C-18.94195312 29.93207031 -18.75890625 29.05164063 -18.5703125 28.14453125 C-18 26 -18 26 -17 25 C-14.98035801 24.92755947 -12.95832876 24.91622812 -10.9375 24.9375 C-9.28041016 24.95103516 -9.28041016 24.95103516 -7.58984375 24.96484375 C-6.73519531 24.97644531 -5.88054687 24.98804687 -5 25 C-4.9175 23.845 -4.835 22.69 -4.75 21.5 C-3.96213078 14.17399217 -1.85289201 7.1127145 0 0 Z " fill="#10B899" transform="translate(330,85)"/>
<path d="M0 0 C0.79075928 0.00523682 1.58151855 0.01047363 2.39624023 0.01586914 C3.67724609 0.02070312 3.67724609 0.02070312 4.98413086 0.02563477 C5.88196289 0.03401367 6.77979492 0.04239258 7.70483398 0.05102539 C8.6065332 0.05553711 9.50823242 0.06004883 10.43725586 0.06469727 C12.67234712 0.07652315 14.90730835 0.09300319 17.14233398 0.11352539 C16.50301196 8.63595623 14.88984152 16.75588067 13.14233398 25.11352539 C19.08233398 25.11352539 25.02233398 25.11352539 31.14233398 25.11352539 C30.39233398 35.61352539 30.39233398 35.61352539 28.14233398 40.11352539 C21.87233398 40.11352539 15.60233398 40.11352539 9.14233398 40.11352539 C8.87549805 41.7905957 8.60866211 43.46766602 8.33374023 45.19555664 C6.91365416 53.71982661 5.07661364 62.15177736 3.26538086 70.59985352 C0.16580615 82.34814463 0.16580615 82.34814463 1.14233398 94.11352539 C5.6177464 96.3512316 11.85709533 95.34303229 16.64233398 94.48852539 C17.87983398 94.30290039 17.87983398 94.30290039 19.14233398 94.11352539 C21.53996584 96.51115724 21.48513984 97.44626037 21.76733398 100.73852539 C21.84209961 101.55579102 21.91686523 102.37305664 21.99389648 103.21508789 C22.04288086 103.84157227 22.09186523 104.46805664 22.14233398 105.11352539 C12.90277416 111.09995526 1.27960638 112.68259585 -9.47094727 110.60961914 C-14.36746698 109.20717896 -17.10504437 107.58653557 -19.85766602 103.11352539 C-25.43978066 91.9492961 -18.44475604 73.38645945 -15.85766602 62.17602539 C-15.37443517 60.02856695 -14.89265322 57.88078193 -14.41235352 55.73266602 C-13.24412113 50.52240606 -12.05812196 45.31645008 -10.85766602 40.11352539 C-11.56793945 40.12512695 -12.27821289 40.13672852 -13.01000977 40.14868164 C-13.92911133 40.15770508 -14.84821289 40.16672852 -15.79516602 40.17602539 C-16.71168945 40.18762695 -17.62821289 40.19922852 -18.57250977 40.21118164 C-20.85766602 40.11352539 -20.85766602 40.11352539 -21.85766602 39.11352539 C-21.80688477 36.96899414 -21.80688477 36.96899414 -21.54516602 34.30102539 C-21.4665332 33.42833008 -21.38790039 32.55563477 -21.30688477 31.65649414 C-20.85766602 29.11352539 -20.85766602 29.11352539 -18.85766602 25.11352539 C-14.89766602 25.11352539 -10.93766602 25.11352539 -6.85766602 25.11352539 C-6.75454102 23.75227539 -6.65141602 22.39102539 -6.54516602 20.98852539 C-4.49458371 0.27467229 -4.49458371 0.27467229 0 0 Z " fill="#10B899" transform="translate(180.857666015625,84.886474609375)"/>
<path d="M0 0 C3.17794927 2.50812269 3.75139161 5.01421031 4.6484375 8.890625 C5.06959839 10.65720459 5.06959839 10.65720459 5.49926758 12.45947266 C5.78825928 13.71034668 6.07725098 14.9612207 6.375 16.25 C9.1830286 28.05575469 9.1830286 28.05575469 12.8125 39.625 C19.00008855 57.37360925 18.2827621 74.73631265 10.5703125 92.0546875 C2.08388686 107.9720132 -11.09752103 118.77988174 -28.140625 124.23828125 C-44.93601785 128.71246377 -62.33084676 126.20549587 -77.5703125 118.14453125 C-92.48865836 109.26014608 -102.40744626 94.40828387 -106.8125 77.8125 C-110.38405868 60.44733538 -107.78972788 43.24396963 -98.26171875 28.2578125 C-88.40817964 14.06463182 -75.01174155 4.32473205 -57.90234375 0.89453125 C-51.79420948 -0.15241515 -45.74845192 -0.37041136 -39.5625 -0.5 C-32.07635273 -0.65740817 -24.92080321 -1.18230892 -17.54956055 -2.54956055 C-11.11528296 -3.68632605 -5.76206844 -3.04387529 0 0 Z M-69 11 C-69.99902344 11.48597656 -70.99804688 11.97195312 -72.02734375 12.47265625 C-85.42616622 19.61982133 -95.32225158 30.84130359 -100.375 45.1875 C-101.76236683 49.80612718 -102.79553155 54.18165644 -103 59 C-103.03996094 59.92554688 -103.07992187 60.85109375 -103.12109375 61.8046875 C-103.4522057 77.1137461 -99.27500053 90.44901901 -89 102 C-88.50113281 102.60328125 -88.00226563 103.2065625 -87.48828125 103.828125 C-78.66713825 113.69358468 -63.90310266 120.50254459 -50.828125 121.33984375 C-33.4727609 121.95690611 -18.74382187 116.80044887 -5.4765625 105.42578125 C-1.64329546 101.67111433 1.25802997 97.59505967 4 93 C4.38671875 92.37867188 4.7734375 91.75734375 5.171875 91.1171875 C12.31614686 78.42236596 13.89894238 62.9603603 10.9375 48.875 C6.25528894 32.61853825 -3.64970257 21.10361542 -18.19287109 12.97509766 C-33.10414126 4.9292164 -53.54506898 3.23798547 -69 11 Z " fill="#EE4426" transform="translate(123,74)"/>
<path d="M0 0 C1.21809045 2.95578315 0.98983529 4.90879083 0.00390625 7.890625 C-0.33930664 8.95410156 -0.33930664 8.95410156 -0.68945312 10.0390625 C-0.93630859 10.76867187 -1.18316406 11.49828125 -1.4375 12.25 C-1.68048828 12.99507812 -1.92347656 13.74015625 -2.17382812 14.5078125 C-2.77332981 16.34158235 -3.38544487 18.17122004 -4 20 C-11.75 19.0703125 -11.75 19.0703125 -14 18.4375 C-20.37273257 17.04346475 -25.3092318 17.88618344 -31 21 C-38.94408736 27.2813714 -40.71772833 37.01114158 -42.5078125 46.4921875 C-42.71936981 47.55994415 -42.93092712 48.62770081 -43.14889526 49.72781372 C-43.81765954 53.10832636 -44.47247419 56.4913185 -45.125 59.875 C-45.78605469 63.27979221 -46.45023296 66.68386499 -47.12252808 70.0864563 C-47.53902178 72.19633491 -47.94886967 74.3075387 -48.35134888 76.4201355 C-48.63206741 77.84774704 -48.63206741 77.84774704 -48.91845703 79.30419922 C-49.07959991 80.14087128 -49.2407428 80.97754333 -49.4067688 81.83956909 C-50 84 -50 84 -52 87 C-53.87939453 87.34057617 -53.87939453 87.34057617 -56.1328125 87.29296875 C-56.93847656 87.28330078 -57.74414062 87.27363281 -58.57421875 87.26367188 C-59.41597656 87.23853516 -60.25773437 87.21339844 -61.125 87.1875 C-62.39923828 87.16719727 -62.39923828 87.16719727 -63.69921875 87.14648438 C-65.79974837 87.11108219 -67.89995293 87.05727401 -70 87 C-70.1157761 82.22302804 -69.75532426 77.91808985 -68.80664062 73.23852539 C-68.67984421 72.60352112 -68.55304779 71.96851685 -68.42240906 71.31427002 C-68.0067334 69.24072168 -67.58158894 67.16924191 -67.15625 65.09765625 C-66.86419709 63.65046373 -66.57274307 62.20315023 -66.28186035 60.75572205 C-65.51843529 56.96519369 -64.7469359 53.17635356 -63.97369385 49.38781738 C-63.18457245 45.51409658 -62.40316687 41.63882064 -61.62109375 37.76367188 C-60.08823961 30.17424589 -58.54684468 22.58658829 -57 15 C-59.97 15 -62.94 15 -66 15 C-65.4618756 9.79813078 -64.69880437 6.09641312 -63 1 C-54.09 1 -45.18 1 -36 1 C-36 3.64 -36 6.28 -36 9 C-35.53851563 8.52949219 -35.07703125 8.05898437 -34.6015625 7.57421875 C-25.58064463 -1.0366574 -12.06093858 -4.02031286 0 0 Z " fill="#10B899" transform="translate(517,109)"/>
<path d="M0 0 C3.20152237 1.16241055 3.66402309 2.23289319 5.08911133 5.28173828 C5.52892334 6.19528076 5.96873535 7.10882324 6.421875 8.05004883 C6.87280518 9.03142822 7.32373535 10.01280762 7.78833008 11.02392578 C8.7473964 13.03393426 9.70834454 15.04304588 10.67114258 17.05126953 C11.14197266 18.04368652 11.61280273 19.03610352 12.09790039 20.05859375 C14.30077379 24.5993856 16.72175937 29.01593894 19.18994141 33.41699219 C20.69455998 36.1586708 21.47583008 37.71059133 21.47583008 40.89892578 C15.34700874 40.49703586 10.41914062 39.29216081 4.71020508 37.07470703 C0.06835406 35.38727085 -4.66639666 34.06304624 -9.42260742 32.73779297 C-13.97409921 31.4443681 -18.21018819 29.84699345 -22.52416992 27.89892578 C-22.30148573 17.65545283 -14.47094003 10.49716225 -7.53979492 3.71142578 C-3.26695568 -0.13081726 -3.26695568 -0.13081726 0 0 Z " fill="#EE4527" transform="translate(50.524169921875,92.10107421875)"/>
<path d="M0 0 C4.13036555 1.48902772 5.19594725 3.69802051 7.05859375 7.56640625 C7.88520508 9.25540039 7.88520508 9.25540039 8.72851562 10.97851562 C9.29248047 12.16123047 9.85644531 13.34394531 10.4375 14.5625 C11.55934821 16.87719948 12.68301473 19.19101867 13.80859375 21.50390625 C14.34468262 22.61523926 14.88077148 23.72657227 15.43310547 24.87158203 C17.17799641 28.35538268 19.0913488 31.70046832 21.13696289 35.01538086 C22.19596224 37.45062999 22.15242279 39.372345 22 42 C11.46087073 46.37473291 1.36307485 48.00145068 -10 46 C-10.99 45.34 -11.98 44.68 -13 44 C-12.38752197 38.91577377 -11.3073396 34.15195451 -9.8125 29.25 C-9.5969043 28.53134766 -9.38130859 27.81269531 -9.15917969 27.07226562 C-8.44717321 24.71241486 -7.72506373 22.35587049 -7 20 C-6.73429199 19.13439453 -6.46858398 18.26878906 -6.19482422 17.37695312 C-5.38539631 14.74955109 -4.56941049 12.12430463 -3.75 9.5 C-3.4919458 8.66887695 -3.2338916 7.83775391 -2.96801758 6.98144531 C-1.11798685 1.11798685 -1.11798685 1.11798685 0 0 Z " fill="#EE4526" transform="translate(77,145)"/>
<path d="M0 0 C10.33080386 1.19667669 18.35125481 8.39471364 25 16 C25.5878125 16.63550781 26.175625 17.27101563 26.78125 17.92578125 C28 20 28 20 27.93164062 22.41870117 C26.60820376 26.08555074 24.76593679 26.66702765 21.3125 28.375 C20.13816406 28.96796875 18.96382812 29.5609375 17.75390625 30.171875 C16.50290393 30.78186517 15.25159967 31.39123646 14 32 C12.17675755 32.90750937 10.35606304 33.81999451 8.53540039 34.73266602 C6.77401399 35.61299793 5.00812376 36.48429975 3.2421875 37.35546875 C-0.30261454 39.15349484 -3.73287349 41.09518221 -7.1328125 43.15234375 C-9 44 -9 44 -13 44 C-12.43899977 38.45781096 -11.4231041 33.47189941 -9.6875 28.1875 C-9.46529785 27.49390381 -9.2430957 26.80030762 -9.01416016 26.08569336 C-7.42651957 21.17673594 -5.71603272 16.31892926 -3.9140625 11.484375 C-2.51689756 7.68695233 -1.25375426 3.84674602 0 0 Z " fill="#EE4526" transform="translate(95,88)"/>
<path d="M0 0 C3.00707031 6.96727452 4.38812276 13.33679671 4.375 20.875 C4.37693359 21.94415649 4.37693359 21.94415649 4.37890625 23.03491211 C4.28949758 27.36767667 3.57881786 30.97085683 2 35 C-6.04610885 34.50896338 -13.04247907 32.20727668 -20.625 29.5625 C-22.99175805 28.75004997 -25.35893362 27.93881501 -27.7265625 27.12890625 C-28.8187207 26.7539502 -29.91087891 26.37899414 -31.03613281 25.99267578 C-34.33557875 24.887606 -37.64004352 23.9015719 -41 23 C-41 21.68 -41 20.36 -41 19 C-40.51345947 18.74420166 -40.02691895 18.48840332 -39.52563477 18.22485352 C-38.05227735 17.45011983 -36.57906557 16.67510916 -35.10595703 15.89990234 C-33.39797255 15.00180876 -31.68930307 14.10501679 -29.97998047 13.20947266 C-25.67654813 10.95150381 -21.3870645 8.67441086 -17.12890625 6.33203125 C-15.98989868 5.71122681 -15.98989868 5.71122681 -14.82788086 5.07788086 C-13.38785803 4.29155786 -11.95223388 3.49711083 -10.52172852 2.69360352 C-6.87777759 0.71525361 -4.17946747 -0.50024514 0 0 Z " fill="#EE4426" transform="translate(127,116)"/>
<path d="M0 0 C-0.51498805 5.53612159 -1.99590279 10.54382911 -3.6953125 15.828125 C-4.76339262 19.17330439 -5.72754796 22.54193956 -6.6796875 25.921875 C-6.9792334 26.96279297 -7.2787793 28.00371094 -7.58740234 29.07617188 C-8.19175301 31.17797998 -8.78342017 33.28348002 -9.36181641 35.39257812 C-9.64460449 36.36130859 -9.92739258 37.33003906 -10.21875 38.328125 C-10.46560547 39.2037207 -10.71246094 40.07931641 -10.96679688 40.98144531 C-12 43 -12 43 -14.11132812 43.79199219 C-15.0462207 43.89495605 -15.0462207 43.89495605 -16 44 C-16.49927002 43.02651611 -16.99854004 42.05303223 -17.51293945 41.05004883 C-19.37303348 37.42432564 -21.23537736 33.79976204 -23.09838867 30.17553711 C-23.90303573 28.60944443 -24.70707958 27.04304167 -25.51049805 25.47631836 C-26.66815711 23.21906238 -27.82801038 20.96294559 -28.98828125 18.70703125 C-29.34465164 18.01100296 -29.70102203 17.31497467 -30.06819153 16.59785461 C-31.55211885 13.71701843 -33.05127193 10.916642 -34.75048828 8.15405273 C-36 6 -36 6 -36.00390625 3.828125 C-34.06827118 0.30331094 -30.31903658 -0.1340786 -26.671875 -1.2421875 C-17.7099537 -3.09177551 -8.71645631 -2.81903503 0 0 Z " fill="#EE4426" transform="translate(91,86)"/>
<path d="M0 0 C-0.63724995 6.16857955 -2.37503028 11.74905072 -4.3125 17.625 C-4.94713138 19.58056153 -5.58124782 21.53629024 -6.21484375 23.4921875 C-6.52147949 24.43416992 -6.82811523 25.37615234 -7.14404297 26.34667969 C-8.57808164 30.79195416 -9.92699628 35.26184851 -11.2734375 39.734375 C-12 42 -12 42 -13 44 C-22.2401684 43.60680134 -29.6301333 37.33833271 -36 31 C-41.03796524 25.38840505 -41.03796524 25.38840505 -40.93066406 21.46435547 C-39.67371518 18.13601287 -38.29527325 17.63288156 -35.109375 16.1328125 C-34.09512451 15.64264648 -33.08087402 15.15248047 -32.03588867 14.64746094 C-30.95154541 14.14504883 -29.86720215 13.64263672 -28.75 13.125 C-26.5525957 12.07195883 -24.35597446 11.01728203 -22.16015625 9.9609375 C-21.09812988 9.45530273 -20.03610352 8.94966797 -18.94189453 8.42871094 C-14.28817352 6.16866319 -9.79335081 3.66019884 -5.29296875 1.109375 C-3 0 -3 0 0 0 Z " fill="#EE4425" transform="translate(73,143)"/>
<path d="M0 0 C4.57270078 0.65124222 8.79097412 1.77970052 13.1875 3.1875 C14.59109893 3.63556362 15.99474704 4.08347322 17.3984375 4.53125 C18.13803711 4.7684375 18.87763672 5.005625 19.63964844 5.25 C22.14351362 6.04560135 24.65293725 6.82138449 27.1640625 7.59375 C28.02104736 7.85905518 28.87803223 8.12436035 29.76098633 8.39770508 C31.43689003 8.9164639 33.11378646 9.43202848 34.79174805 9.9440918 C35.557854 10.18297119 36.32395996 10.42185059 37.11328125 10.66796875 C38.13095581 10.98157349 38.13095581 10.98157349 39.16918945 11.30151367 C41 12 41 12 44 14 C43.49874187 18.59152451 42.42838063 21.35908313 39.6875 25.0625 C38.73230469 26.35607422 38.73230469 26.35607422 37.7578125 27.67578125 C37.17773438 28.44277344 36.59765625 29.20976562 36 30 C35.360625 30.9075 34.72125 31.815 34.0625 32.75 C31.12203778 35.95777697 27.92287433 39.05682575 24 41 C21.57983398 40.92041016 21.57983398 40.92041016 19 40 C17.2265625 37.55078125 17.2265625 37.55078125 15.625 34.3125 C15.03203125 33.13816406 14.4390625 31.96382812 13.828125 30.75390625 C13.21813483 29.50290393 12.60876354 28.25159967 12 27 C11.09249063 25.17675755 10.18000549 23.35606304 9.26733398 21.53540039 C8.38700207 19.77401399 7.51570025 18.00812376 6.64453125 16.2421875 C4.84650516 12.69738546 2.90481779 9.26712651 0.84765625 5.8671875 C0 4 0 4 0 0 Z " fill="#EE4425" transform="translate(83,142)"/>
<path d="M0 0 C5.43518045 0.61623158 10.33850903 1.89916044 15.5234375 3.6171875 C16.31021881 3.87501007 17.09700012 4.13283264 17.90762329 4.39846802 C19.55745533 4.94170065 21.20623882 5.48812728 22.85400391 6.03759766 C25.38422742 6.87806508 27.92025596 7.69908356 30.45703125 8.51953125 C32.06288896 9.05090932 33.66837202 9.58342122 35.2734375 10.1171875 C36.03377289 10.36105194 36.79410828 10.60491638 37.57748413 10.85617065 C39.41811385 11.48053014 41.21526076 12.23029332 43 13 C43.495 14.485 43.495 14.485 44 16 C43.02651611 16.49927002 42.05303223 16.99854004 41.05004883 17.51293945 C37.42432564 19.37303348 33.79976204 21.23537736 30.17553711 23.09838867 C28.60944443 23.90303573 27.04304167 24.70707958 25.47631836 25.51049805 C23.21906238 26.66815711 20.96294559 27.82801038 18.70703125 28.98828125 C18.01100296 29.34465164 17.31497467 29.70102203 16.59785461 30.06819153 C13.71864295 31.55128206 10.91603053 33.05137184 8.15112305 34.74291992 C6 36 6 36 3.875 36.125 C0.83702217 34.3022133 -0.04059565 31.25708611 -1 28 C-2.13339898 22.76773349 -2.18342396 17.63988863 -2.1875 12.3125 C-2.19974609 11.45849609 -2.21199219 10.60449219 -2.22460938 9.72460938 C-2.22654297 8.90412109 -2.22847656 8.08363281 -2.23046875 7.23828125 C-2.23457764 6.49618408 -2.23868652 5.75408691 -2.24291992 4.98950195 C-2 3 -2 3 0 0 Z " fill="#EE4425" transform="translate(26,124)"/>
<path d="M0 0 C1.16208984 0.06960937 1.16208984 0.06960937 2.34765625 0.140625 C4.9250019 12.77174871 6.08778108 26.58323378 -0.65234375 38.140625 C-2.71133661 41.12885455 -4.72789853 43.96401088 -7.65234375 46.140625 C-10.375 46.3515625 -10.375 46.3515625 -12.65234375 46.140625 C-16.93226992 39.06944263 -17.34783506 32.212994 -15.58984375 24.265625 C-13.63223646 17.32908046 -8.6807843 0.46024777 0 0 Z " fill="#10B899" transform="translate(130.65234375,20.859375)"/>
<path d="M0 0 C-1.20726349 8.58838074 -7.63758747 15.35344106 -14.16796875 20.66015625 C-19.28464206 24.40220091 -23.87572024 24.24016783 -30 24 C-30.46229687 18.22128913 -29.71404687 15.45685624 -26 11 C-19.79950061 4.15964563 -9.52483095 -2.82740808 0 0 Z " fill="#10B899" transform="translate(158,48)"/>
</svg>
