<?xml version="1.0" encoding="UTF-8"?>
<svg version="1.1" xmlns="http://www.w3.org/2000/svg" width="512" height="512">
<path d="M0 0 C168.96 0 337.92 0 512 0 C512 168.96 512 337.92 512 512 C343.04 512 174.08 512 0 512 C0 343.04 0 174.08 0 0 Z " fill="#3D1052" transform="translate(0,0)"/>
<path d="M0 0 C1.86328125 1.703125 1.86328125 1.703125 4 4 C6.04705409 5.61133575 8.10205332 7.19063664 10.1875 8.75 C14.89597406 12.31847929 19.38199265 16.02115753 23.75390625 20 C27.19548763 23.06450376 30.79038955 25.93556352 34.3671875 28.83984375 C37.9871803 31.80995653 41.49594228 34.89495506 45 38 C46.29120441 39.12553052 47.58288019 40.25052049 48.875 41.375 C51.94131881 44.05652586 54.97546544 46.77144436 58 49.5 C65.69825447 56.48294768 65.69825447 56.48294768 73.6875 63.125 C77.13679295 65.92172401 80.16604431 68.9158576 82.875 72.4375 C85.13157284 75.15866136 87.56217204 77.26868968 90.265625 79.52734375 C94.34116736 82.98788309 97.67254903 86.84068629 101 91 C103.29119754 93.35666033 105.63642567 95.64989138 108.00390625 97.9296875 C114.99621152 104.76390587 121.1796808 112.14805995 127 120 C125.55993432 123.66632938 124.05190026 124.82596539 120.5625 126.5625 C115.16518665 129.36399642 109.88467162 132.32237271 104.625 135.375 C103.79983887 135.85308105 102.97467773 136.33116211 102.12451172 136.82373047 C97.43816357 139.54964303 92.79400777 142.32887156 88.1875 145.1875 C83.63244299 148.00813145 79.06014618 150.79178911 74.4375 153.5 C73.30183594 154.1703125 72.16617187 154.840625 70.99609375 155.53125 C68 157 68 157 64 157 C61.89440143 155.0518016 60.05843769 153.15371613 58.1875 151 C57.39073853 150.10958008 57.39073853 150.10958008 56.57788086 149.20117188 C55.04008798 147.47745588 53.51757744 145.74151646 52 144 C51.28585937 143.1853125 50.57171875 142.370625 49.8359375 141.53125 C48.70382793 140.23456062 47.57461669 138.93533118 46.44921875 137.6328125 C45.14526325 136.16366587 43.76400895 134.76400895 42.375 133.375 C40 131 40 131 37.6875 128.125 C33.99004938 123.60460583 29.41991937 119.99529201 24.9296875 116.29296875 C24.29289062 115.76316406 23.65609375 115.23335938 23 114.6875 C22.13375 113.98173828 22.13375 113.98173828 21.25 113.26171875 C20 112 20 112 20 110 C19.443125 109.773125 18.88625 109.54625 18.3125 109.3125 C15.36380964 107.63891899 13.39706987 105.39706987 11 103 C9.74367568 102.08393018 8.47237244 101.1880784 7.1875 100.3125 C5.6096875 99.1678125 5.6096875 99.1678125 4 98 C4 97.34 4 96.68 4 96 C3.45859375 95.76539063 2.9171875 95.53078125 2.359375 95.2890625 C-0.65591544 93.6416356 -3.11184012 91.57346656 -5.75 89.375 C-6.73484375 88.55773437 -7.7196875 87.74046875 -8.734375 86.8984375 C-9.85585938 85.95871094 -9.85585938 85.95871094 -11 85 C-10.154375 85.94875 -9.30875 86.8975 -8.4375 87.875 C2 100.05623508 2 100.05623508 2 104 C2.66 104 3.32 104 4 104 C5.43401391 105.96513018 6.71488434 107.93746869 8 110 C8.54140625 110.8353125 9.0828125 111.670625 9.640625 112.53125 C13.328974 118.2401728 16.83991598 123.98248789 20 130 C20.46672119 130.88461914 20.46672119 130.88461914 20.94287109 131.78710938 C28.35397992 145.91878607 28.35397992 145.91878607 30.3515625 153.63671875 C31.34188566 157.24602906 32.75309548 160.68803126 34.1328125 164.1640625 C42.50199933 191.53356538 33.91868631 224.19960764 24 250 C23.34 250 22.68 250 22 250 C21.49440092 248.56445975 20.9957251 247.1264798 20.5 245.6875 C20.08234375 244.48673828 20.08234375 244.48673828 19.65625 243.26171875 C19 241 19 241 19 238 C18.34 238 17.68 238 17 238 C13.19883041 231.5380117 13.19883041 231.5380117 11.9375 228.125 C11.4734375 227.073125 11.4734375 227.073125 11 226 C10.01 225.67 9.02 225.34 8 225 C6.31002677 223.35697047 4.64783606 221.68528688 3 220 C-8.90230166 208.129608 -25.03585609 203.74242438 -41.39526367 203.7512207 C-59.74091913 204.02421568 -75.16635348 212.34940074 -88 225 C-92.68011149 230.23959351 -96.09781839 235.61520045 -99 242 C-99.66 242 -100.32 242 -101 242 C-102.44972559 240.02692949 -103.79541381 238.05169873 -105.125 236 C-114.42503366 222.11794326 -128.3055313 212.31892856 -144.77734375 208.4375 C-162.44967399 206.03834729 -179.86632315 208.07844612 -195 218 C-195.71671875 218.55558594 -196.4334375 219.11117187 -197.171875 219.68359375 C-199 221 -199 221 -201 221 C-201 221.66 -201 222.32 -201 223 C-201.99 223.78375 -202.98 224.5675 -204 225.375 C-212.72001649 232.64756436 -216.9005859 242.72115292 -221 253 C-235.35256571 254.24473872 -249.58765341 255.36131231 -264 255 C-262.62992438 251.34426939 -260.98982135 248.04532353 -259 244.6875 C-258.484375 243.80449219 -257.96875 242.92148437 -257.4375 242.01171875 C-256.963125 241.34785156 -256.48875 240.68398438 -256 240 C-255.34 240 -254.68 240 -254 240 C-253.67 238.783125 -253.34 237.56625 -253 236.3125 C-250.79590573 229.59322231 -246.7834236 223.91265976 -243 218 C-242.67 217.34 -242.34 216.68 -242 216 C-241.34 216 -240.68 216 -240 216 C-239.79375 215.236875 -239.5875 214.47375 -239.375 213.6875 C-236.81294885 206.81654463 -232.96608619 200.58724861 -229.1796875 194.328125 C-227.0262167 190.7545925 -224.94942103 187.15075876 -222.9296875 183.5 C-222.42566406 182.59378906 -221.92164063 181.68757812 -221.40234375 180.75390625 C-220.36901436 178.890742 -219.34316773 177.02341127 -218.32421875 175.15234375 C-217.82277344 174.25644531 -217.32132813 173.36054688 -216.8046875 172.4375 C-216.36108887 171.63183594 -215.91749023 170.82617188 -215.46044922 169.99609375 C-213.79338227 167.71760171 -212.69148259 166.83601501 -210 166 C-207.11989025 167.04510312 -204.49995764 168.17899762 -201.75 169.5 C-165.61973235 185.71211893 -122.13354072 186.46029507 -84.765625 173.9140625 C-74.75158948 170.04854102 -65.49522413 164.66029884 -59 156 C-58.34 156 -57.68 156 -57 156 C-56.87625 155.278125 -56.7525 154.55625 -56.625 153.8125 C-56 151 -56 151 -54.98046875 148.6796875 C-52.07903506 140.74987272 -53.80917893 131.58806566 -57 124 C-60.92995136 115.78467533 -65.63755896 108.33581934 -71 101 C-71.81972346 99.83996301 -72.63729465 98.67840323 -73.453125 97.515625 C-80.05978157 88.11489807 -86.28760837 80.33741366 -95.3203125 73.140625 C-97.53603816 71.37062841 -99.68434844 69.56027337 -101.8125 67.6875 C-104.71875961 65.16733768 -107.75248796 63.05939788 -111 61 C-109.625 59.5 -109.625 59.5 -108 58 C-107.34 58 -106.68 58 -106 58 C-106 57.34 -106 56.68 -106 56 C-103.94980191 54.44060691 -101.90761398 53.02365018 -99.75 51.625 C-99.08395752 51.18800781 -98.41791504 50.75101563 -97.73168945 50.30078125 C-83.95460246 41.34827535 -69.72472764 33.15248512 -55.3125 25.27392578 C-52.88628222 23.93735437 -50.4737414 22.57823122 -48.0625 21.21484375 C-37.90687071 15.50040024 -27.66868775 10.4080088 -16.94775391 5.84472656 C-13.30795771 4.26617369 -9.73679245 2.53648398 -6.1640625 0.8125 C-4 0 -4 0 0 0 Z " fill="#FBC42D" transform="translate(324,100)"/>
<path d="M0 0 C7.31723416 5.80161011 13.10736644 15.05181613 14.67578125 24.38671875 C15.44193575 36.53828549 13.70287555 46.65272752 7.05078125 56.88671875 C6.59703125 57.38171875 6.14328125 57.87671875 5.67578125 58.38671875 C5.01578125 58.38671875 4.35578125 58.38671875 3.67578125 58.38671875 C3.67578125 59.04671875 3.67578125 59.70671875 3.67578125 60.38671875 C-3.90888954 68.16737586 -14.19808229 72.62042819 -25.01171875 72.82421875 C-38.21182207 72.22060392 -47.28241423 68.88113297 -56.6953125 59.44921875 C-58.47344232 57.1977738 -59.39132558 55.08695226 -60.32421875 52.38671875 C-60.98421875 52.38671875 -61.64421875 52.38671875 -62.32421875 52.38671875 C-66.93475546 40.55163568 -68.89655736 27.97915975 -64.26171875 15.82421875 C-61.71075143 10.57138181 -58.525589 6.41642011 -54.32421875 2.38671875 C-53.47150391 1.55527344 -53.47150391 1.55527344 -52.6015625 0.70703125 C-37.44600599 -13.17117767 -16.04037141 -11.13390486 0 0 Z " fill="#FBC42C" transform="translate(191.32421875,339.61328125)"/>
<path d="M0 0 C2.75 2.375 2.75 2.375 5 5 C5.49113281 5.51304687 5.98226562 6.02609375 6.48828125 6.5546875 C12.21207237 12.71877024 15.40740647 19.55554222 16 28 C16.06316406 28.72574219 16.12632812 29.45148438 16.19140625 30.19921875 C16.77621638 41.91428623 12.4497674 52.1288954 5 61 C2.58786848 63.57357339 0.23889202 65.69135479 -2.75 67.5625 C-3.36359375 67.95566406 -3.9771875 68.34882813 -4.609375 68.75390625 C-11.04983919 72.11094559 -16.60831987 73.51044749 -23.875 73.375 C-24.66511475 73.36484863 -25.45522949 73.35469727 -26.26928711 73.34423828 C-37.17454615 73.05504547 -46.01826655 69.9200661 -53.89453125 62.125 C-58 57.50995316 -58 57.50995316 -58 55 C-58.66 55 -59.32 55 -60 55 C-64.16522796 47.42685825 -65.40990565 40.19777129 -65.4375 31.6875 C-65.44330078 30.44552856 -65.44330078 30.44552856 -65.44921875 29.1784668 C-65.31998061 22.28913137 -63.69816988 16.87744855 -60 11 C-59.34 11 -58.68 11 -58 11 C-57.75636719 10.25878906 -57.51273438 9.51757812 -57.26171875 8.75390625 C-54.19193944 2.05361394 -46.5965529 -3.04292456 -40 -6 C-25.14222376 -9.99575435 -13.1306604 -7.76743291 0 0 Z " fill="#FBC42D" transform="translate(309,335)"/>
<path d="M0 0 C3.54624648 2.00412873 6.50067051 4.18635446 9.5 6.9375 C13.37849416 10.44997732 17.36449903 13.73248675 21.5 16.9375 C24.18044067 19.14886356 26.54201098 21.54201098 29 24 C33.11588688 27.77591028 37.26593071 31.51442662 41.5078125 35.1484375 C45.76393299 38.81460069 49.19162897 42.11587646 52 47 C50.125 46.75 50.125 46.75 48 46 C47.71125 45.401875 47.4225 44.80375 47.125 44.1875 C45.51204175 41.0511923 42.90629541 39.89541005 40 38 C40 37.34 40 36.68 40 36 C39.360625 35.896875 38.72125 35.79375 38.0625 35.6875 C37.381875 35.460625 36.70125 35.23375 36 35 C35.67 34.01 35.34 33.02 35 32 C33.19305725 30.18637008 33.19305725 30.18637008 31 29 C30.01 29.33 29.02 29.66 28 30 C28 29.34 28 28.68 28 28 C27.34 28 26.68 28 26 28 C26.33 28.99 26.66 29.98 27 31 C26.34 31 25.68 31 25 31 C25 31.66 25 32.32 25 33 C25.66 33 26.32 33 27 33 C28.7265625 35.44921875 28.7265625 35.44921875 30.625 38.6875 C31.57246094 40.27111328 31.57246094 40.27111328 32.5390625 41.88671875 C33.98140157 44.96036645 34.33361157 46.67006229 34 50 C31.98292579 47.40910296 30.28848601 44.83570429 28.75 41.9375 C25.33292182 35.68321146 21.67041254 29.43251657 17.2890625 23.80078125 C16 22 16 22 16 20 C15.34 20 14.68 20 14 20 C13.06922136 18.65554196 12.14836076 17.30333277 11.2734375 15.921875 C8.34895159 11.50823369 5.11209864 7.02549779 1.28515625 3.35546875 C0 2 0 2 0 0 Z " fill="#3E1047" transform="translate(312,184)"/>
<path d="M0 0 C-4.44229531 1.46449296 -6.83912856 -0.03304259 -11 -2 C-14.4704021 -3.1568007 -17.34354382 -3.24013264 -21 -3.3125 C-22.2375 -3.34988281 -23.475 -3.38726562 -24.75 -3.42578125 C-28.08617358 -3.36657874 -28.08617358 -3.36657874 -29.65234375 -0.9765625 C-30.09707031 -0.32429688 -30.54179687 0.32796875 -31 1 C-33.19140625 1.27734375 -33.19140625 1.27734375 -35.5625 0.9375 C-36.34753906 0.84339844 -37.13257813 0.74929688 -37.94140625 0.65234375 C-40 0 -40 0 -42 -3 C-28.83754038 -11.77497308 -12.83028807 -5.97533511 0 0 Z " fill="#FBC431" transform="translate(308,334)"/>
<path d="M0 0 C0.66 0.33 1.32 0.66 2 1 C-4.80386112 5.24958768 -11.64121274 9.44402629 -18.5625 13.5 C-19.69816406 14.1703125 -20.83382813 14.840625 -22.00390625 15.53125 C-25 17 -25 17 -29 17 C-30.55566406 15.80664062 -30.55566406 15.80664062 -32.015625 14.15625 C-32.54414063 13.56972656 -33.07265625 12.98320312 -33.6171875 12.37890625 C-34.15601563 11.75886719 -34.69484375 11.13882813 -35.25 10.5 C-35.80429687 9.87996094 -36.35859375 9.25992188 -36.9296875 8.62109375 C-38.29634535 7.08949443 -39.64949501 5.54586106 -41 4 C-40.34 3.67 -39.68 3.34 -39 3 C-37.8274869 3.95117134 -36.66212985 4.91117009 -35.5 5.875 C-34.8503125 6.40867188 -34.200625 6.94234375 -33.53125 7.4921875 C-33.0259375 7.98976562 -32.520625 8.48734375 -32 9 C-32 9.66 -32 10.32 -32 11 C-31.01 10.67 -30.02 10.34 -29 10 C-28.67 9.34 -28.34 8.68 -28 8 C-26.68 8.66 -25.36 9.32 -24 10 C-24 10.66 -24 11.32 -24 12 C-23.34 12.33 -22.68 12.66 -22 13 C-21.67 12.01 -21.34 11.02 -21 10 C-19.234375 9.41015625 -19.234375 9.41015625 -17 9 C-15.4122889 8.49266847 -13.82892506 7.97154818 -12.25 7.4375 C-11.05117188 7.03337891 -11.05117188 7.03337891 -9.828125 6.62109375 C-9.22484375 6.41613281 -8.6215625 6.21117187 -8 6 C-8 5.34 -8 4.68 -8 4 C-6.71349294 3.30289269 -5.42059335 2.61757124 -4.125 1.9375 C-3.40570313 1.55464844 -2.68640625 1.17179688 -1.9453125 0.77734375 C-0.98238281 0.39255859 -0.98238281 0.39255859 0 0 Z " fill="#EDBA45" transform="translate(417,240)"/>
<path d="M0 0 C0.66 0 1.32 0 2 0 C3.87262181 6.31088296 4.24896078 11.93961397 4.125 18.5 C4.11597656 19.4178125 4.10695313 20.335625 4.09765625 21.28125 C4.07432432 23.52111556 4.04159235 25.76041183 4 28 C3.34 28 2.68 28 2 28 C2.01160156 28.75023437 2.02320313 29.50046875 2.03515625 30.2734375 C2.16293156 44.766808 2.16293156 44.766808 1 50 C0.01 50.495 0.01 50.495 -1 51 C-1 51.99 -1 52.98 -1 54 C-1.66 54 -2.32 54 -3 54 C-2.56053821 50.33781843 -2.11626452 46.69299168 -1.50585938 43.0546875 C0.01966405 33.66855791 0.23931409 24.60875556 0.125 15.125 C0.11493329 13.6471416 0.10581407 12.16927642 0.09765625 10.69140625 C0.07597371 7.12745972 0.04165536 3.56377585 0 0 Z " fill="#4F1F30" transform="translate(359,272)"/>
<path d="M0 0 C2 1 2 1 2.61230469 2.7980957 C3.27903321 6.58476103 3.22622805 10.35130152 3.25 14.1875 C3.270625 15.00025391 3.29125 15.81300781 3.3125 16.65039062 C3.36370749 24.69636808 1.32863035 31.22475249 -3 38 C-3.309375 38.804375 -3.61875 39.60875 -3.9375 40.4375 C-5.33498561 43.80790648 -6.5595146 46.24663185 -9 49 C-12.00356419 49.79887545 -14.89985816 49.98675153 -18 50 C-16.71034824 48.62437146 -15.37310707 47.29233607 -14 46 C-13.34 46 -12.68 46 -12 46 C-11.67 45.01 -11.34 44.02 -11 43 C-10.34 43 -9.68 43 -9 43 C-9 42.34 -9 41.68 -9 41 C-8.34 41 -7.68 41 -7 41 C-6.566875 40.12214844 -6.566875 40.12214844 -6.125 39.2265625 C-5.44205114 37.87489288 -4.73888967 36.5328573 -4 35.2109375 C1.9096846 24.36112592 2.17729294 11.97511118 0 0 Z " fill="#4A1937" transform="translate(204,357)"/>
<path d="M0 0 C5.25364526 7.88046788 4.35109055 18.9388498 4.3125 28.0625 C4.31121094 29.32860107 4.30992187 30.59470215 4.30859375 31.89916992 C4.20727289 41.84697851 3.18048028 51.3046502 1 61 C0.67 61 0.34 61 0 61 C-0.06058594 60.22914063 -0.12117188 59.45828125 -0.18359375 58.6640625 C-0.26738281 57.66117187 -0.35117187 56.65828125 -0.4375 55.625 C-0.51871094 54.62726563 -0.59992188 53.62953125 -0.68359375 52.6015625 C-0.84965626 50.02072387 -0.84965626 50.02072387 -2 48 C-1.26443317 46.06077836 -0.5260913 44.12253442 0.23046875 42.19140625 C4.71415427 29.42314444 2.08026126 13.07592789 0 0 Z " fill="#EBB74B" transform="translate(356,261)"/>
<path d="M0 0 C0.88494141 -0.00386719 1.76988281 -0.00773437 2.68164062 -0.01171875 C6.89154523 -0.00540231 10.83499181 0.0503305 14.9375 1.125 C14.9375 1.455 14.9375 1.785 14.9375 2.125 C13.78121094 2.21587891 13.78121094 2.21587891 12.6015625 2.30859375 C11.59867188 2.39238281 10.59578125 2.47617187 9.5625 2.5625 C8.06589844 2.68431641 8.06589844 2.68431641 6.5390625 2.80859375 C3.95822387 2.97465626 3.95822387 2.97465626 1.9375 4.125 C-0.0857226 4.12081979 -2.10923399 4.11058723 -4.13183594 4.06030273 C-12.07079704 3.86334378 -18.55632823 4.35801903 -26.0625 7.125 C-28.05457741 7.50280778 -30.05223965 7.86049206 -32.0625 8.125 C-28.95132561 5.51994967 -26.03738567 4.24411064 -22.1875 3 C-21.17945313 2.66742188 -20.17140625 2.33484375 -19.1328125 1.9921875 C-12.69958986 0.17517042 -6.63693245 -0.02913065 0 0 Z " fill="#4B1A36" transform="translate(166.0625,306.875)"/>
<path d="M0 0 C0.66 0 1.32 0 2 0 C0.72343981 4.32506215 -0.91897629 7.70575197 -3.4375 11.4375 C-6.12629983 15.53791973 -8.26980429 19.42007019 -10 24 C-10.66 24 -11.32 24 -12 24 C-11.835 23.05125 -11.67 22.1025 -11.5 21.125 C-10.9473365 18.19831099 -10.9473365 18.19831099 -11 16 C-11.66 16.66 -12.32 17.32 -13 18 C-13 17.01 -13 16.02 -13 15 C-13.66 14.34 -14.32 13.68 -15 13 C-14.401875 12.62875 -13.80375 12.2575 -13.1875 11.875 C-10.50345491 9.57438992 -9.4233286 7.20248935 -8 4 C-6.5393715 6.64738916 -6 7.89448334 -6 11 C-5.01 9.02 -4.02 7.04 -3 5 C-2.34 5 -1.68 5 -1 5 C-0.67 3.35 -0.34 1.7 0 0 Z " fill="#3C104E" transform="translate(80,316)"/>
<path d="M0 0 C0.99 0 1.98 0 3 0 C5.23125185 4.75353655 6.55125889 8.70485486 7 14 C7.06445312 14.71671875 7.12890625 15.4334375 7.1953125 16.171875 C7.5230413 22.85754262 5.90024805 28.55547311 3.875 34.8984375 C2.81898817 38.10451804 2.81898817 38.10451804 3 42 C2.360625 42.12375 1.72125 42.2475 1.0625 42.375 C0.381875 42.58125 -0.29875 42.7875 -1 43 C-1.33 43.66 -1.66 44.32 -2 45 C-2.66 45 -3.32 45 -4 45 C-2.85248796 41.93996789 -1.52451334 39.07156068 0 36.1875 C5.05520141 26.09595987 5.13284311 15.7532723 2 5 C1.38103371 3.31503622 0.73882078 1.63596029 0 0 Z " fill="#4B1A2E" transform="translate(320,349)"/>
<path d="M0 0 C0.66 0.33 1.32 0.66 2 1 C-0.56616632 4.84924948 -2.95879084 5.82972101 -7 8 C-7 9.32 -7 10.64 -7 12 C-7.825 12.639375 -8.65 13.27875 -9.5 13.9375 C-12.29483193 15.75684474 -12.29483193 15.75684474 -12.3125 18.75 C-12.209375 19.4925 -12.10625 20.235 -12 21 C-14.31 20.34 -16.62 19.68 -19 19 C-19 19.66 -19 20.32 -19 21 C-19.66 20.67 -20.32 20.34 -21 20 C-19.89847594 18.56047403 -18.7936696 17.12345929 -17.6875 15.6875 C-16.76517578 14.48673828 -16.76517578 14.48673828 -15.82421875 13.26171875 C-14.29206904 11.36211558 -12.844091 9.59614599 -11 8 C-10.34 8 -9.68 8 -9 8 C-9 7.34 -9 6.68 -9 6 C-7.03125 4.4921875 -7.03125 4.4921875 -4.5 2.875 C-3.6646875 2.33617187 -2.829375 1.79734375 -1.96875 1.2421875 C-1.3190625 0.83226562 -0.669375 0.42234375 0 0 Z " fill="#3D0F50" transform="translate(132,315)"/>
<path d="M0 0 C0.46148437 0.38671875 0.92296875 0.7734375 1.3984375 1.171875 C8.7362512 7.03052467 17.23586534 11.15874445 26.765625 11.09765625 C28.09980469 11.09282227 28.09980469 11.09282227 29.4609375 11.08789062 C30.84152344 11.07532227 30.84152344 11.07532227 32.25 11.0625 C33.18585938 11.05798828 34.12171875 11.05347656 35.0859375 11.04882812 C37.39069041 11.03706918 39.69531227 11.02063426 42 11 C42 11.66 42 12.32 42 13 C34.74270549 16.62864726 21.99146949 14.04984104 14.625 11.91796875 C9.0161126 9.95652747 3.73329379 7.82217114 0 3 C0 2.01 0 1.02 0 0 Z " fill="#5F302F" transform="translate(254,396)"/>
<path d="M0 0 C2.475 0.99 2.475 0.99 5 2 C4.731875 2.886875 4.46375 3.77375 4.1875 4.6875 C4.125625 5.780625 4.06375 6.87375 4 8 C6.29151077 10.62494782 6.29151077 10.62494782 9 13 C10.3125 15.8125 10.3125 15.8125 11 18 C8.5 16.625 8.5 16.625 6 15 C6 14.34 6 13.68 6 13 C5.41347656 12.74089844 4.82695312 12.48179687 4.22265625 12.21484375 C1.84402842 10.91475016 0.31081607 9.51125162 -1.5625 7.5625 C-2.14128906 6.96566406 -2.72007812 6.36882812 -3.31640625 5.75390625 C-3.87199219 5.17511719 -4.42757813 4.59632813 -5 4 C-5.9977247 2.99772986 -6.99695588 1.99694659 -8 1 C-7.05125 1.350625 -6.1025 1.70125 -5.125 2.0625 C-2.12939828 3.35026777 -2.12939828 3.35026777 0 2 C0 1.34 0 0.68 0 0 Z " fill="#441643" transform="translate(394,152)"/>
<path d="M0 0 C0 0.66 0 1.32 0 2 C-1.6796875 3.18359375 -1.6796875 3.18359375 -3.875 4.4375 C-6.91130355 6.17330794 -7.99102668 6.98654002 -10 10 C-12.375 10.625 -12.375 10.625 -15 11 C-17.19747131 11.29805007 -17.19747131 11.29805007 -19 12 C-19.33 12.99 -19.66 13.98 -20 15 C-23.92722404 16.96361202 -27.6570138 18.34197179 -32 19 C-29.27262414 16.05944994 -26.75076386 14.13518336 -23.1875 12.3125 C-17.63209197 9.39215713 -12.28586196 6.19791313 -6.9519043 2.89575195 C-2.21345758 0 -2.21345758 0 0 0 Z " fill="#562335" transform="translate(428,236)"/>
<path d="M0 0 C5.87343427 6.4607777 6.34924388 12.52610958 6.19140625 20.93359375 C5.75818333 27.87400178 4.51644013 33.92614887 1 40 C-0.33332095 37.3333581 0.32897967 35.83319697 1 33 C1.66 33 2.32 33 3 33 C3.08845016 29.85434954 3.14086835 26.70902625 3.1875 23.5625 C3.21263672 22.68400391 3.23777344 21.80550781 3.26367188 20.90039062 C3.32416825 15.43555118 2.67986676 11.07626578 0.6496582 5.98803711 C0 4 0 4 0 0 Z " fill="#DEAC4C" transform="translate(200,352)"/>
<path d="M0 0 C0.66 0 1.32 0 2 0 C5.36193079 7.98458563 5.55015524 15.44085412 5 24 C4.67 24.66 4.34 25.32 4 26 C3.34 26 2.68 26 2 26 C1.896875 26.9075 1.79375 27.815 1.6875 28.75 C0.99585051 32.01961575 0.17865079 33.53717737 -2 36 C-2.99 35.67 -3.98 35.34 -5 35 C-4.34 34.01 -3.68 33.02 -3 32 C-2.34 32 -1.68 32 -1 32 C-0.814375 30.9171875 -0.814375 30.9171875 -0.625 29.8125 C0 27 0 27 1.0234375 24.6796875 C3.85131547 16.91999035 1.93304308 7.80120956 0 0 Z " fill="#F1C04F" transform="translate(268,224)"/>
<path d="M0 0 C3.57872035 2.02330479 6.58223531 4.23955369 9.625 7 C10.38039063 7.680625 11.13578125 8.36125 11.9140625 9.0625 C13.6493759 10.67432667 15.34150925 12.30981835 17 14 C16.01 14.33 15.02 14.66 14 15 C14.66 15.94875 15.32 16.8975 16 17.875 C18 21 18 21 18 23 C18.66 23.33 19.32 23.66 20 24 C19.01 24 18.02 24 17 24 C16.67 22.68 16.34 21.36 16 20 C15.34 20 14.68 20 14 20 C13.06922136 18.65554196 12.14836076 17.30333277 11.2734375 15.921875 C8.34895159 11.50823369 5.11209864 7.02549779 1.28515625 3.35546875 C0 2 0 2 0 0 Z " fill="#502132" transform="translate(312,184)"/>
<path d="M0 0 C-0.38671875 0.44730469 -0.7734375 0.89460938 -1.171875 1.35546875 C-3.57411736 4.1442105 -5.95031428 6.93789285 -8.25 9.8125 C-10 12 -10 12 -12 14 C-12.29445076 8.99433712 -12.11763863 6.00839253 -9 2 C-5.86402476 -1.13597524 -4.20211801 -1.2839805 0 0 Z " fill="#421347" transform="translate(141,338)"/>
<path d="M0 0 C0 0.33 0 0.66 0 1 C-0.95869995 0.98428955 -0.95869995 0.98428955 -1.93676758 0.96826172 C-4.89530335 0.92611505 -7.85377561 0.90049055 -10.8125 0.875 C-11.81732422 0.85824219 -12.82214844 0.84148437 -13.85742188 0.82421875 C-20.78945544 0.77963976 -27.22940584 1.51733934 -34 3 C-33 1 -33 1 -31.2421875 0.1484375 C-21.11706883 -3.15976959 -10.14704966 -3.31332234 0 0 Z " fill="#E5B355" transform="translate(180,333)"/>
<path d="M0 0 C2.625 2.1875 2.625 2.1875 4 4 C3.175 3.71125 2.35 3.4225 1.5 3.125 C-6.13581777 0.67063 -12.50457892 -0.27607627 -20.5 -0.125 C-21.4178125 -0.11597656 -22.335625 -0.10695313 -23.28125 -0.09765625 C-25.52111556 -0.07432432 -27.76041183 -0.04159235 -30 0 C-23.53612392 -6.46387608 -7.55025289 -3.58749591 0 0 Z " fill="#4F1D2A" transform="translate(182,332)"/>
<path d="M0 0 C4.63743568 -0.25295104 8.03698654 -0.13868175 12.375 1.5625 C17.41715834 3.44560975 21.77874001 2.90472772 27 2 C26 5 26 5 24 6 C24.99 6.99 25.98 7.98 27 9 C26.01 9.495 26.01 9.495 25 10 C22.93359375 9.109375 22.93359375 9.109375 20.4375 7.75 C13.85250707 4.32922445 7.39187951 1.94767686 0 1 C0 0.67 0 0.34 0 0 Z " fill="#E7B441" transform="translate(293,303)"/>
<path d="M0 0 C1.03881699 3.69179576 1.1363245 6.26636235 0 10 C-0.804375 10.309375 -1.60875 10.61875 -2.4375 10.9375 C-3.283125 11.288125 -4.12875 11.63875 -5 12 C-5.74118205 14.31074405 -6.40206327 16.64811553 -7 19 C-9 21.9375 -9 21.9375 -11 24 C-11.66 24 -12.32 24 -13 24 C-11.77314289 19.5387014 -9.93138876 16.06969134 -7.44140625 12.234375 C-5.7992646 9.68883293 -4.24114054 7.10041963 -2.6875 4.5 C-2.17574219 3.6440625 -1.66398437 2.788125 -1.13671875 1.90625 C-0.76160156 1.2771875 -0.38648437 0.648125 0 0 Z " fill="#E1B04C" transform="translate(108,272)"/>
<path d="M0 0 C1.65 1.65 3.3 3.3 5 5 C3.52966617 8.89304298 1.66002366 10.03459037 -2 11.875 C-6.80704013 14.35768739 -11.41484007 17.03486021 -16.00390625 19.8984375 C-18 21 -18 21 -20 21 C-20 20.34 -20 19.68 -20 19 C-17.98828125 17.59765625 -17.98828125 17.59765625 -15.3125 16.0625 C-14.44238281 15.55847656 -13.57226562 15.05445313 -12.67578125 14.53515625 C-11.79277344 14.02855469 -10.90976562 13.52195313 -10 13 C-9.12730469 12.44183594 -8.25460937 11.88367188 -7.35546875 11.30859375 C-5 10 -5 10 -2 10 C-2 9.34 -2 8.68 -2 8 C-1.01 8 -0.02 8 1 8 C0.67 5.36 0.34 2.72 0 0 Z " fill="#E9B851" transform="translate(446,215)"/>
<path d="M0 0 C1 2 1 2 0.44140625 3.9453125 C0.15136719 4.66460937 -0.13867188 5.38390625 -0.4375 6.125 C-0.72496094 6.84945313 -1.01242188 7.57390625 -1.30859375 8.3203125 C-1.53675781 8.87460937 -1.76492187 9.42890625 -2 10 C-2.66 10 -3.32 10 -4 10 C-5.87262181 16.31088296 -6.24896078 21.93961397 -6.125 28.5 C-6.11597656 29.4178125 -6.10695313 30.335625 -6.09765625 31.28125 C-6.07432432 33.52111556 -6.04159235 35.76041183 -6 38 C-6.33 38 -6.66 38 -7 38 C-9.78659433 26.32828112 -9.00260227 14.46650931 -3 4 C-2.02825825 2.64593363 -1.03707354 1.30470542 0 0 Z " fill="#E6B254" transform="translate(133,346)"/>
<path d="M0 0 C1.07765625 0.00902344 2.1553125 0.01804687 3.265625 0.02734375 C4.08546875 0.03894531 4.9053125 0.05054688 5.75 0.0625 C2.05173705 2.17851643 -1.90092354 3.15892133 -6 4.1875 C-6.67804688 4.36925781 -7.35609375 4.55101562 -8.0546875 4.73828125 C-12.90318307 5.96423165 -17.25083197 6.23063345 -22.25 6.0625 C-22.25 5.4025 -22.25 4.7425 -22.25 4.0625 C-21.20199219 3.98902344 -21.20199219 3.98902344 -20.1328125 3.9140625 C-19.22273437 3.83929688 -18.31265625 3.76453125 -17.375 3.6875 C-16.47007812 3.61789062 -15.56515625 3.54828125 -14.6328125 3.4765625 C-12.07058097 3.26681868 -12.07058097 3.26681868 -10.25 1.0625 C-6.86215901 -0.15071333 -3.56840018 -0.03878696 0 0 Z " fill="#532034" transform="translate(230.25,274.9375)"/>
<path d="M0 0 C0.88336837 2.4667645 1.1312406 3.63859372 0.22265625 6.140625 C-0.16019531 6.83671875 -0.54304688 7.5328125 -0.9375 8.25 C-1.31777344 8.95640625 -1.69804688 9.6628125 -2.08984375 10.390625 C-2.39019531 10.92171875 -2.69054687 11.4528125 -3 12 C-1.948125 11.835 -0.89625 11.67 0.1875 11.5 C6.10578512 10.74288605 12.04521179 10.91830321 18 11 C18 11.33 18 11.66 18 12 C12.28094617 12.82536345 6.7732851 13.12753701 1 13.0625 C-0.16208984 13.05573242 -0.16208984 13.05573242 -1.34765625 13.04882812 C-3.23180524 13.03719758 -5.11591365 13.01926906 -7 13 C-5.74361009 9.6476699 -4.31266112 6.69597385 -2.375 3.6875 C-1.92898437 2.99011719 -1.48296875 2.29273438 -1.0234375 1.57421875 C-0.51683594 0.79498047 -0.51683594 0.79498047 0 0 Z " fill="#DAA858" transform="translate(67,342)"/>
<path d="M0 0 C0 0.66 0 1.32 0 2 C-10.21912546 9.65901052 -19.45057817 11.52370076 -32 11 C-32 10.67 -32 10.34 -32 10 C-31.28972656 9.93941406 -30.57945312 9.87882812 -29.84765625 9.81640625 C-28.92855469 9.73261719 -28.00945312 9.64882813 -27.0625 9.5625 C-26.14597656 9.48128906 -25.22945312 9.40007812 -24.28515625 9.31640625 C-22.03840268 9.23955024 -22.03840268 9.23955024 -21 8 C-19.66975319 7.75354802 -18.33558743 7.52814172 -17 7.3125 C-12.16103545 6.31533318 -8.86427621 4.17789866 -4.9453125 1.2421875 C-3 0 -3 0 0 0 Z " fill="#EDB854" transform="translate(192,401)"/>
<path d="M0 0 C4.79117172 5.93437356 4.63815581 13.6186645 4 21 C3.1876231 24.73126601 2.16151458 28.36335318 1 32 C0.67 32 0.34 32 0 32 C0.2475 30.4221875 0.2475 30.4221875 0.5 28.8125 C1.68564661 19.22570025 1.07370751 9.56750085 0 0 Z " fill="#E4B05E" transform="translate(321,352)"/>
<path d="M0 0 C0.66 0 1.32 0 2 0 C3.87262181 6.31088296 4.24896078 11.93961397 4.125 18.5 C4.11597656 19.4178125 4.10695313 20.335625 4.09765625 21.28125 C4.07432432 23.52111556 4.04159235 25.76041183 4 28 C3.01 27.34 2.02 26.68 1 26 C0.56762695 23.38623047 0.56762695 23.38623047 0.48828125 20.1171875 C0.45283203 18.95058594 0.41738281 17.78398437 0.38085938 16.58203125 C0.35830078 15.35871094 0.33574219 14.13539063 0.3125 12.875 C0.26125977 11.02841797 0.26125977 11.02841797 0.20898438 9.14453125 C0.12628436 6.0964449 0.05720573 3.04865429 0 0 Z " fill="#56273D" transform="translate(359,272)"/>
<path d="M0 0 C3.65322516 1.21774172 5.41381453 3.29414527 8 6 C9.33063155 7.33602965 10.66415332 8.66918476 12 10 C12.68320312 10.68449219 13.36640625 11.36898437 14.0703125 12.07421875 C15.22644835 13.22801425 16.38658961 14.37784764 17.5546875 15.51953125 C19.68091573 17.60172517 21.33572273 19.50358409 23 22 C21.125 21.75 21.125 21.75 19 21 C18.71125 20.401875 18.4225 19.80375 18.125 19.1875 C16.51204175 16.0511923 13.90629541 14.89541005 11 13 C11 12.34 11 11.68 11 11 C10.0409375 10.8453125 10.0409375 10.8453125 9.0625 10.6875 C8.0415625 10.3471875 8.0415625 10.3471875 7 10 C6.67 9.01 6.34 8.02 6 7 C4.00334402 5.32932867 2.00348966 3.66247014 0 2 C0 1.34 0 0.68 0 0 Z " fill="#55252A" transform="translate(341,209)"/>
<path d="M0 0 C0 0.99 0 1.98 0 3 C-0.66 3.66 -1.32 4.32 -2 5 C-2.25874554 7.00527797 -2.51365695 9.0115695 -2.71484375 11.0234375 C-3.04506402 13.31236153 -3.77649246 15.04238794 -5 17 C-5.66 17 -6.32 17 -7 17 C-6.835 16.401875 -6.67 15.80375 -6.5 15.1875 C-5.8885876 12.88655664 -5.8885876 12.88655664 -6 10 C-6.66 10 -7.32 10 -8 10 C-8 11.32 -8 12.64 -8 14 C-9.32 14.33 -10.64 14.66 -12 15 C-10.58397787 11.85093585 -8.86264918 9.50476328 -6.5625 6.9375 C-5.96566406 6.26589844 -5.36882812 5.59429687 -4.75390625 4.90234375 C-3.20703058 3.2245521 -1.62828434 1.59840757 0 0 Z " fill="#42153D" transform="translate(241,319)"/>
<path d="M0 0 C0.66 0 1.32 0 2 0 C6 4.47058824 6 4.47058824 6 7 C6.66 7.33 7.32 7.66 8 8 C8 8.99 8 9.98 8 11 C9.93897879 13.67398476 9.93897879 13.67398476 12 16 C11.67 16.66 11.34 17.32 11 18 C9.82739389 16.71372289 8.6620717 15.42080217 7.5 14.125 C6.8503125 13.40570313 6.200625 12.68640625 5.53125 11.9453125 C4 10 4 10 4 8 C3.34 8 2.68 8 2 8 C1.34 5.36 0.68 2.72 0 0 Z " fill="#EDBC44" transform="translate(127,384)"/>
<path d="M0 0 C4.91391269 4.91391269 4.232716 12.96140963 4.265625 19.4609375 C4 22 4 22 2 24 C1.93941406 23.01257813 1.87882812 22.02515625 1.81640625 21.0078125 C1.73261719 19.72648437 1.64882813 18.44515625 1.5625 17.125 C1.48128906 15.84882813 1.40007812 14.57265625 1.31640625 13.2578125 C1.20793973 10.11699848 1.20793973 10.11699848 0 8 C-0.13415472 5.3276379 -0.04318541 2.67749512 0 0 Z " fill="#5B292C" transform="translate(267,224)"/>
<path d="M0 0 C4.14268615 1.38089538 5.3752945 4.2623051 7.5625 7.8125 C7.96146484 8.44220703 8.36042969 9.07191406 8.77148438 9.72070312 C14 18.03919293 14 18.03919293 14 22 C14.66 22 15.32 22 16 22 C15.67 23.32 15.34 24.64 15 26 C14.57589844 25.17757812 14.15179688 24.35515625 13.71484375 23.5078125 C10.30243111 17.01297877 6.76290088 10.93557474 2.3828125 5.0234375 C1 3 1 3 0 0 Z " fill="#E8B754" transform="translate(252,198)"/>
<path d="M0 0 C-1.98 0.99 -1.98 0.99 -4 2 C-4 2.66 -4 3.32 -4 4 C-6 5.625 -6 5.625 -8 7 C-5.36 8.65 -2.72 10.3 0 12 C-3 13 -3 13 -4.82421875 12.22265625 C-6.54947917 11.1484375 -8.27473958 10.07421875 -10 9 C-9.67 6.36 -9.34 3.72 -9 1 C-2.25 -1.125 -2.25 -1.125 0 0 Z " fill="#511F31" transform="translate(222,154)"/>
<path d="M0 0 C-1.14597656 0.04898437 -2.29195313 0.09796875 -3.47265625 0.1484375 C-5.00262535 0.22352801 -6.53257218 0.29907306 -8.0625 0.375 C-9.19075195 0.42140625 -9.19075195 0.42140625 -10.34179688 0.46875 C-15.20622828 0.72144774 -19.34582592 1.58964422 -24 3 C-26.4375 2.625 -26.4375 2.625 -28 2 C-20.87632473 -2.74911685 -7.6144672 -4.370947 0 0 Z " fill="#D4A258" transform="translate(294,329)"/>
<path d="M0 0 C2.475 0.99 2.475 0.99 5 2 C5 2.66 5 3.32 5 4 C6.32 4.33 7.64 4.66 9 5 C8.67 4.01 8.34 3.02 8 2 C8.33 1.34 8.66 0.68 9 0 C9.66 0 10.32 0 11 0 C10.7834375 1.546875 10.7834375 1.546875 10.5625 3.125 C11.04643442 7.4112763 11.38661985 7.81273886 14.5 10.4375 C15.65123833 11.31234976 16.81346106 12.17366038 18 13 C17.67 13.66 17.34 14.32 17 15 C14.66069977 13.21568681 12.3286163 11.42315931 10 9.625 C9.33226562 9.11710937 8.66453125 8.60921875 7.9765625 8.0859375 C7.02910156 7.35117188 7.02910156 7.35117188 6.0625 6.6015625 C5.47597656 6.15119629 4.88945312 5.70083008 4.28515625 5.23681641 C3.86105469 4.82866699 3.43695313 4.42051758 3 4 C3 3.34 3 2.68 3 2 C2.01 1.67 1.02 1.34 0 1 C0 0.67 0 0.34 0 0 Z " fill="#592A34" transform="translate(341,114)"/>
<path d="M0 0 C-3.91942386 3.91942386 -9.17949698 5.14921351 -14.578125 5.36328125 C-16.13550811 5.36197472 -17.6929542 5.34493845 -19.25 5.3125 C-20.03890625 5.31572266 -20.8278125 5.31894531 -21.640625 5.32226562 C-25.72146797 5.28435239 -28.38061975 5.03274025 -32 3 C-31.43079834 3.01571045 -30.86159668 3.0314209 -30.27514648 3.04760742 C-27.66270126 3.11048439 -25.0504159 3.14915532 -22.4375 3.1875 C-21.54224609 3.21263672 -20.64699219 3.23777344 -19.72460938 3.26367188 C-12.6734086 3.3411576 -6.65691 -0.60517364 0 0 Z " fill="#EEBB58" transform="translate(304,403)"/>
<path d="M0 0 C3.72355269 3.66909488 7.2943376 7.44674879 10.8125 11.3125 C11.56563477 12.13717773 11.56563477 12.13717773 12.33398438 12.97851562 C13.55703968 14.31805239 14.77867008 15.65888992 16 17 C15.34 17.66 14.68 18.32 14 19 C14 18.34 14 17.68 14 17 C13.01 16.67 12.02 16.34 11 16 C10.71125 15.175 10.4225 14.35 10.125 13.5 C9.75375 12.675 9.3825 11.85 9 11 C6.45224694 10.10613836 6.45224694 10.10613836 4 10 C4 8.68 4 7.36 4 6 C3.34 6 2.68 6 2 6 C1.34 4.02 0.68 2.04 0 0 Z " fill="#5A2B2F" transform="translate(366,232)"/>
<path d="M0 0 C0.66 0 1.32 0 2 0 C0.3186083 6.48707154 -1.53062327 12.7677635 -4 19 C-4.66 19 -5.32 19 -6 19 C-6.99 15.7 -7.98 12.4 -9 9 C-8.01 9.33 -7.02 9.66 -6 10 C-6 11.32 -6 12.64 -6 14 C-5.34 14 -4.68 14 -4 14 C-3.79503906 13.15695312 -3.59007812 12.31390625 -3.37890625 11.4453125 C-2.97478516 9.80175781 -2.97478516 9.80175781 -2.5625 8.125 C-2.29566406 7.03445313 -2.02882813 5.94390625 -1.75390625 4.8203125 C-1 2 -1 2 0 0 Z " fill="#E4B05B" transform="translate(352,331)"/>
<path d="M0 0 C7.66065697 1.19697765 13.32757567 3.75300749 19 9 C18.01 9.495 18.01 9.495 17 10 C16.01 9.34 15.02 8.68 14 8 C14 7.34 14 6.68 14 6 C9.38 5.34 4.76 4.68 0 4 C0 2.68 0 1.36 0 0 Z " fill="#3C0F4E" transform="translate(308,310)"/>
<path d="M0 0 C0.66 0 1.32 0 2 0 C3.42952778 1.97176245 4.71953085 3.93388707 6 6 C6.45246094 6.69609375 6.90492188 7.3921875 7.37109375 8.109375 C11 13.74291785 11 13.74291785 11 16 C9 16 9 16 7.375 14.625 C6 13 6 13 6 11 C5.01 11 4.02 11 3 11 C3.33 10.01 3.66 9.02 4 8 C3.34 7.67 2.68 7.34 2 7 C1.26924352 4.6859378 0.59861742 2.35171131 0 0 Z " fill="#E6B645" transform="translate(326,204)"/>
<path d="M0 0 C0.33 0 0.66 0 1 0 C1.18318935 4.21335496 0.93936336 8.14608462 0.25 12.3125 C0.11078125 13.15425781 -0.0284375 13.99601562 -0.171875 14.86328125 C-1 17 -1 17 -3.015625 18.16796875 C-3.99789063 18.57982422 -3.99789063 18.57982422 -5 19 C-5.33 19.66 -5.66 20.32 -6 21 C-6.66 21 -7.32 21 -8 21 C-6.85248796 17.93996789 -5.52451334 15.07156068 -4 12.1875 C-1.96670119 8.20435868 -0.9353688 4.36505442 0 0 Z " fill="#5F3034" transform="translate(324,373)"/>
<path d="M0 0 C1.32 0 2.64 0 4 0 C2.64769187 2.79852655 1.16017618 5.43557489 -0.5 8.0625 C-0.9228125 8.73410156 -1.345625 9.40570313 -1.78125 10.09765625 C-2.83579211 11.74368832 -3.91563835 13.37345752 -5 15 C-5.37181347 9.91854918 -4.26899214 6.53798427 -2 2 C-1.34 1.34 -0.68 0.68 0 0 Z " fill="#EBB548" transform="translate(111,329)"/>
<path d="M0 0 C1.65 0 3.3 0 5 0 C5.33 0.99 5.66 1.98 6 3 C5.26394531 3.01933594 4.52789062 3.03867187 3.76953125 3.05859375 C-0.2937145 4.43975345 -1.44923561 7.445575 -3.3125 11.0625 C-3.67150391 11.72572266 -4.03050781 12.38894531 -4.40039062 13.07226562 C-5.28225977 14.70666311 -6.14320594 16.35231912 -7 18 C-8 15 -8 15 -6.34765625 11.42578125 C-5.59612277 10.04907832 -4.8339433 8.67814591 -4.0625 7.3125 C-3.48338867 6.2596582 -3.48338867 6.2596582 -2.89257812 5.18554688 C-1.93738227 3.45204328 -0.96984614 1.72534991 0 0 Z " fill="#511E32" transform="translate(110,264)"/>
<path d="M0 0 C0.33 1.32 0.66 2.64 1 4 C0.01 4.495 0.01 4.495 -1 5 C-0.34 6.65 0.32 8.3 1 10 C1.66 10 2.32 10 3 10 C2.67 10.66 2.34 11.32 2 12 C-0.97 10.02 -3.94 8.04 -7 6 C-6.01 5.01 -5.02 4.02 -4 3 C-3.34 3 -2.68 3 -2 3 C-2 2.34 -2 1.68 -2 1 C-1.34 0.67 -0.68 0.34 0 0 Z " fill="#E7B641" transform="translate(220,155)"/>
<path d="M0 0 C0 2 0 2 -1.42578125 3.47265625 C-2.04839844 3.99730469 -2.67101562 4.52195313 -3.3125 5.0625 C-3.92738281 5.58972656 -4.54226563 6.11695313 -5.17578125 6.66015625 C-7 8 -7 8 -10 9 C-12.1875 8.0625 -12.1875 8.0625 -14 7 C-12.04480616 5.82807953 -10.0857461 4.6626071 -8.125 3.5 C-7.03445313 2.8503125 -5.94390625 2.200625 -4.8203125 1.53125 C-2 0 -2 0 0 0 Z " fill="#55223A" transform="translate(442,228)"/>
<path d="M0 0 C0.75 1.5625 0.75 1.5625 1 4 C-0.13084437 6.50286409 -1.52139516 8.67007722 -3 11 C-3.66 11 -4.32 11 -5 11 C-5.144375 11.78375 -5.28875 12.5675 -5.4375 13.375 C-6 16 -6 16 -7 18 C-7.66 18 -8.32 18 -9 18 C-7.41579353 12.13843607 -4.37339097 4.37339097 0 0 Z " fill="#E4B24E" transform="translate(93,298)"/>
<path d="M0 0 C0.66 0 1.32 0 2 0 C2 0.99 2 1.98 2 3 C2.66 3 3.32 3 4 3 C5.7265625 5.44921875 5.7265625 5.44921875 7.625 8.6875 C8.25664062 9.74324219 8.88828125 10.79898438 9.5390625 11.88671875 C10.98140157 14.96036645 11.33361157 16.67006229 11 20 C8.89099247 17.2963014 7.13022996 14.5773804 5.5 11.5625 C4.11376118 9.01617613 2.7108483 6.53137483 1.1875 4.0625 C0 2 0 2 0 0 Z " fill="#4E202D" transform="translate(335,214)"/>
<path d="M0 0 C1.65 0 3.3 0 5 0 C5.33 1.32 5.66 2.64 6 4 C3.36 4.66 0.72 5.32 -2 6 C-2 6.66 -2 7.32 -2 8 C-3.98 8.33 -5.96 8.66 -8 9 C-5.51047079 6.33264727 -3.36591866 4.44253657 0 3 C0 2.01 0 1.02 0 0 Z " fill="#50213C" transform="translate(450,219)"/>
<path d="M0 0 C0.33 0 0.66 0 1 0 C1.33 6.27 1.66 12.54 2 19 C1.34 19.33 0.68 19.66 0 20 C-1.24591555 16.15348294 -1.14781806 12.30946388 -1.125 8.3125 C-1.12886719 7.62349609 -1.13273437 6.93449219 -1.13671875 6.22460938 C-1.12669335 1.12669335 -1.12669335 1.12669335 0 0 Z " fill="#5D2D2E" transform="translate(124,364)"/>
<path d="M0 0 C0.33 0 0.66 0 1 0 C1.3742382 4.36611234 0.33552636 6.366959 -2 10 C-3.06993734 12.30855849 -4.0308161 14.64626767 -5 17 C-5.66 17 -6.32 17 -7 17 C-6.37954537 12.76677156 -4.89476441 9.47709705 -2.9375 5.6875 C-2.38964844 4.61886719 -1.84179688 3.55023438 -1.27734375 2.44921875 C-0.64505859 1.23685547 -0.64505859 1.23685547 0 0 Z " fill="#552330" transform="translate(110,336)"/>
<path d="M0 0 C2.38564077 0.57584432 4.66682784 1.22227595 7 2 C7.309375 2.969375 7.61875 3.93875 7.9375 4.9375 C8.65404898 8.1112243 8.65404898 8.1112243 11.0625 9.125 C11.701875 9.41375 12.34125 9.7025 13 10 C13.75 12.125 13.75 12.125 14 14 C8.8023806 9.76937956 3.88476156 5.52045063 0 0 Z " fill="#E8B64E" transform="translate(352,218)"/>
<path d="M0 0 C3.79303725 1.00193437 6.71536341 1.81024227 10 4 C10 5.32 10 6.64 10 8 C10.99 8.33 11.98 8.66 13 9 C12.34 9.66 11.68 10.32 11 11 C9.8274869 10.04882866 8.66212985 9.08882991 7.5 8.125 C6.8503125 7.59132812 6.200625 7.05765625 5.53125 6.5078125 C5.0259375 6.01023438 4.520625 5.51265625 4 5 C4 4.34 4 3.68 4 3 C2.68 2.34 1.36 1.68 0 1 C0 0.67 0 0.34 0 0 Z " fill="#E6B447" transform="translate(340,207)"/>
<path d="M0 0 C0.4846875 0.38671875 0.969375 0.7734375 1.46875 1.171875 C6.11212416 4.77941954 10.66713323 7.52402614 16 10 C13.66266335 10.80867674 12.38955431 11.12401827 10 10.36328125 C6.14032901 8.3354463 2.72168997 6.51551621 0 3 C0 2.01 0 1.02 0 0 Z " fill="#4D1C2C" transform="translate(254,396)"/>
<path d="M0 0 C2.5654594 2.5654594 2.54046087 4.47686668 3 8 C3.66 8 4.32 8 5 8 C6.2890625 9.75 6.2890625 9.75 7.625 12 C8.07101563 12.7425 8.51703125 13.485 8.9765625 14.25 C9.31429687 14.8275 9.65203125 15.405 10 16 C9.34 16.33 8.68 16.66 8 17 C7.67 16.34 7.34 15.68 7 15 C6.01 14.67 5.02 14.34 4 14 C2.9375 11.75 2.9375 11.75 2 9 C1.62875 8.154375 1.2575 7.30875 0.875 6.4375 C0 4 0 4 0 0 Z " fill="#5B2C2F" transform="translate(126,384)"/>
<path d="M0 0 C2.31 0 4.62 0 7 0 C7.77842938 3.40562852 8.09978121 6.50765756 8 10 C4.74475735 6.97727468 2.38179263 3.74281699 0 0 Z " fill="#E9B343" transform="translate(212,326)"/>
<path d="M0 0 C4.51045941 2.46025059 8.18504423 5.60282037 12 9 C11.01 9.495 11.01 9.495 10 10 C9.67 10.99 9.34 11.98 9 13 C8.60167969 12.45730469 8.20335937 11.91460937 7.79296875 11.35546875 C7.26316406 10.64003906 6.73335938 9.92460937 6.1875 9.1875 C5.66542969 8.47980469 5.14335937 7.77210938 4.60546875 7.04296875 C3.06893533 4.99125475 3.06893533 4.99125475 1.30078125 3.36328125 C0 2 0 2 0 0 Z " fill="#69311B" transform="translate(312,184)"/>
<path d="M0 0 C0.66 0.33 1.32 0.66 2 1 C1.01 2.485 1.01 2.485 0 4 C-0.99 4 -1.98 4 -3 4 C-3.33 4.99 -3.66 5.98 -4 7 C-5.1875 8.6875 -5.1875 8.6875 -7 10 C-10.1875 10.1875 -10.1875 10.1875 -13 10 C-10.53511103 7.33857503 -7.79550348 5.36573616 -4.8125 3.3125 C-3.91144531 2.68988281 -3.01039063 2.06726563 -2.08203125 1.42578125 C-1.39496094 0.95527344 -0.70789063 0.48476562 0 0 Z " fill="#D8A84B" transform="translate(234,145)"/>
<path d="M0 0 C-0.3125 1.875 -0.3125 1.875 -1 4 C-4 6 -4 6 -8 6 C-8.33 6.66 -8.66 7.32 -9 8 C-10.65 8 -12.3 8 -14 8 C-4.57142857 0 -4.57142857 0 0 0 Z " fill="#E4B249" transform="translate(250,137)"/>
<path d="M0 0 C-3.07150755 2.55227651 -5.98525624 3.88776704 -9.75 5.1875 C-10.73484375 5.53167969 -11.7196875 5.87585938 -12.734375 6.23046875 C-13.48203125 6.48441406 -14.2296875 6.73835938 -15 7 C-15 6.34 -15 5.68 -15 5 C-10.22062976 0.49373663 -6.39067813 -0.1825908 0 0 Z " fill="#512032" transform="translate(320,100)"/>
<path d="M0 0 C0.6875 1.6875 0.6875 1.6875 1 4 C-0.29646396 6.93410266 -1.09847172 8.59021442 -4.0625 9.9375 C-5.0215625 9.9684375 -5.0215625 9.9684375 -6 10 C-8.5654594 7.4345406 -8.54046087 5.52313332 -9 2 C-7.62437146 3.28965176 -6.29233607 4.62689293 -5 6 C-5 6.66 -5 7.32 -5 8 C-4.34 8 -3.68 8 -3 8 C-2.87625 7.4225 -2.7525 6.845 -2.625 6.25 C-1.99351176 3.97664233 -1.11141809 2.0746471 0 0 Z " fill="#5E2C30" transform="translate(228,334)"/>
<path d="M0 0 C2.31 0.33 4.62 0.66 7 1 C6.15695313 1.62841797 6.15695313 1.62841797 5.296875 2.26953125 C2.92968468 4.05297566 0.58763522 5.86551961 -1.75 7.6875 C-2.54921875 8.31011719 -3.3484375 8.93273437 -4.171875 9.57421875 C-4.77515625 10.04472656 -5.3784375 10.51523437 -6 11 C-6.33 10.01 -6.66 9.02 -7 8 C-2.25 4 -2.25 4 0 4 C0 2.68 0 1.36 0 0 Z " fill="#EBB94E" transform="translate(247,309)"/>
<path d="M0 0 C1.258125 0.12375 2.51625 0.2475 3.8125 0.375 C4.87404297 0.47941406 4.87404297 0.47941406 5.95703125 0.5859375 C8 1 8 1 11 3 C12.65549531 3.38499891 14.3222433 3.72793135 16 4 C16 4.66 16 5.32 16 6 C16.99 6.33 17.98 6.66 19 7 C18.01 7.495 18.01 7.495 17 8 C14.609375 7.07421875 14.609375 7.07421875 11.75 5.6875 C7.88254027 3.85795269 4.11090936 2.22216224 0 1 C0 0.67 0 0.34 0 0 Z " fill="#622F30" transform="translate(116,267)"/>
<path d="M0 0 C2.93200474 2.85276137 5.64315404 5.65079784 8 9 C7.34 10.32 6.68 11.64 6 13 C5.01 13 4.02 13 3 13 C2.87625 11.783125 2.7525 10.56625 2.625 9.3125 C2.21108694 5.93520941 1.45426549 3.10243305 0 0 Z " fill="#4B1E42" transform="translate(382,250)"/>
<path d="M0 0 C5.23435005 4.27293882 9.67106815 8.81580806 14 14 C13.01 14.33 12.02 14.66 11 15 C10.46375 14.113125 9.9275 13.22625 9.375 12.3125 C7.76791346 9.86442911 6.12587319 8.16438023 3.8125 6.375 C0.93338095 3.94374392 0.6056452 3.45874488 0 0 Z " fill="#572729" transform="translate(205,320)"/>
<path d="M0 0 C7.92 0 15.84 0 24 0 C20 3 20 3 16 3 C16 2.34 16 1.68 16 1 C10.72 1 5.44 1 0 1 C0 0.67 0 0.34 0 0 Z " fill="#F1BD4C" transform="translate(176,283)"/>
<path d="M0 0 C4.82034262 0.41317222 6.90992611 2.38019915 10 6 C10 6.66 10 7.32 10 8 C10.66 8.33 11.32 8.66 12 9 C8.0557333 9 7.17603973 7.68625863 4.3125 5.0625 C3.50425781 4.33160156 2.69601563 3.60070312 1.86328125 2.84765625 C1.24839844 2.23792969 0.63351563 1.62820312 0 1 C0 0.67 0 0.34 0 0 Z " fill="#D9A84B" transform="translate(223,167)"/>
<path d="M0 0 C-2.28874173 1.33858524 -4.58069656 2.67101014 -6.875 4 C-7.52597656 4.3815625 -8.17695313 4.763125 -8.84765625 5.15625 C-13.7734375 8 -13.7734375 8 -16 8 C-16 7.34 -16 6.68 -16 6 C-13.04518508 3.25624329 -12.22528092 3 -8 3 C-8 2.34 -8 1.68 -8 1 C-3.375 -1.125 -3.375 -1.125 0 0 Z " fill="#4C1F2C" transform="translate(250,137)"/>
<path d="M0 0 C0.99 0.33 1.98 0.66 3 1 C0.71125827 2.33858524 -1.58069656 3.67101014 -3.875 5 C-4.52597656 5.3815625 -5.17695313 5.763125 -5.84765625 6.15625 C-10.7734375 9 -10.7734375 9 -13 9 C-13 8.34 -13 7.68 -13 7 C-11.68 6.67 -10.36 6.34 -9 6 C-9 5.34 -9 4.68 -9 4 C-8.43410156 3.79503906 -7.86820312 3.59007813 -7.28515625 3.37890625 C-6.55167969 3.10949219 -5.81820313 2.84007813 -5.0625 2.5625 C-4.33160156 2.29566406 -3.60070312 2.02882813 -2.84765625 1.75390625 C-1.01694322 1.14613052 -1.01694322 1.14613052 0 0 Z " fill="#4E1E2D" transform="translate(269,123)"/>
<path d="M0 0 C0.66 0.33 1.32 0.66 2 1 C-0.102379 4.1535685 -1.91143266 5.17834426 -5.1796875 6.94921875 C-7.66501065 8.38387954 -9.81620034 10.14707907 -12 12 C-12.66 11.67 -13.32 11.34 -14 11 C-12.625 9.5 -12.625 9.5 -11 8 C-10.34 8 -9.68 8 -9 8 C-9 7.34 -9 6.68 -9 6 C-7.03125 4.4921875 -7.03125 4.4921875 -4.5 2.875 C-3.24703125 2.06675781 -3.24703125 2.06675781 -1.96875 1.2421875 C-0.99421875 0.62730469 -0.99421875 0.62730469 0 0 Z " fill="#59282B" transform="translate(132,315)"/>
<path d="M0 0 C1.98 0.66 3.96 1.32 6 2 C6 2.66 6 3.32 6 4 C7.32 4 8.64 4 10 4 C10.103125 4.639375 10.20625 5.27875 10.3125 5.9375 C10.6528125 6.9584375 10.6528125 6.9584375 11 8 C11.99 8.33 12.98 8.66 14 9 C13.67 9.66 13.34 10.32 13 11 C11.5805831 9.92027262 10.1645917 8.83604137 8.75 7.75 C7.96109375 7.14671875 7.1721875 6.5434375 6.359375 5.921875 C4.08368843 4.06817005 2.03628442 2.11101046 0 0 Z " fill="#56252F" transform="translate(327,103)"/>
<path d="M0 0 C0.33 0.99 0.66 1.98 1 3 C-3.89839001 6.89359206 -7.7950962 7.7242265 -14 8 C-11.0582655 6.03884366 -8.10902671 4.53770992 -4.9375 3 C-2.76836495 1.92596291 -2.76836495 1.92596291 0 0 Z " fill="#622F32" transform="translate(310,399)"/>
<path d="M0 0 C-1.1094072 3.48670834 -2.26337666 6.77484237 -4 10 C-4.66 10 -5.32 10 -6 10 C-6.625 8.1875 -6.625 8.1875 -7 6 C-3 0 -3 0 0 0 Z " fill="#552539" transform="translate(88,306)"/>
<path d="M0 0 C3.66415876 2.06312314 6.70548128 4.35872176 9.8125 7.1875 C10.60269531 7.90292969 11.39289063 8.61835938 12.20703125 9.35546875 C12.79871094 9.89816406 13.39039063 10.44085938 14 11 C13.01 11.33 12.02 11.66 11 12 C7.8125 9.6875 7.8125 9.6875 5 7 C5 6.34 5 5.68 5 5 C4.360625 4.731875 3.72125 4.46375 3.0625 4.1875 C1 3 1 3 0 0 Z " fill="#E8B753" transform="translate(368,138)"/>
<path d="M0 0 C0.33 0.99 0.66 1.98 1 3 C0.2575 3.556875 -0.485 4.11375 -1.25 4.6875 C-3.91707995 6.93027178 -5.91556232 9.22074975 -8 12 C-9.32 11.67 -10.64 11.34 -12 11 C-8.25 8 -8.25 8 -6 8 C-5.67 7.01 -5.34 6.02 -5 5 C-4.34 5 -3.68 5 -3 5 C-3 4.34 -3 3.68 -3 3 C-2.34 3 -1.68 3 -1 3 C-0.67 2.01 -0.34 1.02 0 0 Z " fill="#5E2E2D" transform="translate(198,395)"/>
<path d="M0 0 C0.33 0 0.66 0 1 0 C1.1799928 5.21979128 0.97094808 9.07262981 -1 14 C-1.99 14 -2.98 14 -4 14 C-3.52188823 12.22888156 -3.0424722 10.45811517 -2.5625 8.6875 C-2.29566406 7.70136719 -2.02882813 6.71523438 -1.75390625 5.69921875 C-1.21920575 3.78482474 -0.62855462 1.88566385 0 0 Z " fill="#522039" transform="translate(354,330)"/>
<path d="M0 0 C0.66 0 1.32 0 2 0 C0.51194289 5.80342274 -2.59097555 10.17590879 -6 15 C-7 12 -7 12 -6.22265625 10.17578125 C-5.1484375 8.45052083 -4.07421875 6.72526042 -3 5 C-2.34 5 -1.68 5 -1 5 C-0.67 3.35 -0.34 1.7 0 0 Z " fill="#4B1A2E" transform="translate(80,316)"/>
<path d="M0 0 C1.38228901 3.14156592 0.91178547 4.23943945 -0.3125 7.5625 C-2 11 -2 11 -4 14 C-4.99 13.67 -5.98 13.34 -7 13 C-6.34 12.01 -5.68 11.02 -5 10 C-4.34 10 -3.68 10 -3 10 C-2.814375 8.9171875 -2.814375 8.9171875 -2.625 7.8125 C-2.0095069 5.04278106 -1.11555626 2.6029646 0 0 Z " fill="#CD9D48" transform="translate(270,246)"/>
<path d="M0 0 C0.99 0.33 1.98 0.66 3 1 C-0.66666667 4.66666667 -4.33333333 8.33333333 -8 12 C-7.49259538 7.60249328 -4.91706686 5.13051078 -2 2 C-1.34 2 -0.68 2 0 2 C0 1.34 0 0.68 0 0 Z " fill="#E4B54C" transform="translate(237,320)"/>
<path d="M0 0 C0.66 0.33 1.32 0.66 2 1 C0.948125 1.556875 -0.10375 2.11375 -1.1875 2.6875 C-3.93500962 4.22743483 -5.44150772 5.46204296 -7.6875 7.8125 C-8.450625 8.534375 -9.21375 9.25625 -10 10 C-12.14453125 9.63671875 -12.14453125 9.63671875 -14 9 C-5.21656051 2.11146497 -5.21656051 2.11146497 0 0 Z " fill="#612D2C" transform="translate(256,309)"/>
<path d="M0 0 C0 0.33 0 0.66 0 1 C-1.12019531 1.27714844 -2.24039063 1.55429687 -3.39453125 1.83984375 C-4.86720302 2.20566667 -6.33985842 2.57155553 -7.8125 2.9375 C-8.55048828 3.11990234 -9.28847656 3.30230469 -10.04882812 3.49023438 C-13.07060984 4.2422615 -16.04456718 5.01485573 -19 6 C-19 5.34 -19 4.68 -19 4 C-12.55037018 0.46805986 -7.29262627 -0.14585253 0 0 Z " fill="#D8A552" transform="translate(156,307)"/>
<path d="M0 0 C-0.33 1.65 -0.66 3.3 -1 5 C-1.721875 4.979375 -2.44375 4.95875 -3.1875 4.9375 C-5.91925138 4.99820559 -8.34256091 5.39258535 -11 6 C-8.24029211 2.78034079 -4.3526723 0 0 0 Z " fill="#DEAA4B" transform="translate(286,117)"/>
<path d="M0 0 C2.45605371 2.55274874 2.98802939 3.85890643 3.29296875 7.453125 C3.25816406 8.70609375 3.22335937 9.9590625 3.1875 11.25 C3.16042969 12.51328125 3.13335937 13.7765625 3.10546875 15.078125 C3.07066406 16.04234375 3.03585937 17.0065625 3 18 C2.67 18 2.34 18 2 18 C1.66191314 15.93827387 1.32972639 13.8755797 1 11.8125 C0.814375 10.66394531 0.62875 9.51539063 0.4375 8.33203125 C0.06510523 5.49584607 -0.08596021 2.85280436 0 0 Z " fill="#E6B44D" transform="translate(321,352)"/>
<path d="M0 0 C0.66 0.33 1.32 0.66 2 1 C1.06915029 2.77433812 0.13005387 4.54435149 -0.8125 6.3125 C-1.33457031 7.29863281 -1.85664062 8.28476562 -2.39453125 9.30078125 C-3.7719876 11.61665068 -4.99530591 13.23611001 -7 15 C-6.42176904 10.93774452 -5.10882263 8.15237654 -2.9375 4.6875 C-2.38964844 3.80449219 -1.84179688 2.92148437 -1.27734375 2.01171875 C-0.64505859 1.01591797 -0.64505859 1.01591797 0 0 Z " fill="#4B192C" transform="translate(96,289)"/>
<path d="M0 0 C2.75 0.125 2.75 0.125 6 1 C8.375 4.0625 8.375 4.0625 10 7 C9.67 7.66 9.34 8.32 9 9 C7 7.625 7 7.625 5 6 C5 5.34 5 4.68 5 4 C4.360625 3.71125 3.72125 3.4225 3.0625 3.125 C1 2 1 2 0 0 Z " fill="#502032" transform="translate(395,161)"/>
<path d="M0 0 C2.55263088 2.274694 3.84144815 4.43202693 5.1875 7.5625 C5.53167969 8.34753906 5.87585938 9.13257813 6.23046875 9.94140625 C7 12 7 12 7 14 C4 13 4 13 2.83203125 11.07421875 C2.49558594 10.28660156 2.15914063 9.49898437 1.8125 8.6875 C1.46832031 7.90761719 1.12414062 7.12773437 0.76953125 6.32421875 C0 4 0 4 0 0 Z " fill="#E1B052" transform="translate(345,234)"/>
<path d="M0 0 C3.83520308 3.28731693 6.32465344 7.25147171 8 12 C7.67 12.66 7.34 13.32 7 14 C5 11 5 11 5 8 C4.34 8 3.68 8 3 8 C0.25624329 5.04518508 0 4.22528092 0 0 Z " fill="#D8A753" transform="translate(337,220)"/>
<path d="M0 0 C4.05606165 0.46800711 7.46588679 0.87953208 11 3 C11 3.66 11 4.32 11 5 C6.62886504 4.49172849 3.61004338 3.54826592 0 1 C0 0.67 0 0.34 0 0 Z " fill="#E1AF4D" transform="translate(261,401)"/>
<path d="M0 0 C0.33 0.99 0.66 1.98 1 3 C-0.8125 5.6875 -0.8125 5.6875 -3 8 C-3.66 8 -4.32 8 -5 8 C-5.33 9.65 -5.66 11.3 -6 13 C-6.66 13 -7.32 13 -8 13 C-7.34 11.02 -6.68 9.04 -6 7 C-5.34 7 -4.68 7 -4 7 C-3.71125 6.21625 -3.4225 5.4325 -3.125 4.625 C-2 2 -2 2 0 0 Z " fill="#D8A853" transform="translate(255,339)"/>
<path d="M0 0 C9.73995772 -0.57293869 9.73995772 -0.57293869 14 3 C14 3.66 14 4.32 14 5 C12.41531323 4.54636829 10.83230076 4.08688548 9.25 3.625 C8.36828125 3.36976563 7.4865625 3.11453125 6.578125 2.8515625 C4.23919428 2.0790066 2.16557438 1.16374324 0 0 Z " fill="#53232A" transform="translate(290,327)"/>
<path d="M0 0 C2.97 0.33 5.94 0.66 9 1 C8.67 2.65 8.34 4.3 8 6 C8.99 6.33 9.98 6.66 11 7 C10.67 7.66 10.34 8.32 10 9 C8.33043913 7.69118353 6.66441696 6.37785174 5 5.0625 C4.071875 4.33160156 3.14375 3.60070312 2.1875 2.84765625 C1.465625 2.23792969 0.74375 1.62820313 0 1 C0 0.67 0 0.34 0 0 Z " fill="#E4B44B" transform="translate(320,313)"/>
<path d="M0 0 C-3.63 2.31 -7.26 4.62 -11 7 C-11.33 6.01 -11.66 5.02 -12 4 C-9 2 -9 2 -6 2 C-6 1.34 -6 0.68 -6 0 C-4 -1 -4 -1 0 0 Z " fill="#E1AB51" transform="translate(136,314)"/>
<path d="M0 0 C5.19822672 1.36144033 8.09543873 3.46730171 12 7 C11.34 7.66 10.68 8.32 10 9 C8.2925002 7.71937515 6.62626404 6.38232443 5 5 C5 4.34 5 3.68 5 3 C3.35 2.67 1.7 2.34 0 2 C0 1.34 0 0.68 0 0 Z " fill="#E3AE51" transform="translate(182,335)"/>
<path d="M0 0 C-0.21484375 1.890625 -0.21484375 1.890625 -1 4 C-3.06640625 5.046875 -3.06640625 5.046875 -5.5625 5.75 C-6.80193359 6.11351562 -6.80193359 6.11351562 -8.06640625 6.484375 C-9.02353516 6.73960937 -9.02353516 6.73960937 -10 7 C-3.18421053 0 -3.18421053 0 0 0 Z " fill="#DCAA49" transform="translate(266,332)"/>
<path d="M0 0 C5.06998019 0.65419099 9.41990777 2.8546409 14 5 C9.55770469 6.46449296 7.16087144 4.96695741 3 3 C2.01 2.67 1.02 2.34 0 2 C0 1.34 0 0.68 0 0 Z " fill="#E2B154" transform="translate(294,329)"/>
<path d="M0 0 C5.63689034 1.32632714 7.93185683 5.46631765 11 10 C10.67 10.66 10.34 11.32 10 12 C8.33032474 10.19019128 6.66417692 8.3773524 5 6.5625 C4.28457031 5.7880957 4.28457031 5.7880957 3.5546875 4.99804688 C0 1.11328125 0 1.11328125 0 0 Z " fill="#521F2A" transform="translate(431,197)"/>
<path d="M0 0 C7.48291572 6.15034169 7.48291572 6.15034169 10 10 C7.625 9.8125 7.625 9.8125 5 9 C3.875 6.5 3.875 6.5 3 4 C2.01 3.67 1.02 3.34 0 3 C0 2.01 0 1.02 0 0 Z " fill="#DDAA4D" transform="translate(412,178)"/>
<path d="M0 0 C1.98 0.66 3.96 1.32 6 2 C6.33 1.34 6.66 0.68 7 0 C7.33 2.64 7.66 5.28 8 8 C3.96615872 5.92856799 2.07143201 4.03384128 0 0 Z " fill="#4C1D34" transform="translate(413,178)"/>
<path d="M0 0 C-0.6484375 1.953125 -0.6484375 1.953125 -2 4 C-4.6015625 4.609375 -4.6015625 4.609375 -7.625 4.75 C-8.62789062 4.80671875 -9.63078125 4.8634375 -10.6640625 4.921875 C-11.43492187 4.94765625 -12.20578125 4.9734375 -13 5 C-10.54278328 3.36185552 -8.65432189 2.38047801 -5.9375 1.375 C-5.24527344 1.11460937 -4.55304688 0.85421875 -3.83984375 0.5859375 C-2 0 -2 0 0 0 Z " fill="#602D2E" transform="translate(186,407)"/>
<path d="M0 0 C0 0.99 0 1.98 0 3 C-2.75 5.25 -2.75 5.25 -6 7 C-7.32 6.67 -8.64 6.34 -10 6 C-6.7 4.02 -3.4 2.04 0 0 Z " fill="#5E2B2E" transform="translate(406,248)"/>
<path d="M0 0 C3.92582871 1.30860957 6.3987937 2.74849213 9 6 C9.75 8.75 9.75 8.75 10 11 C6.40365256 7.50640535 3.16548033 3.88901869 0 0 Z " fill="#DEAC50" transform="translate(376,243)"/>
<path d="M0 0 C2.74931827 0.68732957 4.53418821 1.35560222 6.22265625 3.69140625 C7.20324656 5.43116325 8.10688055 7.2137611 9 9 C8.01 9 7.02 9 6 9 C6 8.34 6 7.68 6 7 C5.01 6.67 4.02 6.34 3 6 C0 2.55555556 0 2.55555556 0 0 Z " fill="#3F115C" transform="translate(325,197)"/>
<path d="M0 0 C2.8842454 0.34485543 3.8207818 0.78255407 5.703125 3.06640625 C6.21359375 3.89011719 6.7240625 4.71382812 7.25 5.5625 C8.03117188 6.80193359 8.03117188 6.80193359 8.828125 8.06640625 C9.21484375 8.70449219 9.6015625 9.34257812 10 10 C9.67 10.66 9.34 11.32 9 12 C7.68527053 10.37680325 6.37328338 8.751385 5.0625 7.125 C4.33160156 6.22007812 3.60070312 5.31515625 2.84765625 4.3828125 C1 2 1 2 0 0 Z " fill="#EAB753" transform="translate(240,183)"/>
<path d="M0 0 C0.99 0.33 1.98 0.66 3 1 C2.67 1.66 2.34 2.32 2 3 C2.66 3.33 3.32 3.66 4 4 C3.01 4.66 2.02 5.32 1 6 C-0.32 5.34 -1.64 4.68 -3 4 C-2.01 2.68 -1.02 1.36 0 0 Z " fill="#481A40" transform="translate(315,394)"/>
<path d="M0 0 C2.31 0.66 4.62 1.32 7 2 C7.33 3.98 7.66 5.96 8 8 C3.96615872 5.92856799 2.07143201 4.03384128 0 0 Z " fill="#4F1F31" transform="translate(405,170)"/>
<path d="M0 0 C-1.98 0.99 -1.98 0.99 -4 2 C-4 2.66 -4 3.32 -4 4 C-5.65 4 -7.3 4 -9 4 C-8.67 2.68 -8.34 1.36 -8 0 C-2.25 -1.125 -2.25 -1.125 0 0 Z " fill="#481B35" transform="translate(222,154)"/>
<path d="M0 0 C2 0 2 0 4.375 2.25 C5.24125 3.1575 6.1075 4.065 7 5 C8.1446875 6.1446875 8.1446875 6.1446875 9.3125 7.3125 C9.869375 7.869375 10.42625 8.42625 11 9 C10.01 9.495 10.01 9.495 9 10 C9 9.34 9 8.68 9 8 C8.443125 7.938125 7.88625 7.87625 7.3125 7.8125 C4.00931958 6.6519231 2.28105267 4.59786554 0 2 C0 1.34 0 0.68 0 0 Z " fill="#E9B652" transform="translate(342,116)"/>
<path d="M0 0 C0.33 0.66 0.66 1.32 1 2 C-0.26257233 3.17560179 -1.53537084 4.34022865 -2.8125 5.5 C-3.87404297 6.47453125 -3.87404297 6.47453125 -4.95703125 7.46875 C-7 9 -7 9 -10 9 C-8.71142987 7.68445979 -7.41904109 6.37265903 -6.125 5.0625 C-5.04605469 3.96615234 -5.04605469 3.96615234 -3.9453125 2.84765625 C-2 1 -2 1 0 0 Z " fill="#DBA951" transform="translate(144,336)"/>
<path d="M0 0 C3 3 6 6 9 9 C8.67 9.66 8.34 10.32 8 11 C1.29540481 5.9059081 1.29540481 5.9059081 0.0625 2.125 C0.041875 1.42375 0.02125 0.7225 0 0 Z " fill="#713D31" transform="translate(236,179)"/>
<path d="M0 0 C4.43090471 1.20842856 6.98112756 2.51668565 10 6 C9.67 6.66 9.34 7.32 9 8 C8.608125 7.566875 8.21625 7.13375 7.8125 6.6875 C5.98203003 4.86417371 5.98203003 4.86417371 3.375 3.4375 C1 2 1 2 0 0 Z " fill="#DBAB4F" transform="translate(200,316)"/>
<path d="M0 0 C1.66666667 0 3.33333333 0 5 0 C4.39816251 2.02045442 3.72693904 4.02111039 3 6 C2.01 6.495 2.01 6.495 1 7 C1 5.68 1 4.36 1 3 C0.34 3 -0.32 3 -1 3 C-0.67 2.01 -0.34 1.02 0 0 Z " fill="#4D1E38" transform="translate(97,282)"/>
<path d="M0 0 C-1.12073862 0.83905565 -2.24674547 1.67107831 -3.375 2.5 C-4.00148438 2.9640625 -4.62796875 3.428125 -5.2734375 3.90625 C-7 5 -7 5 -9 5 C-8.67 3.35 -8.34 1.7 -8 0 C-4.71303767 -0.79953138 -3.28976808 -1.09658936 0 0 Z " fill="#EFBC4E" transform="translate(403,250)"/>
<path d="M0 0 C3.98175544 2.10148204 6.35039045 4.36905358 9 8 C7.68 7.67 6.36 7.34 5 7 C5 6.34 5 5.68 5 5 C3.68 4.67 2.36 4.34 1 4 C0.67 2.68 0.34 1.36 0 0 Z " fill="#592631" transform="translate(330,199)"/>
<path d="M0 0 C0.66 0 1.32 0 2 0 C2 0.66 2 1.32 2 2 C2.928125 2.37125 2.928125 2.37125 3.875 2.75 C6.35068687 4.20628639 6.95125002 5.37812506 8 8 C4.20645982 6.50968064 2.3521464 4.27620391 0 1 C0 0.67 0 0.34 0 0 Z " fill="#DFAC52" transform="translate(252,392)"/>
<path d="M0 0 C0.66 0.33 1.32 0.66 2 1 C1.21654285 2.17219543 0.42297164 3.33763668 -0.375 4.5 C-0.81585938 5.1496875 -1.25671875 5.799375 -1.7109375 6.46875 C-2.13632812 6.9740625 -2.56171875 7.479375 -3 8 C-3.66 8 -4.32 8 -5 8 C-5.33 7.01 -5.66 6.02 -6 5 C-5.01 5 -4.02 5 -3 5 C-2.5359375 4.0409375 -2.5359375 4.0409375 -2.0625 3.0625 C-1 1 -1 1 0 0 Z " fill="#EAB74D" transform="translate(315,391)"/>
<path d="M0 0 C2.475 0.99 2.475 0.99 5 2 C5 1.34 5 0.68 5 0 C5.66 0 6.32 0 7 0 C6.34 1.98 5.68 3.96 5 6 C4.34 6 3.68 6 3 6 C2.01 4.02 1.02 2.04 0 0 Z " fill="#E7B55B" transform="translate(220,336)"/>
<path d="M0 0 C3.37503669 1.1858237 5.64722731 2.27573689 8 5 C7.67 5.99 7.34 6.98 7 8 C5.5 6.625 5.5 6.625 4 5 C4 4.34 4 3.68 4 3 C2.68 2.34 1.36 1.68 0 1 C0 0.67 0 0.34 0 0 Z " fill="#572731" transform="translate(308,334)"/>
<path d="M0 0 C0.33 0.99 0.66 1.98 1 3 C0.01 3.33 -0.98 3.66 -2 4 C-2 5.32 -2 6.64 -2 8 C-3.32 8.33 -4.64 8.66 -6 9 C-4.47291037 5.56404834 -2.40072955 2.88087546 0 0 Z " fill="#5C2E30" transform="translate(235,325)"/>
<path d="M0 0 C2.64 1.98 5.28 3.96 8 6 C6.68 6.33 5.36 6.66 4 7 C0 2.25 0 2.25 0 0 Z " fill="#ECB84C" transform="translate(353,125)"/>
<path d="M0 0 C-1 2 -2 4 -3 6 C-3.66 6 -4.32 6 -5 6 C-5.33 6.66 -5.66 7.32 -6 8 C-6 6.68 -6 5.36 -6 4 C-5.34 4 -4.68 4 -4 4 C-4 3.01 -4 2.02 -4 1 C-2 0 -2 0 0 0 Z " fill="#E3B151" transform="translate(200,392)"/>
<path d="M0 0 C-0.33 1.65 -0.66 3.3 -1 5 C-1.99 5 -2.98 5 -4 5 C-4.66 4.34 -5.32 3.68 -6 3 C-2.25 0 -2.25 0 0 0 Z " fill="#FDC837" transform="translate(147,337)"/>
<path d="M0 0 C-3.53411321 2.12046792 -6.94393835 2.53199289 -11 3 C-10 1 -10 1 -7.75 -0.1875 C-4.69751418 -1.08937081 -3.02265546 -0.86361585 0 0 Z " fill="#D19F4C" transform="translate(157,333)"/>
<path d="M0 0 C4.41889613 1.35021826 6.34345343 3.26115668 9 7 C6.525 6.01 6.525 6.01 4 5 C4 4.34 4 3.68 4 3 C2.35 2.67 0.7 2.34 -1 2 C-0.67 1.34 -0.34 0.68 0 0 Z " fill="#552530" transform="translate(318,313)"/>
<path d="M0 0 C6.52307692 0.61538462 6.52307692 0.61538462 8.9375 2.5625 C9.288125 3.036875 9.63875 3.51125 10 4 C9.01 4.495 9.01 4.495 8 5 C6.0546875 4.22265625 6.0546875 4.22265625 3.875 3.0625 C3.15054687 2.68222656 2.42609375 2.30195313 1.6796875 1.91015625 C1.12539063 1.60980469 0.57109375 1.30945313 0 1 C0 0.67 0 0.34 0 0 Z " fill="#DEAD4E" transform="translate(310,308)"/>
<path d="M0 0 C0.66 0 1.32 0 2 0 C3.8597711 2.59240819 5.57205423 5.14410847 7 8 C5.35 7.67 3.7 7.34 2 7 C1.34 4.69 0.68 2.38 0 0 Z " fill="#E2AE50" transform="translate(326,204)"/>
<path d="M0 0 C0.99 0.33 1.98 0.66 3 1 C3.33 2.98 3.66 4.96 4 7 C2.0625 6.25 2.0625 6.25 0 5 C-0.8125 2.9375 -0.8125 2.9375 -1 1 C-0.67 0.67 -0.34 0.34 0 0 Z " fill="#EDBB37" transform="translate(409,176)"/>
<path d="M0 0 C1.65 0 3.3 0 5 0 C3.02 2.31 1.04 4.62 -1 7 C-1 4.37886292 -0.68707555 2.49064888 0 0 Z " fill="#5A2A34" transform="translate(136,338)"/>
<path d="M0 0 C0.93065133 2.60582371 1.14917407 3.64198224 0.0625 6.25 C-0.4634375 7.11625 -0.4634375 7.11625 -1 8 C-1.66 8 -2.32 8 -3 8 C-2.25 2.25 -2.25 2.25 0 0 Z " fill="#5D2D35" transform="translate(71,332)"/>
<path d="M0 0 C4.7517398 0.43197635 6.92000054 1.32769295 10 5 C6.08788267 3.84414715 3.1254959 2.64465038 0 0 Z " fill="#53212C" transform="translate(176,331)"/>
<path d="M0 0 C0 0.33 0 0.66 0 1 C-7.42857143 3.42857143 -7.42857143 3.42857143 -11 2 C-7.06425135 -0.62383243 -4.54354105 -1.51451368 0 0 Z " fill="#CF9B4F" transform="translate(277,329)"/>
<path d="M0 0 C0 3 0 3 -1.3125 4.38671875 C-2.875 5.59114583 -4.4375 6.79557292 -6 8 C-6.33 7.34 -6.66 6.68 -7 6 C-6.34 6 -5.68 6 -5 6 C-4.731875 5.38125 -4.46375 4.7625 -4.1875 4.125 C-3 2 -3 2 0 0 Z " fill="#4F1F27" transform="translate(263,257)"/>
<path d="M0 0 C0.33 0 0.66 0 1 0 C0.54177532 3.46941546 0.10868317 6.67395049 -1 10 C-1.66 10 -2.32 10 -3 10 C-2.39009109 6.44219804 -1.4216319 3.3171411 0 0 Z " fill="#471534" transform="translate(268,246)"/>
<path d="M0 0 C2.4375 0.625 2.4375 0.625 5 2 C5.8125 5.125 5.8125 5.125 6 8 C3.33264727 5.51047079 1.44253657 3.36591866 0 0 Z " fill="#55222F" transform="translate(444,211)"/>
<path d="M0 0 C3.36720387 1.39332574 4.9859524 2.9789286 7 6 C6.67 6.66 6.34 7.32 6 8 C4.9970458 6.85675161 3.99770973 5.71032809 3 4.5625 C2.443125 3.92441406 1.88625 3.28632813 1.3125 2.62890625 C0 1 0 1 0 0 Z " fill="#E9BA54" transform="translate(132,394)"/>
<path d="M0 0 C4.875 4.75 4.875 4.75 6 7 C4.125 6.875 4.125 6.875 2 6 C0.75 2.9375 0.75 2.9375 0 0 Z " fill="#D9A751" transform="translate(194,343)"/>
<path d="M0 0 C0 3.10551666 -0.5393715 4.35261084 -2 7 C-2.66 7 -3.32 7 -4 7 C-4 7.66 -4 8.32 -4 9 C-4.66 8.67 -5.32 8.34 -6 8 C-4.02 5.36 -2.04 2.72 0 0 Z " fill="#5E2C2E" transform="translate(117,327)"/>
<path d="M0 0 C2.50037734 2.17424117 3.43628586 3.73045798 4 7 C2.68 6.67 1.36 6.34 0 6 C0 4.02 0 2.04 0 0 Z " fill="#592A34" transform="translate(261,213)"/>
<path d="M0 0 C0.66 0.33 1.32 0.66 2 1 C2.625 3.5625 2.625 3.5625 3 6 C0.525 5.01 0.525 5.01 -2 4 C-2 3.01 -2 2.02 -2 1 C-1.34 0.67 -0.68 0.34 0 0 Z " fill="#D4A457" transform="translate(216,158)"/>
</svg>
